<svg id="Layer_1" data-name="Layer 1" xmlns="http://www.w3.org/2000/svg" viewBox="0 0 375.68 95.15"><defs><style>.cls-1{fill:#1c5087;}</style></defs><path class="cls-1" d="M6.79,65.82c0,7.76,3.69,14.25,10,14.25s11.38-3.92,14.4-9.65l1.13.6c-2,4.6-8.3,10.63-15.76,10.63C4.9,81.65,0,73.89,0,63.93c0-13,8.6-27.3,23.9-27.3a13,13,0,0,1,8.45,2.95,8.05,8.05,0,0,1,2.19,3l1.13-5.13h1.58L34.08,52.39H32.5l.83-4.14c1.81-6.79-4.9-10.11-9.43-10.11C13.2,38.14,6.79,52.77,6.79,65.82Zm8.52-26.24C7.16,43.35,2,53.83,2,64.23,2,70,4.52,76.37,8.75,79l.45-.67c-2.79-2.42-4.3-7.47-4.3-12.52C4.9,56.09,8.07,45.16,15.46,40Z"/><path class="cls-1" d="M59.5,51h1.81c-1,6.34-2.94,13.12-5.58,22.7-.91,3.39-1.21,6.33.37,6.33,1.81,0,2.79-1.65,3.47-4.75H61c-.61,4.53-3.25,6.56-6.19,6.56-4.52,0-7.39-2.33-5.58-8.74A24.94,24.94,0,0,1,47,77.51c-1.58,2.64-3.62,4.37-6,4.37-4.3,0-7.39-3.7-6.18-8.82L40,52.55H37.4l.31-1.66h9.2L41,73.43c-.83,3.4-.83,6.64,1.51,6.64C48.41,80.07,53.47,57,55,51h1.81c-1,5.51-3.54,14.33-5.73,22.55-1.2,4.3,0,6.33,2.64,7.16l.3-.3C52.64,79,53.24,75.7,54,73,56.63,63.86,58.59,57,59.5,51ZM39.44,80.37l.15-.15A2.23,2.23,0,0,1,39,79a13.42,13.42,0,0,1,.3-5.88l5.28-20.58H41.93L36.65,73.06c-.53,2.33-.3,4.22.75,5.65A5.54,5.54,0,0,0,39.44,80.37Z"/><path class="cls-1" d="M83.78,52.17l-.07.07a1.56,1.56,0,0,0-.61-.15h-.45c-3.7,0-7.84,5.43-10.48,11.47l-.15.22-.91,3.47a111.1,111.1,0,0,0-2.94,13.57H66.36c.53-3.54,1.51-7.84,2.79-12.89,1.28-4.75,2.79-9.8,4.53-15.31H70.74C69.15,58,67.79,63.1,66.51,67.85c-1.28,4.9-2.34,9.2-3.17,13h-1.8c.82-3.84,1.88-8.22,3.09-13.12,1.13-4.6,2.56-9.65,4.3-15.08H66.06l.3-1.66h9.5c-.83,2.49-1.58,5-2.33,7.54L75.11,56c2.41-3.54,5.28-5.8,8-5.8h.15Z"/><path class="cls-1" d="M91.62,75.32h1.44c-.61,4.52-3.25,6.56-6.19,6.56-4.6,0-7.91-2.72-6.11-9.13L86,52.62H83l.3-1.66h9.5c-.75,2.72-1.88,7.17-6.25,25-.38,1.81-.83,4.07,1.65,4.07C90,80.07,90.94,78.41,91.62,75.32Zm-6.78,5.05.15-.15c-.83-1.43-.83-2.11-.15-4.75,3-11.76,4.75-18.48,5.5-21.72.08-.45.23-.83.3-1.13H87.85L82.57,73.21A8,8,0,0,0,82.42,78,4.74,4.74,0,0,0,84.84,80.37ZM87,41.23A4.28,4.28,0,0,1,91.25,37a4.42,4.42,0,0,1,4.45,4.22,4.48,4.48,0,0,1-4.45,4.3A4.35,4.35,0,0,1,87,41.23Zm1.73,0a2.6,2.6,0,0,0,2.57,2.64,2.67,2.67,0,0,0,2.64-2.64,2.61,2.61,0,0,0-2.64-2.56A2.54,2.54,0,0,0,88.68,41.23Z"/><path class="cls-1" d="M94.79,71.1c.38-9.51,4.15-20.89,15.08-20.89,6.94,0,10.78,3.92,10.48,12.37-.37,7.84-4.07,19.3-15.83,19.3C98.26,81.88,95,77.35,94.79,71.1Zm6.11,8.44A10.79,10.79,0,0,1,99.09,73c.22-6.41,2.11-17.42,8.37-21.26l-.08-.23c-7.46,2.19-10.48,10.86-10.7,19.3-.23,4.23,1.58,7.47,3.92,9Zm13.35-20.43c0-3.25-.16-7.17-4.23-7.17-6,0-9,16.52-9,22,0,4.75,1.13,6,3.92,6C110.7,80,113.94,64.91,114.25,59.11Zm.15-6.64a12.93,12.93,0,0,1,1.73,7c-.23,6.34-2.79,17.12-8.82,21l.22.3c7.47-2.19,10.71-11.09,10.94-18.4.22-5.51-1.74-8.6-3.85-10.11Z"/><path class="cls-1" d="M119.15,80.82l2.94-12.14H124l-.67,2.64c-1.44,5.43,2.63,8.75,6.25,8.75,5.13,0,6.26-3,6.26-6.41-.07-2.41-1.66-4.3-4.75-5.58-3.39-1.43-6-2.94-5.8-8.75.22-5,5.12-9.35,10.93-9.12,3.32.22,5.2,1.2,6,3a5.92,5.92,0,0,1,.68,2.49L144,50.89h1.89l-2.79,10.93h-1.81l.22-1c.91-3.47,1-8.6-4.82-8.83a5.29,5.29,0,0,0-5.58,5.36c0,3,1.35,4.07,4.67,5.43,3.92,1.73,6.41,4.67,6.19,9.42-.38,5.13-3.32,9.73-11,9.73-4.6,0-7.92-1.43-8.83-6l-1.2,5Zm16-.75c3.25-1.43,4.75-4.3,5-7.92s-1.81-6.33-5.35-7.84c-3.7-1.58-5.43-2.94-5.43-6.86a6.14,6.14,0,0,1,3.39-5.51l-.15-.15a8.31,8.31,0,0,0-5.5,7.39c-.23,4.38,1.5,5.81,4.9,7.17s5.88,3.77,5.8,7-.68,4.82-2.86,6.56Z"/><path class="cls-1" d="M155.87,75.32h1.43c-.6,4.52-3.24,6.56-6.18,6.56-4.6,0-7.92-2.72-6.11-9.13l5.21-20.13h-3l.3-1.66H157c-.75,2.72-1.88,7.17-6.26,25-.37,1.81-.83,4.07,1.66,4.07C154.21,80.07,155.19,78.41,155.87,75.32Zm-6.79,5.05.16-.15c-.83-1.43-.83-2.11-.16-4.75,3-11.76,4.76-18.48,5.51-21.72.08-.45.23-.83.3-1.13H152.1l-5.28,20.59a7.93,7.93,0,0,0-.15,4.75A4.72,4.72,0,0,0,149.08,80.37Zm2.12-39.14A4.28,4.28,0,0,1,155.49,37a4.42,4.42,0,0,1,4.45,4.22,4.48,4.48,0,0,1-4.45,4.3A4.34,4.34,0,0,1,151.2,41.23Zm1.73,0a2.6,2.6,0,0,0,2.56,2.64,2.66,2.66,0,0,0,2.64-2.64,2.6,2.6,0,0,0-2.64-2.56A2.54,2.54,0,0,0,152.93,41.23Z"/><path class="cls-1" d="M163,51h3.4l2.49-10.1h1.81L168.31,51l-.37,1.74-4.68,19.38c-1,4.14-.23,6.71,2.11,7.61l.23-.15a2.2,2.2,0,0,1-.45-1,13.77,13.77,0,0,1,.6-5.58l4.83-20.28.45-1.81,2.41-10h1.81L172.84,51h6.63l-.3,1.66h-6.78l-5,21c-.83,3.39-1.13,5.73,1.13,5.73,2.41,0,4.67-3.77,5.65-7.77h1.59c-1.21,5.43-4.15,9.51-8.45,9.51-4.6,0-7.31-2.87-5.88-9.51l4.6-19h-3.32Z"/><path class="cls-1" d="M176.53,87.46A3.41,3.41,0,0,0,175.48,90c0,1.88,2.18,3.47,5.2,3.47,3.92,0,6.94-4.3,9.28-10.33a82.1,82.1,0,0,0,2.71-7.92,20.46,20.46,0,0,1-2.41,4.15,5.54,5.54,0,0,1-4.6,2.56c-5,0-8.07-4.53-6.86-9.65l4.6-19.61h-3.62l.3-1.66h10.18L185,72.6c-.83,3.47-.3,7.47,2,7.47,1.8,0,4.07-3.24,5.95-7.84l1.36-3.4,1.36-5.65a34.1,34.1,0,0,0,1-8.6,15.34,15.34,0,0,0-.3-3.62h1.81c.07,1,.22,2.19.22,3.62a46.23,46.23,0,0,1-.9,8.75c-2.11,10.25-5.28,22.4-10.48,28.2-.38.45-.83.83-1.21,1.21l.07.22a10.27,10.27,0,0,0,1.06-.6c7.24-4.22,11-17.72,13.27-28.8a46.3,46.3,0,0,0,1.06-8.68,15.46,15.46,0,0,0-.38-3.92h1.81a19,19,0,0,1,.3,3.92,44.7,44.7,0,0,1-1,8.75c-2.71,13.88-8.07,31.82-21.11,31.52-4.23,0-6.94-2.34-6.94-5.13a4.07,4.07,0,0,1,1.13-3Zm4.08-15.23c-.76,3.24.22,7.92,3.77,8.67l.22-.23c-2-1.2-2-5.2-1.35-8.37l4.67-19.68h-2.64Z"/><path class="cls-1" d="M209.41,76.9c-.6,2.64,0,3.17.68,3.17,1.81,0,2.79-1.66,3.47-4.75H215c-.6,4.52-3.32,6.56-6.26,6.56-3.62,0-6.63-3-5.27-8.37L212.66,39H209l.3-1.58h10Zm-1.73,3.85.3-.3c-.53-.53-1-1.36-.3-4.38L217.1,39h-2.71l-9.2,35.14a13.4,13.4,0,0,0-.38,2.79A3.93,3.93,0,0,0,207.68,80.75Z"/><path class="cls-1" d="M239.65,53.38,234.22,72.6c-1.13,4.23-.75,7.17,2.34,8.07l.3-.3a4.45,4.45,0,0,1-1-4.22l7-25,1.74.3L237.69,76.3c-.53,2,.15,3.69,1.28,3.69,1.81,0,2.79-1.65,3.47-4.75h1.43c-.6,4.53-3.24,6.56-6.18,6.56-3.7,0-6.71-2.71-5.66-7.24l1-4.07c-2.63,5.66-6.56,11.31-9.5,11.31-4.22,0-7.46-3.46-7.46-9.87,0-8.68,6.41-21.72,17.49-21.72C236,50.21,239.05,51.19,239.65,53.38ZM222.08,79.77c-1.13-1-1.66-2.64-1.66-5.88,0-7.47,3.7-18.48,10.63-22.17l-.07-.23c-7.54,1.58-13,12.52-13,20.44,0,4.22,1.51,6.93,3.85,8.14Zm15.61-25.94a4.08,4.08,0,0,0-3.85-1.89c-6,0-11.46,13.88-11.46,22,0,5.05.83,6,1.81,6,3.32,0,8.6-11,10.41-15.61Z"/><path class="cls-1" d="M261.37,73.06l4.3-14.41c1-3.39.83-6.63-1.59-6.63-2.79,0-7.84,8.59-10.86,17.12a98.94,98.94,0,0,0-2.41,11.68H249c1-6.93,3.62-17,7.32-28.2h-2.94c-3.25,10.94-5.89,20.89-7.39,28.2h-1.81a289.7,289.7,0,0,1,7.39-28.2H248.7L249,51h9.5c-1.13,3.55-2.11,6.86-3.09,10.26,2.41-6.11,5.51-11,10.86-11,4.3,0,6.86,3.77,5.58,8.82l-4,14.63c-.9,3.39-1.2,6.41.38,6.41,1.81,0,2.79-1.73,3.47-4.83h1.43c-.6,4.53-3.24,6.64-6.18,6.64C262.35,81.88,259.56,79.39,261.37,73.06ZM270,59c.83-3.39.23-6.94-3.32-7.84l-.3.22c1.43,1.29,1.89,4.3,1,7.55l-4.22,14.55c-1.21,4.3,0,6.33,2.64,7.24l.3-.3c-1.36-1.36-.75-4.83,0-7.47Z"/><path class="cls-1" d="M273.74,71.85c0-8.75,6.18-21.64,17.26-21.64a4.1,4.1,0,0,1,3,1,2.64,2.64,0,0,1,.6,1.13L298.47,39h-3.62l.3-1.58h10L294.55,76.83c-.6,2.64,0,3.16.68,3.16,1.81,0,2.79-1.65,3.47-4.75h1.43c-.6,4.53-3.32,6.56-6.26,6.56a5.45,5.45,0,0,1-5.58-4.75,8.26,8.26,0,0,1,.15-3,3.83,3.83,0,0,0-.53,1c-1.81,3.84-4,6.78-6.41,6.78C277,81.8,273.74,78.26,273.74,71.85Zm6,7.92c-1.13-1-1.66-2.72-1.66-6,0-7.46,3.54-18.47,10.41-22.09l-.08-.23C280.9,53.07,275.62,64,275.62,71.85c0,4.22,1.51,7,3.85,8.22Zm9.73-10.56,1.13-2.86,3-10.64a2,2,0,0,0,.08-.68c0-2-.6-3.09-2.41-3.09-6.11,0-11.24,13.73-11.24,22,0,5,.83,6,2,6C284.22,79.92,287.16,74.72,289.5,69.21Zm3.31,11.46.31-.3c-.53-.53-1-1.36-.31-4.37L303,39h-2.72L290.33,74a13.31,13.31,0,0,0-.38,2.79A3.92,3.92,0,0,0,292.81,80.67Z"/><path class="cls-1" d="M313,75.32h1.44c-.61,4.52-3.24,6.56-6.19,6.56-4.6,0-7.91-2.72-6.1-9.13l5.2-20.13h-3l.31-1.66h9.5c-.76,2.72-1.89,7.17-6.26,25-.38,1.81-.83,4.07,1.66,4.07C311.37,80.07,312.35,78.41,313,75.32Zm-6.78,5.05.15-.15c-.83-1.43-.83-2.11-.15-4.75,3-11.76,4.75-18.48,5.5-21.72.08-.45.23-.83.3-1.13h-2.79L304,73.21a7.85,7.85,0,0,0-.15,4.75A4.69,4.69,0,0,0,306.24,80.37Zm2.11-39.14a4.28,4.28,0,0,1,4.3-4.22,4.42,4.42,0,0,1,4.45,4.22,4.48,4.48,0,0,1-4.45,4.3A4.35,4.35,0,0,1,308.35,41.23Zm1.73,0a2.61,2.61,0,0,0,2.57,2.64,2.67,2.67,0,0,0,2.64-2.64,2.61,2.61,0,0,0-2.64-2.56A2.55,2.55,0,0,0,310.08,41.23Z"/><path class="cls-1" d="M339.79,53.38,334.37,72.6c-1.14,4.23-.76,7.17,2.33,8.07l.3-.3a4.47,4.47,0,0,1-1-4.22l7-25,1.73.3L337.83,76.3c-.52,2,.15,3.69,1.29,3.69,1.81,0,2.79-1.65,3.46-4.75H344c-.61,4.53-3.25,6.56-6.19,6.56-3.69,0-6.71-2.71-5.65-7.24l1-4.07c-2.64,5.66-6.56,11.31-9.5,11.31-4.23,0-7.47-3.46-7.47-9.87,0-8.68,6.41-21.72,17.5-21.72C336.1,50.21,339.19,51.19,339.79,53.38ZM322.22,79.77c-1.13-1-1.65-2.64-1.65-5.88,0-7.47,3.69-18.48,10.63-22.17l-.08-.23c-7.54,1.58-13,12.52-13,20.44,0,4.22,1.51,6.93,3.84,8.14Zm15.61-25.94A4.07,4.07,0,0,0,334,51.94c-6,0-11.46,13.88-11.46,22,0,5.05.83,6,1.81,6,3.31,0,8.59-11,10.4-15.61Z"/><path class="cls-1" d="M371.23,0a4.42,4.42,0,0,0-4.45,4.33,4.45,4.45,0,0,0,8.9,0A4.42,4.42,0,0,0,371.23,0Zm0,7.4a3.07,3.07,0,1,1,0-6.14,3.12,3.12,0,0,1,3.06,3.07A3.12,3.12,0,0,1,371.23,7.4Z"/><path class="cls-1" d="M93.06,33.83a.62.62,0,0,1-.32-.09.57.57,0,0,1-.17-.8.58.58,0,0,1,.79-.2.58.58,0,0,1,.2.8l0,0A.56.56,0,0,1,93.06,33.83Z"/><path class="cls-1" d="M94.77,31.52a.56.56,0,0,1-.38-.14.58.58,0,0,1-.07-.81l0,0a.56.56,0,0,1,.81-.08.59.59,0,0,1,.09.82l0,0A.56.56,0,0,1,94.77,31.52Zm61.13-1.05a.57.57,0,0,1-.49-.26.59.59,0,0,1,.15-.82.57.57,0,0,1,.8.15l-.48.32.48-.32,0,0a.58.58,0,0,1-.17.81A.61.61,0,0,1,155.9,30.47Zm-59.19-1.1a.57.57,0,0,1-.41-.16.59.59,0,0,1,0-.83h0a.58.58,0,1,1,.83.81l0,0A.54.54,0,0,1,96.71,29.37Zm57.43-1.2a.57.57,0,0,1-.43-.2l0,0a.58.58,0,0,1,.07-.82.59.59,0,0,1,.82.07h0a.59.59,0,0,1-.44,1Zm-55.33-.79a.56.56,0,0,1-.44-.19.58.58,0,0,1,0-.82l0,0a.58.58,0,1,1,.76.88l0,0A.56.56,0,0,1,98.81,27.38Zm53.33-1.29a.58.58,0,0,1-.4-.16l0,0a.58.58,0,0,1,0-.82.57.57,0,0,1,.82,0l0,0a.58.58,0,0,1,0,.82A.63.63,0,0,1,152.14,26.09Zm-51.09-.53a.58.58,0,0,1-.35-1l0,0a.58.58,0,0,1,.81.12.57.57,0,0,1-.11.81l0,0A.59.59,0,0,1,101.05,25.56Zm48.87-1.33a.59.59,0,0,1-.35-.12h0a.58.58,0,1,1,.7-.93l0,0a.58.58,0,0,1,.12.81A.6.6,0,0,1,149.92,24.23Zm-46.5-.33a.59.59,0,0,1-.49-.27.57.57,0,0,1,.17-.8l0,0a.6.6,0,0,1,.81.18.58.58,0,0,1-.17.8l0,0A.61.61,0,0,1,103.42,23.9Zm44.11-1.29a.67.67,0,0,1-.3-.08l0,0a.58.58,0,0,1-.19-.8.58.58,0,0,1,.8-.19h0a.58.58,0,0,1,.2.79A.57.57,0,0,1,147.53,22.61Zm-41.62-.2a.61.61,0,0,1-.51-.29.57.57,0,0,1,.22-.79l0,0a.58.58,0,1,1,.26,1.1ZM145,21.22a.57.57,0,0,1-.25-.06.59.59,0,0,1-.29-.78.58.58,0,0,1,.77-.28l0,0a.59.59,0,0,1,.26.78A.6.6,0,0,1,145,21.22Zm-36.51-.1a.58.58,0,0,1-.53-.34.59.59,0,0,1,.29-.77h0a.58.58,0,0,1,.77.29.59.59,0,0,1-.29.77h0A.64.64,0,0,1,108.48,21.12Zm33.87-1.05a.52.52,0,0,1-.21,0h0a.59.59,0,0,1-.33-.76.58.58,0,0,1,.75-.33h0a.58.58,0,0,1,.34.75A.59.59,0,0,1,142.35,20.07ZM111.17,20a.58.58,0,0,1-.22-1.12h0a.58.58,0,1,1,.4,1.09A.52.52,0,0,1,111.17,20Zm28.44-.87a.45.45,0,0,1-.16,0h0a.58.58,0,1,1,.33-1.12h0a.59.59,0,0,1,.4.73A.58.58,0,0,1,139.61,19.14Zm-25.71,0a.59.59,0,0,1-.56-.42.58.58,0,0,1,.4-.72h0a.58.58,0,0,1,.33,1.11h0A.45.45,0,0,1,113.9,19.11Zm22.91-.69h-.15a.58.58,0,0,1-.44-.69.57.57,0,0,1,.69-.45h0a.58.58,0,0,1,.45.69A.59.59,0,0,1,136.81,18.42Zm-20.11,0a.59.59,0,0,1-.57-.46.58.58,0,0,1,.44-.69h0a.58.58,0,0,1,.25,1.14h0ZM134,17.9h-.12a.59.59,0,0,1-.48-.67.58.58,0,0,1,.66-.48h0A.58.58,0,0,1,134,17.9Zm-14.43,0a.58.58,0,0,1-.09-1.15h0a.58.58,0,0,1,.65.5.57.57,0,0,1-.49.65h-.11Zm11.56-.3H131a.58.58,0,1,1,.1-1.15h0a.57.57,0,0,1,.53.62A.58.58,0,0,1,131.1,17.56Zm-8.69,0a.59.59,0,0,1-.58-.54.57.57,0,0,1,.53-.62h0a.59.59,0,0,1,.63.53.58.58,0,0,1-.53.63h-.08Zm5.81-.14h-.05a.59.59,0,0,1,0-1.17h0a.6.6,0,0,1,.56.61A.59.59,0,0,1,128.22,17.39Zm-2.92,0a.58.58,0,0,1,0-1.16h0a.58.58,0,0,1,.6.56.59.59,0,0,1-.57.6h0Z"/><path class="cls-1" d="M157.31,33h-.07a.56.56,0,0,1-.47-.35v0a.57.57,0,0,1,.33-.75.55.55,0,0,1,.28,0,.56.56,0,0,1,.27.1.58.58,0,0,1,.15.81A.59.59,0,0,1,157.31,33Z"/><path class="cls-1" d="M310.57,31.13v0a.58.58,0,1,1,.93-.69l-.46.34.47-.33-.46.36ZM159.13,30.7a.56.56,0,0,1-.38-.14.58.58,0,0,1-.06-.82l0,0a.57.57,0,0,1,.82,0,.58.58,0,0,1,.05.82h0A.54.54,0,0,1,159.13,30.7ZM309.23,29a.57.57,0,0,1-.45-.2l0,0a.58.58,0,0,1,.08-.82.59.59,0,0,1,.82.08h0a.57.57,0,0,1-.07.82A.54.54,0,0,1,309.23,29Zm-148.08-.49a.59.59,0,0,1-.42-1l0,0a.57.57,0,0,1,.82,0,.56.56,0,0,1,0,.81l-.42-.4.4.42A.55.55,0,0,1,161.15,28.55Zm146.13-1.72a.59.59,0,0,1-.42-.19l0,0a.6.6,0,0,1,0-.83.58.58,0,0,1,.82,0l0,0a.58.58,0,0,1,0,.82A.61.61,0,0,1,307.28,26.83Zm-144-.32a.59.59,0,0,1-.42-.19.57.57,0,0,1,0-.82l0,0a.58.58,0,0,1,.77.87h0A.55.55,0,0,1,163.27,26.51Zm142-1.8a.6.6,0,0,1-.41-.17l0,0a.58.58,0,0,1,.82-.83l0,0a.57.57,0,0,1,0,.82A.55.55,0,0,1,305.23,24.71ZM165.5,24.57a.58.58,0,0,1-.38-1l0,0a.59.59,0,0,1,.82.07.57.57,0,0,1-.07.82l0,0A.59.59,0,0,1,165.5,24.57Zm2.3-1.84a.59.59,0,0,1-.35-1.05h0a.57.57,0,0,1,.81.1.59.59,0,0,1-.1.82l0,0A.57.57,0,0,1,167.8,22.73Zm135.28-.05a.58.58,0,0,1-.39-.15h0a.59.59,0,0,1,0-.83.59.59,0,0,1,.82,0l0,0a.57.57,0,0,1,0,.82A.56.56,0,0,1,303.08,22.68ZM170.18,21a.6.6,0,0,1-.48-.24.59.59,0,0,1,.14-.81l0,0a.58.58,0,0,1,.81.14.59.59,0,0,1-.14.81l0,0A.58.58,0,0,1,170.18,21Zm130.67-.22a.59.59,0,0,1-.37-.14h0a.58.58,0,0,1,.74-.9l0,0a.58.58,0,0,1-.37,1ZM172.62,19.33a.58.58,0,0,1-.32-1.07l0,0a.58.58,0,0,1,.8.18.57.57,0,0,1-.18.8h0A.55.55,0,0,1,172.62,19.33Zm125.92-.4a.63.63,0,0,1-.35-.11l0,0a.58.58,0,0,1-.11-.81.58.58,0,0,1,.82-.11h0a.59.59,0,0,1,.12.82A.58.58,0,0,1,298.54,18.93ZM175.11,17.76a.58.58,0,0,1-.49-.28.58.58,0,0,1,.19-.8h0a.57.57,0,0,1,.8.2.59.59,0,0,1-.2.8h0A.52.52,0,0,1,175.11,17.76Zm121-.56a.58.58,0,0,1-.33-.1l0,0a.59.59,0,0,1-.14-.81.57.57,0,0,1,.81-.14h0a.58.58,0,0,1,.15.8A.56.56,0,0,1,296.15,17.2Zm-118.49-.92a.56.56,0,0,1-.5-.29.59.59,0,0,1,.22-.8h0a.58.58,0,0,1,.58,1l0,0A.59.59,0,0,1,177.66,16.28Zm116-.71a.63.63,0,0,1-.32-.1.59.59,0,0,1-.19-.81.56.56,0,0,1,.79-.18l0,0a.59.59,0,0,1-.32,1.07Zm-113.44-.68a.6.6,0,0,1-.52-.32.59.59,0,0,1,.26-.78h0a.58.58,0,0,1,.54,1l0,0A.58.58,0,0,1,180.26,14.89ZM291.18,14a.67.67,0,0,1-.3-.08h0a.6.6,0,0,1-.21-.8.59.59,0,0,1,.8-.21l0,0a.58.58,0,0,1-.3,1.08ZM182.9,13.58a.58.58,0,0,1-.53-.33.6.6,0,0,1,.28-.78h0a.58.58,0,0,1,.51,1h0A.57.57,0,0,1,182.9,13.58Zm105.71-1a.58.58,0,0,1-.28-.07h0a.58.58,0,1,1,.55-1l0,0a.57.57,0,0,1,.24.78A.56.56,0,0,1,288.61,12.59Zm-103-.25a.61.61,0,0,1-.54-.34.58.58,0,0,1,.29-.77h0a.58.58,0,0,1,.76.31.58.58,0,0,1-.31.76A.69.69,0,0,1,185.59,12.34ZM286,11.25a.57.57,0,0,1-.25-.06h0a.58.58,0,0,1-.26-.78.58.58,0,0,1,.77-.27h0a.58.58,0,0,1-.26,1.11Zm-97.69-.06a.57.57,0,0,1-.54-.36.58.58,0,0,1,.32-.76h0a.58.58,0,0,1,.76.32.57.57,0,0,1-.31.76h0A.57.57,0,0,1,188.29,11.19ZM191,10.12a.58.58,0,0,1-.2-1.12l0,0a.59.59,0,0,1,.75.35.58.58,0,0,1-.35.74h0A.52.52,0,0,1,191,10.12ZM283.31,10a.46.46,0,0,1-.23-.05h0a.58.58,0,0,1-.29-.77.58.58,0,0,1,.76-.29h0a.58.58,0,0,1-.24,1.11Zm-89.5-.88A.58.58,0,0,1,193.62,8h0a.57.57,0,0,1,.74.36.58.58,0,0,1-.35.74h0Zm86.79-.27a.52.52,0,0,1-.21,0h0a.58.58,0,1,1,.43-1.08h0a.58.58,0,0,1-.21,1.12Zm-84-.66a.58.58,0,0,1-.55-.4.58.58,0,0,1,.37-.73h0a.58.58,0,0,1,.73.38.59.59,0,0,1-.39.73h0Zm81.25-.39a.48.48,0,0,1-.2,0h0a.58.58,0,0,1,.4-1.09h0a.58.58,0,0,1-.19,1.13Zm-78.43-.46a.6.6,0,0,1-.56-.42.59.59,0,0,1,.4-.72h0a.58.58,0,0,1,.32,1.12h0Zm75.64-.5a.57.57,0,0,1-.18,0h0a.58.58,0,0,1,.35-1.11h0a.59.59,0,0,1,.37.74A.6.6,0,0,1,275.06,6.84Zm-72.8-.29a.58.58,0,0,1-.15-1.14h0a.58.58,0,0,1,.29,1.13h0A.39.39,0,0,1,202.26,6.55Zm70-.58a.51.51,0,0,1-.17,0h0a.58.58,0,1,1,.32-1.11h0a.58.58,0,0,1,.4.72A.6.6,0,0,1,272.25,6Zm-67.13-.13a.59.59,0,0,1-.56-.45.57.57,0,0,1,.43-.7h0a.6.6,0,0,1,.71.43.58.58,0,0,1-.43.7h0Zm64.29-.65-.15,0h0a.58.58,0,0,1-.41-.71.57.57,0,0,1,.7-.42h0a.58.58,0,0,1,.41.71A.59.59,0,0,1,269.41,5.19ZM208,5.18A.58.58,0,0,1,207.87,4h0a.58.58,0,1,1,.25,1.13H208Zm2.88-.58a.59.59,0,0,1-.11-1.16h0A.58.58,0,0,1,211,4.58h-.14Zm55.66-.11h-.15a.57.57,0,0,1-.44-.69.58.58,0,0,1,.69-.44h0a.58.58,0,0,1-.13,1.14Zm-52.76-.42a.58.58,0,0,1-.57-.48.6.6,0,0,1,.48-.68h0a.58.58,0,0,1,.2,1.15h-.13Zm49.88-.18h-.14a.58.58,0,1,1,.22-1.14h0a.58.58,0,0,1-.12,1.15Zm-47-.29a.57.57,0,0,1-.57-.49.58.58,0,0,1,.49-.66h0a.59.59,0,0,1,.66.49.58.58,0,0,1-.49.66h-.12Zm44.07-.23h-.12a.58.58,0,0,1,.18-1.15h0a.57.57,0,0,1,.47.67A.59.59,0,0,1,260.76,3.37ZM219.61,3.2A.58.58,0,0,1,219.54,2h0a.58.58,0,0,1,.65.5.58.58,0,0,1-.5.65h-.11Zm38.24-.28h-.11a.58.58,0,0,1-.5-.65.59.59,0,0,1,.66-.5h0a.58.58,0,0,1-.07,1.15Zm-35.31-.07a.58.58,0,0,1-.58-.52.57.57,0,0,1,.51-.64h0a.59.59,0,0,1,.65.52.58.58,0,0,1-.52.64h-.09Zm32.38-.29h-.09a.6.6,0,0,1-.52-.65A.58.58,0,0,1,255,1.4h0a.59.59,0,0,1,.52.64A.58.58,0,0,1,254.92,2.56Zm-29.45,0a.58.58,0,0,1-.05-1.16h0a.58.58,0,0,1,.12,1.16h-.09Zm2.94-.24a.58.58,0,0,1,0-1.16h0a.58.58,0,0,1,.63.53.6.6,0,0,1-.54.63h-.07Zm23.58,0h-.08a.57.57,0,0,1-.53-.62.59.59,0,0,1,.63-.54h0a.58.58,0,0,1,.53.63A.59.59,0,0,1,252,2.28Zm-20.64-.16a.58.58,0,0,1,0-1.16h0a.58.58,0,0,1,.61.55.59.59,0,0,1-.55.61h-.06Zm17.7-.06H249a.58.58,0,0,1-.55-.61.59.59,0,0,1,.62-.55h0a.59.59,0,0,1,.55.62A.57.57,0,0,1,249.05,2.06ZM234.29,2a.58.58,0,0,1,0-1.16h0a.58.58,0,1,1,0,1.16h-.05Zm11.82-.06h-.06a.57.57,0,0,1-.55-.6.57.57,0,0,1,.6-.56h0a.59.59,0,0,1,.57.6A.58.58,0,0,1,246.11,1.92Zm-8.87,0a.57.57,0,0,1-.58-.57.57.57,0,0,1,.57-.59h0a.58.58,0,0,1,.6.56.59.59,0,0,1-.57.6h0Zm5.92,0h0a.57.57,0,0,1-.58-.58.58.58,0,0,1,.58-.58h0a.58.58,0,0,1,.57.59A.57.57,0,0,1,243.16,1.85Zm-3,0a.59.59,0,0,1-.58-.58.6.6,0,0,1,.58-.59h0a.6.6,0,0,1,.59.59.59.59,0,0,1-.59.58h0Z"/><path class="cls-1" d="M312.69,33.82a.59.59,0,0,1-.51-.28v0a.58.58,0,0,1,1-.57l-.49.28h0l.5-.27-.49.28.51.27a.58.58,0,0,1-.51.31Z"/><path class="cls-1" d="M314.18,31.34a.61.61,0,0,1-.31-.09.6.6,0,0,1-.18-.81l0,0a.59.59,0,0,1,1,.64l0,0A.59.59,0,0,1,314.18,31.34Zm1.66-2.43a.57.57,0,0,1-.47-.91l0,0a.59.59,0,0,1,.82-.12.59.59,0,0,1-.37,1.06Zm1.78-2.31a.59.59,0,0,1-.36-.13.58.58,0,0,1-.1-.82l0,0a.58.58,0,1,1,.91.73l0,0A.58.58,0,0,1,317.62,26.6Zm1.88-2.25a.62.62,0,0,1-.39-.14.58.58,0,0,1-.05-.82l0,0a.58.58,0,1,1,.87.76l0,0A.57.57,0,0,1,319.5,24.35Zm2-2.16a.58.58,0,0,1-.42-1h0a.58.58,0,0,1,.85.79l0,0A.54.54,0,0,1,321.48,22.19Zm2.07-2.06a.59.59,0,0,1-.42-.18.58.58,0,0,1,0-.82l0,0A.58.58,0,0,1,324,20h0A.55.55,0,0,1,323.55,20.13Zm2.17-2a.56.56,0,0,1-.44-.21.58.58,0,0,1,.06-.82h0a.58.58,0,0,1,.76.88l0,0A.62.62,0,0,1,325.72,18.17ZM328,16.3a.55.55,0,0,1-.45-.22.57.57,0,0,1,.08-.81h0a.58.58,0,0,1,.82.1.57.57,0,0,1-.1.81A.58.58,0,0,1,328,16.3Zm2.34-1.73a.58.58,0,0,1-.33-1.06l0,0a.59.59,0,0,1,.81.15.58.58,0,0,1-.14.81h0A.6.6,0,0,1,330.33,14.57ZM332.77,13a.58.58,0,0,1-.49-.27.56.56,0,0,1,.18-.8l0,0a.58.58,0,1,1,.62,1l0,0A.61.61,0,0,1,332.77,13Zm2.51-1.49a.57.57,0,0,1-.5-.3.58.58,0,0,1,.22-.79h0a.58.58,0,0,1,.79.22.59.59,0,0,1-.23.79l0,0A.59.59,0,0,1,335.28,11.46Zm2.6-1.35a.59.59,0,0,1-.53-.33.58.58,0,0,1,.27-.78h0a.58.58,0,0,1,.51,1h0A.57.57,0,0,1,337.88,10.11Zm2.67-1.22a.6.6,0,0,1-.54-.35.59.59,0,0,1,.3-.76h0a.58.58,0,1,1,.2,1.12Zm2.74-1.05a.61.61,0,0,1-.56-.38.57.57,0,0,1,.34-.74h0a.59.59,0,0,1,.75.35.58.58,0,0,1-.35.74A.51.51,0,0,1,343.29,7.84ZM346.05,7a.59.59,0,0,1-.56-.42.58.58,0,0,1,.4-.72h0a.58.58,0,0,1,.33,1.12h0A.45.45,0,0,1,346.05,7Zm2.83-.74a.58.58,0,0,1-.57-.45.58.58,0,0,1,.43-.7h0A.58.58,0,0,1,349,6.19h0Zm2.86-.58a.58.58,0,0,1-.1-1.15h0a.58.58,0,0,1,.2,1.15h-.13Zm2.91-.42a.59.59,0,0,1-.59-.51.58.58,0,0,1,.5-.64h0a.59.59,0,0,1,.65.51.58.58,0,0,1-.5.65h-.08ZM357.54,5a.58.58,0,0,1,0-1.16h0a.57.57,0,0,1,.61.55.58.58,0,0,1-.54.62h-.07Zm2.93-.1a.58.58,0,0,1-.58-.58.57.57,0,0,1,.57-.58h0a.58.58,0,0,1,0,1.16Z"/><path class="cls-1" d="M363.38,4.91a.58.58,0,0,1-.56-.61.56.56,0,0,1,.6-.55l0,.58,0-.58Z"/></svg>