<svg id="Layer_1" data-name="Layer 1" xmlns="http://www.w3.org/2000/svg" viewBox="0 0 394.17 82.88"><defs><style>.cls-1,.cls-3{fill:#f8991d;}.cls-1,.cls-2{fill-rule:evenodd;}.cls-2{fill:#010101;}</style></defs><path class="cls-1" d="M135.94,68.48c-12.73,9.4-31.19,14.4-47.08,14.4A85.24,85.24,0,0,1,31.34,60.94c-1.19-1.08-.13-2.55,1.31-1.72A115.74,115.74,0,0,0,90.19,74.49a114.61,114.61,0,0,0,43.9-9C136.24,64.6,138,66.93,135.94,68.48Z"/><path class="cls-1" d="M141.24,62.44c-1.63-2.09-10.77-1-14.87-.5-1.25.15-1.44-.94-.32-1.72,7.29-5.12,19.23-3.65,20.62-1.93s-.37,13.7-7.2,19.41c-1.05.88-2.05.41-1.58-.75C139.43,73.11,142.87,64.52,141.24,62.44Z"/><path class="cls-2" d="M126.66,24.06v-5a1.22,1.22,0,0,1,1.26-1.26h22.29a1.24,1.24,0,0,1,1.28,1.26v4.26c0,.72-.6,1.65-1.67,3.13L138.27,43A24.69,24.69,0,0,1,151,45.69a2.27,2.27,0,0,1,1.19,1.94v5.31a1.19,1.19,0,0,1-1.65,1.13,25.68,25.68,0,0,0-23.55,0c-.77.41-1.58-.42-1.58-1.16v-5a6,6,0,0,1,.83-3.42l13.37-19.19H128A1.24,1.24,0,0,1,126.66,24.06Z"/><path class="cls-2" d="M45.34,55.12H38.56A1.28,1.28,0,0,1,37.35,54V19.17a1.29,1.29,0,0,1,1.31-1.26H45a1.28,1.28,0,0,1,1.23,1.17v4.55h.13c1.64-4.4,4.75-6.45,8.92-6.45s6.9,2.05,8.8,6.45A10,10,0,0,1,81.28,21C83.43,23.92,83,28.17,83,31.9v22a1.28,1.28,0,0,1-1.31,1.25H74.9a1.26,1.26,0,0,1-1.21-1.25V35.42a44.06,44.06,0,0,0-.2-6.52c-.5-2.34-2-3-4-3a4.5,4.5,0,0,0-4.06,2.85c-.69,1.76-.63,4.69-.63,6.67V53.87a1.28,1.28,0,0,1-1.31,1.25H56.74a1.27,1.27,0,0,1-1.22-1.25V35.42c0-3.88.63-9.6-4.18-9.6s-4.69,5.57-4.69,9.6V53.87A1.28,1.28,0,0,1,45.34,55.12Z"/><path class="cls-2" d="M170.69,17.18c10.06,0,15.5,8.64,15.5,19.63,0,10.62-6,19-15.5,19-9.88,0-15.26-8.64-15.26-19.41S160.87,17.18,170.69,17.18Zm.06,7.11c-5,0-5.32,6.81-5.32,11.05s-.06,13.33,5.26,13.33,5.5-7.32,5.5-11.79a32.1,32.1,0,0,0-1-9.23A4.24,4.24,0,0,0,170.75,24.29Z"/><path class="cls-2" d="M199.25,55.12h-6.76a1.27,1.27,0,0,1-1.22-1.25V19.05a1.29,1.29,0,0,1,1.31-1.14h6.29a1.29,1.29,0,0,1,1.2,1v5.32h.13c1.9-4.76,4.56-7,9.24-7a8.88,8.88,0,0,1,7.91,4.1c1.78,2.79,1.78,7.47,1.78,10.84V54a1.29,1.29,0,0,1-1.3,1.1H211a1.28,1.28,0,0,1-1.21-1.1V35.13c0-3.81.45-9.38-4.24-9.38a4.43,4.43,0,0,0-3.92,2.78,15.5,15.5,0,0,0-1.08,6.6V53.87A1.3,1.3,0,0,1,199.25,55.12Z"/><path class="cls-2" d="M108.89,38.5c0,2.64.06,4.84-1.27,7.19a5.51,5.51,0,0,1-4.7,3.09c-2.6,0-4.12-2-4.12-4.92C98.8,38.08,104,37,108.89,37ZM115.72,55a1.39,1.39,0,0,1-1.6.16,16.77,16.77,0,0,1-3.89-4.52c-3.72,3.79-6.35,4.93-11.18,4.93C93.34,55.6,88.9,52.08,88.9,45A11.51,11.51,0,0,1,96.13,34C99.81,32.33,105,32,108.89,31.6v-.88c0-1.62.12-3.53-.83-4.92a4.51,4.51,0,0,0-3.8-1.76c-2.59,0-4.89,1.32-5.46,4.07a1.42,1.42,0,0,1-1.17,1.25l-6.58-.72a1.19,1.19,0,0,1-1-1.41c1.51-8,8.71-10.39,15.17-10.39,3.3,0,7.61.88,10.21,3.38,3.3,3.08,3,7.19,3,11.67V42.46c0,3.18,1.32,4.57,2.56,6.28a1.27,1.27,0,0,1,0,1.8c-1.38,1.17-3.85,3.3-5.2,4.51Z"/><path class="cls-2" d="M20,38.5c0,2.64.07,4.84-1.27,7.19A5.5,5.5,0,0,1,14,48.78c-2.6,0-4.12-2-4.12-4.92C9.9,38.08,15.08,37,20,37ZM26.82,55a1.39,1.39,0,0,1-1.6.16,16.41,16.41,0,0,1-3.89-4.52C17.61,54.46,15,55.6,10.15,55.6,4.44,55.6,0,52.08,0,45A11.51,11.51,0,0,1,7.23,34C10.91,32.33,16.05,32,20,31.6v-.88c0-1.62.13-3.53-.82-4.92A4.53,4.53,0,0,0,15.35,24c-2.58,0-4.88,1.32-5.45,4.07a1.43,1.43,0,0,1-1.18,1.25l-6.57-.72a1.19,1.19,0,0,1-1-1.41c1.51-8,8.71-10.39,15.16-10.39,3.3,0,7.62.88,10.22,3.38,3.3,3.08,3,7.19,3,11.67V42.46c0,3.18,1.32,4.57,2.56,6.28a1.28,1.28,0,0,1,0,1.8c-1.39,1.17-3.85,3.3-5.2,4.51Z"/><path class="cls-3" d="M250.55,55.13,234.74,36h-.07V55.13H229V0h5.69V31.31h.07l13.55-13h7.39l-16.19,15,18.29,21.8Z"/><path class="cls-3" d="M264.4,10.59a4,4,0,1,1,4-4A4,4,0,0,1,264.4,10.59Zm-2.8,44.54V18.3h5.68V55.13Z"/><path class="cls-3" d="M299.21,55.13V32.47c0-4.59-.78-9.73-6.38-9.73-4.52,0-8.64,3.19-11.44,5.61V55.13h-5.68V18.3h4.67l.77,4.44c4.05-3.12,8-5.37,13.16-5.37,5.29,0,10.58,3.81,10.58,13V55.13Z"/><path class="cls-3" d="M330,55.91c-10.28,0-18.92-6-18.92-18.69,0-11.44,8.25-19.85,19-19.85a23.5,23.5,0,0,1,6,.62V0h5.68V53.27A24.72,24.72,0,0,1,330,55.91ZM336,23.28a14.28,14.28,0,0,0-5.68-.93c-7.24,0-13.55,5.69-13.55,14.48,0,8.34,4.59,14.26,14.17,14.26a13.24,13.24,0,0,0,5.06-.94Z"/><path class="cls-3" d="M356.5,55.91C352,55.91,350,53,350,49.14V0h5.68V46.57c0,3.5.86,4.2,3,4.2a7.39,7.39,0,0,0,1.94-.23l.7,4.13A10,10,0,0,1,356.5,55.91Z"/><path class="cls-3" d="M370.59,37.69c0,7,4,13.32,12,13.32a17.63,17.63,0,0,0,8.95-2.73l1.79,4a22.32,22.32,0,0,1-11.44,3.58c-11.75,0-17.36-9.42-17.36-19.93,0-10.67,6.08-18.61,14.95-18.61,9.5,0,14.71,7.55,14.71,19v1.32Zm9-15.5c-5.45,0-8.88,4.83-8.88,10.67H388C388,27.72,385.14,22.19,379.54,22.19Z"/></svg>