<svg id="Layer_2" data-name="Layer 2" xmlns="http://www.w3.org/2000/svg" xmlns:xlink="http://www.w3.org/1999/xlink" viewBox="0 0 132.09 39.14"><defs><style>.cls-1{fill:#a6a6a6;}.cls-10,.cls-2,.cls-3{fill:#fff;}.cls-2{stroke:#fff;stroke-miterlimit:10;stroke-width:0.2px;}.cls-4{fill:url(#linear-gradient);}.cls-5{fill:url(#linear-gradient-2);}.cls-6{fill:url(#linear-gradient-3);}.cls-7{fill:url(#linear-gradient-4);}.cls-8{opacity:0.2;}.cls-10,.cls-8,.cls-9{isolation:isolate;}.cls-9{opacity:0.12;}.cls-10{opacity:0.25;}</style><linearGradient id="linear-gradient" x1="22.8" y1="618.96" x2="6.38" y2="635.37" gradientTransform="translate(0 -610)" gradientUnits="userSpaceOnUse"><stop offset="0" stop-color="#00a0ff"/><stop offset="0.01" stop-color="#00a1ff"/><stop offset="0.26" stop-color="#00beff"/><stop offset="0.51" stop-color="#00d2ff"/><stop offset="0.76" stop-color="#00dfff"/><stop offset="1" stop-color="#00e3ff"/></linearGradient><linearGradient id="linear-gradient-2" x1="34.56" y1="629.99" x2="10.89" y2="629.99" gradientTransform="translate(0 -610)" gradientUnits="userSpaceOnUse"><stop offset="0" stop-color="#ffe000"/><stop offset="0.41" stop-color="#ffbd00"/><stop offset="0.78" stop-color="orange"/><stop offset="1" stop-color="#ff9c00"/></linearGradient><linearGradient id="linear-gradient-3" x1="25.75" y1="632.24" x2="3.48" y2="654.5" gradientTransform="translate(0 -610)" gradientUnits="userSpaceOnUse"><stop offset="0" stop-color="#ff3a44"/><stop offset="1" stop-color="#c31162"/></linearGradient><linearGradient id="linear-gradient-4" x1="8.6" y1="610.6" x2="18.54" y2="620.54" gradientTransform="translate(0 -610)" gradientUnits="userSpaceOnUse"><stop offset="0" stop-color="#32a071"/><stop offset="0.07" stop-color="#2da771"/><stop offset="0.48" stop-color="#15cf74"/><stop offset="0.8" stop-color="#06e775"/><stop offset="1" stop-color="#00f076"/></linearGradient></defs><rect width="132.09" height="39.14" rx="4.89"/><path class="cls-1" d="M128.65,1.21a4.11,4.11,0,0,1,4.11,4.11V34.67a4.11,4.11,0,0,1-4.11,4.11H6.35a4.11,4.11,0,0,1-4.11-4.11h0V5.32A4.11,4.11,0,0,1,6.35,1.21h122.3m0-.78H6.35A4.89,4.89,0,0,0,1.46,5.32V34.67a4.89,4.89,0,0,0,4.89,4.89h122.3a4.89,4.89,0,0,0,4.89-4.89V5.32A4.89,4.89,0,0,0,128.65.43Z" transform="translate(-1.46 -0.43)"/><path class="cls-2" d="M47.85,10.44a2.63,2.63,0,0,1-.73,2,2.85,2.85,0,0,1-2.15.86,3,3,0,0,1-2.17-.88,3,3,0,0,1-.89-2.17A3,3,0,0,1,42.8,8a3.11,3.11,0,0,1,3.37-.64,2.52,2.52,0,0,1,.92.66l-.52.52A1.94,1.94,0,0,0,45,7.86a2.26,2.26,0,0,0-2.28,2.26v.09A2.31,2.31,0,0,0,46.6,11.9a1.88,1.88,0,0,0,.5-1.19H45V10h2.84A2.25,2.25,0,0,1,47.85,10.44Z" transform="translate(-1.46 -0.43)"/><path class="cls-2" d="M52.33,8H49.69V9.86H52.1v.7H49.69v1.86h2.64v.72h-3.4V7.27h3.4Z" transform="translate(-1.46 -0.43)"/><path class="cls-2" d="M55.54,13.14h-.75V8H53.15V7.27h4.08V8H55.54Z" transform="translate(-1.46 -0.43)"/><path class="cls-2" d="M60.1,13.14V7.27h.76v5.87Z" transform="translate(-1.46 -0.43)"/><path class="cls-2" d="M64.2,13.14h-.75V8H61.81V7.27h4V8H64.2Z" transform="translate(-1.46 -0.43)"/><path class="cls-2" d="M73.48,12.38a3,3,0,0,1-4.31,0h0a3,3,0,0,1-.86-2.17A3,3,0,0,1,69.17,8a2.87,2.87,0,0,1,2.16-.89A2.91,2.91,0,0,1,73.48,8a3,3,0,0,1,.86,2.17A2.93,2.93,0,0,1,73.48,12.38Zm-3.75-.49a2.24,2.24,0,0,0,3.17,0l0,0a2.29,2.29,0,0,0,.66-1.68,2.35,2.35,0,0,0-.7-1.68,2.24,2.24,0,0,0-3.17,0l0,0a2.3,2.3,0,0,0-.61,1.68A2.28,2.28,0,0,0,69.73,11.89Z" transform="translate(-1.46 -0.43)"/><path class="cls-2" d="M75.41,13.14V7.27h.91l2.85,4.57h0V7.27h.76v5.87h-.79l-3-4.78h0v4.78Z" transform="translate(-1.46 -0.43)"/><path class="cls-3" d="M68.13,21.71a4.17,4.17,0,1,0,4.17,4.15,4.08,4.08,0,0,0-4-4.15A.29.29,0,0,0,68.13,21.71Zm0,6.68a2.53,2.53,0,1,1,2.34-2.7v.17a2.41,2.41,0,0,1-2.28,2.53ZM59,21.71a4.17,4.17,0,1,0,4.18,4.15,4.1,4.1,0,0,0-4-4.15A.33.33,0,0,0,59,21.71Zm0,6.68a2.53,2.53,0,1,1,2.34-2.7c0,.06,0,.12,0,.17a2.42,2.42,0,0,1-2.29,2.53ZM48.17,23v1.76h4.22a3.64,3.64,0,0,1-1,2.22,4.32,4.32,0,0,1-3.26,1.29,4.7,4.7,0,1,1,0-9.39,4.54,4.54,0,0,1,3.21,1.26l1.24-1.24a6.14,6.14,0,0,0-4.43-1.78A6.47,6.47,0,1,0,47.66,30h.51a5.7,5.7,0,0,0,6-6A5.72,5.72,0,0,0,54.12,23ZM92.5,24.36A3.83,3.83,0,0,0,85,25.61v.25a4.14,4.14,0,0,0,7.6,2.32l-1.42-1a2.36,2.36,0,0,1-2,1.15,2.09,2.09,0,0,1-2-1.26l5.56-2.3Zm-5.68,1.39A2.29,2.29,0,0,1,89,23.32H89a1.61,1.61,0,0,1,1.53.88Zm-4.52,4h1.83V17.55H82.3Zm-3-7.14h-.07a2.81,2.81,0,0,0-2.19-.93,4.16,4.16,0,0,0,0,8.32,2.8,2.8,0,0,0,2.19-1h.07v.6c0,1.6-.85,2.45-2.22,2.45A2.32,2.32,0,0,1,75,30.62l-1.58.65a3.92,3.92,0,0,0,3.69,2.47c2.14,0,3.91-1.26,3.91-4.33V22H79.31Zm-2.1,5.75a2.52,2.52,0,0,1,0-5,2.34,2.34,0,0,1,2.23,2.44v.07a2.33,2.33,0,0,1-2.13,2.52Zm23.86-10.84H96.69V29.78h1.83V25.14h2.55a3.8,3.8,0,0,0,.55-7.59A2.53,2.53,0,0,0,101.07,17.55Zm0,5.87H98.52V19.25h2.59a2.1,2.1,0,0,1,0,4.19h0Zm11.29-1.75a3.41,3.41,0,0,0-3.26,1.87l1.62.67a1.74,1.74,0,0,1,1.67-.89,1.76,1.76,0,0,1,2,1.55V25a4.12,4.12,0,0,0-1.91-.47c-1.74,0-3.52,1-3.52,2.76a2.83,2.83,0,0,0,3,2.7H112a2.61,2.61,0,0,0,2.33-1.19h.06v1h1.76V25.07c0-2.14-1.63-3.38-3.71-3.38Zm-.22,6.7c-.6,0-1.43-.3-1.43-1,0-1,1-1.31,2-1.31a3.33,3.33,0,0,1,1.67.41,2.22,2.22,0,0,1-2.16,2ZM122.53,22l-2.1,5.3h-.06L118.2,22h-2l3.26,7.42-1.86,4.12h2l5-11.54Zm-16.44,7.83h1.82V17.55h-1.82Z" transform="translate(-1.46 -0.43)"/><path class="cls-4" d="M11.67,7.8a2,2,0,0,0-.43,1.37V30.81a1.89,1.89,0,0,0,.46,1.37l.07.08L23.86,20.14v-.29L11.74,7.73Z" transform="translate(-1.46 -0.43)"/><path class="cls-5" d="M27.87,24.18l-4-4v-.29l4-4,.09,0,4.81,2.72c1.37.78,1.37,2.05,0,2.83L28,24.13Z" transform="translate(-1.46 -0.43)"/><path class="cls-6" d="M28,24.13,23.86,20,11.67,32.18a1.59,1.59,0,0,0,2,.07L28,24.13" transform="translate(-1.46 -0.43)"/><path class="cls-7" d="M28,15.86,13.7,7.74a1.59,1.59,0,0,0-2,.06L23.86,20Z" transform="translate(-1.46 -0.43)"/><path class="cls-8" d="M27.87,24,13.7,32.11a1.65,1.65,0,0,1-2,0h0l-.07.06h0l.07.08h0a1.62,1.62,0,0,0,2,0L28,24.13Z" transform="translate(-1.46 -0.43)"/><path class="cls-9" d="M11.67,32.05a2,2,0,0,1-.43-1.38v.14a1.89,1.89,0,0,0,.46,1.37l.07-.06Z" transform="translate(-1.46 -0.43)"/><path class="cls-9" d="M32.77,21.27,27.87,24l.09.1,4.81-2.73a1.7,1.7,0,0,0,1-1.41h0A1.83,1.83,0,0,1,32.77,21.27Z" transform="translate(-1.46 -0.43)"/><path class="cls-10" d="M13.7,7.88,32.77,18.72a1.84,1.84,0,0,1,1,1.27h0a1.73,1.73,0,0,0-1-1.41L13.7,7.74c-1.36-.78-2.46-.13-2.46,1.43v.15C11.24,7.75,12.34,7.11,13.7,7.88Z" transform="translate(-1.46 -0.43)"/></svg>