<svg id="US_UK" xmlns="http://www.w3.org/2000/svg" xmlns:xlink="http://www.w3.org/1999/xlink" viewBox="0 0 140.95 40"><defs><style>.cls-1{fill:#a6a6a6;}.cls-2{fill:#fff;}.cls-3{fill:url(#RGB_Grad_R4v1);}</style><linearGradient id="RGB_Grad_R4v1" x1="20.1" y1="7.42" x2="20.1" y2="32.58" gradientUnits="userSpaceOnUse"><stop offset="0" stop-color="#ffa80b"/><stop offset="1" stop-color="#f27218"/></linearGradient></defs><path class="cls-1" d="M131.42,0H7.52a13.51,13.51,0,0,0-2,.18,6.74,6.74,0,0,0-1.9.63A6.3,6.3,0,0,0,2,2,6.07,6.07,0,0,0,.82,3.62a6.74,6.74,0,0,0-.63,1.9,12.18,12.18,0,0,0-.17,2c0,.31,0,.62,0,.92V31.56c0,.31,0,.61,0,.92a12.18,12.18,0,0,0,.17,2,6.8,6.8,0,0,0,.63,1.91A6.19,6.19,0,0,0,2,38a6.07,6.07,0,0,0,1.62,1.18,6.74,6.74,0,0,0,1.9.63,13.51,13.51,0,0,0,2,.18H133.43a13.39,13.39,0,0,0,2-.18,6.74,6.74,0,0,0,1.9-.63A6.07,6.07,0,0,0,139,38a6.19,6.19,0,0,0,1.18-1.61,6.48,6.48,0,0,0,.62-1.91,13.41,13.41,0,0,0,.19-2v-.92c0-.36,0-.73,0-1.1V9.54c0-.37,0-.73,0-1.1V7.52a13.41,13.41,0,0,0-.19-2,6.42,6.42,0,0,0-.62-1.9A6.07,6.07,0,0,0,139,2,6.3,6.3,0,0,0,137.33.82a6.74,6.74,0,0,0-1.9-.63,13.39,13.39,0,0,0-2-.18h-2Z"/><path d="M8.44,39.12h-.9A11.52,11.52,0,0,1,5.67,39,5.89,5.89,0,0,1,4,38.4a5.16,5.16,0,0,1-1.39-1,5.19,5.19,0,0,1-1-1.4,5.79,5.79,0,0,1-.55-1.66,12.1,12.1,0,0,1-.16-1.87c0-.21,0-.92,0-.92V8.44s0-.69,0-.89a12,12,0,0,1,.16-1.87A5.69,5.69,0,0,1,1.6,4a5.06,5.06,0,0,1,1-1.4A5.52,5.52,0,0,1,4,1.6a5.79,5.79,0,0,1,1.66-.55A12.1,12.1,0,0,1,7.54.89H133.41a11.88,11.88,0,0,1,1.86.16,5.85,5.85,0,0,1,1.67.55,5.33,5.33,0,0,1,1.39,1,5.46,5.46,0,0,1,1.56,3.06,13.72,13.72,0,0,1,.18,1.88v.89c0,.38,0,.74,0,1.1V30.46c0,.37,0,.72,0,1.08v.93a13.16,13.16,0,0,1-.18,1.85,5.28,5.28,0,0,1-.54,1.67,5.63,5.63,0,0,1-1,1.39,5.19,5.19,0,0,1-1.4,1,5.66,5.66,0,0,1-1.67.55,11.34,11.34,0,0,1-1.87.16H8.44Z"/><path class="cls-2" d="M46.11,27.82H41.38l-1.14,3.36h-2l4.49-12.42H44.8l4.48,12.42h-2Zm-4.24-1.55h3.75l-1.85-5.45h-.05Z"/><path class="cls-2" d="M59,26.65c0,2.87-1.51,4.68-3.78,4.68a3.1,3.1,0,0,1-2.85-1.64h0v4.48H50.44v-12h1.8v1.56h0A3.15,3.15,0,0,1,55.15,22C57.45,22,59,23.78,59,26.65Zm-1.91,0c0-1.89-.92-3.11-2.4-3.11s-2.37,1.24-2.37,3.11,1,3.11,2.37,3.11S57.06,28.55,57.06,26.65Z"/><path class="cls-2" d="M68.93,26.65c0,2.87-1.5,4.68-3.78,4.68a3.08,3.08,0,0,1-2.84-1.64h-.05v4.48H60.4v-12h1.8v1.56h0A3.13,3.13,0,0,1,65.12,22C67.42,22,68.93,23.78,68.93,26.65Zm-1.91,0c0-1.89-.92-3.11-2.39-3.11s-2.38,1.24-2.38,3.11,1,3.11,2.38,3.11S67,28.55,67,26.65Z"/><path class="cls-2" d="M70.44,18.76H72.3V31.18H70.44Z"/><path class="cls-2" d="M82,28.52c-.26,1.65-1.82,2.83-3.9,2.83-2.66,0-4.26-1.8-4.26-4.66S75.44,22,78,22s4.08,1.77,4.08,4.52v.63h-6.4v.12a2.37,2.37,0,0,0,2.44,2.61,2,2,0,0,0,2.09-1.32Zm-6.28-2.7h4.53A2.23,2.23,0,0,0,78,23.46,2.33,2.33,0,0,0,75.69,25.82Z"/><path class="cls-2" d="M87.32,31.18V18.76h5c2.21,0,3.65,1.22,3.65,3.1a2.76,2.76,0,0,1-2.21,2.7v.07a3,3,0,0,1,2.82,3c0,2.18-1.59,3.51-4.23,3.51ZM89.25,24h2.16c1.67,0,2.59-.69,2.59-1.92s-.8-1.79-2.19-1.79H89.25ZM91.9,29.6c1.74,0,2.66-.71,2.66-2.06s-.94-2-2.77-2H89.25V29.6Z"/><path class="cls-2" d="M97.75,26.65c0-2.91,1.72-4.69,4.3-4.69s4.29,1.78,4.29,4.69-1.7,4.7-4.29,4.7S97.75,29.57,97.75,26.65Zm6.7,0c0-2-1-3.16-2.4-3.16s-2.4,1.15-2.4,3.16.94,3.17,2.4,3.17S104.45,28.66,104.45,26.65Z"/><path class="cls-2" d="M107.65,26.65c0-2.91,1.71-4.69,4.29-4.69s4.3,1.78,4.3,4.69-1.71,4.7-4.3,4.7S107.65,29.57,107.65,26.65Zm6.69,0c0-2-.94-3.16-2.4-3.16s-2.4,1.15-2.4,3.16.95,3.17,2.4,3.17S114.34,28.66,114.34,26.65Z"/><path class="cls-2" d="M123.28,22.12h2.19L121.72,26l3.9,5.16h-2.16l-3.08-4-.77.76v3.26h-1.86V18.76h1.86V26h0Z"/><path class="cls-2" d="M129.62,22c2.11,0,3.48,1.17,3.54,2.84h-1.75a1.6,1.6,0,0,0-1.79-1.43c-1,0-1.67.49-1.67,1.21s.41,1,1.39,1.18l1.47.34c1.85.43,2.56,1.15,2.56,2.46,0,1.65-1.54,2.79-3.68,2.79s-3.62-1.11-3.79-2.83h1.84q.26,1.41,2,1.41c1.12,0,1.81-.47,1.81-1.21,0-.58-.34-.93-1.33-1.15l-1.47-.34c-1.72-.4-2.57-1.23-2.57-2.54C126.13,23.07,127.54,22,129.62,22Z"/><path class="cls-2" d="M41.64,14.73c-1.7,0-2.76-1.2-2.76-3.13S40,8.47,41.63,8.47a2.39,2.39,0,0,1,2.54,2h-.93a1.55,1.55,0,0,0-1.61-1.11c-1.11,0-1.81.87-1.81,2.25s.71,2.28,1.83,2.28a1.5,1.5,0,0,0,1.65-1.48v-.13H41.76v-.78h2.45v.75A2.38,2.38,0,0,1,41.64,14.73Z"/><path class="cls-2" d="M49.32,13.37a1.83,1.83,0,0,1-2,1.3,2,2,0,0,1-2.08-2.32A2.07,2.07,0,0,1,47.36,10c1.25,0,2,.85,2,2.27v.31H46.19v.05a1.19,1.19,0,0,0,1.2,1.29,1.08,1.08,0,0,0,1.07-.55Zm-3.13-1.45h2.28a1.09,1.09,0,0,0-1.11-1.17A1.16,1.16,0,0,0,46.19,11.92Z"/><path class="cls-2" d="M51.77,9V10.1h1v.75h-1v2.32c0,.47.19.68.64.68l.34,0v.74a3.6,3.6,0,0,1-.49,0c-1,0-1.38-.35-1.38-1.21V10.85h-.71V10.1h.71V9Z"/><path class="cls-2" d="M56.26,8.72a.56.56,0,1,1,.56.58A.57.57,0,0,1,56.26,8.72Zm.12,1.36h.88v4.51h-.88Z"/><path class="cls-2" d="M59.9,9V10.1h1v.75h-1v2.32c0,.47.2.68.64.68l.34,0v.74a3.6,3.6,0,0,1-.49,0c-1,0-1.38-.35-1.38-1.21V10.85H58.3V10.1H59V9Z"/><path class="cls-2" d="M64.27,12.33a2.13,2.13,0,1,1,4.25,0,2.13,2.13,0,1,1-4.25,0Zm3.33,0c0-1-.43-1.54-1.2-1.54s-1.21.57-1.21,1.54.43,1.55,1.21,1.55S67.6,13.31,67.6,12.33Z"/><path class="cls-2" d="M69.71,10.08h.86v.72h.06A1.36,1.36,0,0,1,72,10a1.46,1.46,0,0,1,1.56,1.67v2.92h-.89v-2.7c0-.72-.32-1.08-1-1.08A1,1,0,0,0,70.6,12v2.64h-.89Z"/><g id="_8x_iOS11-iBooks-Icon_US-EN_00-0013-932_v1_w_RGB_R3" data-name="8x_iOS11-iBooks-Icon_US-EN_00-0013-932_v1_w_RGB_R3"><path class="cls-3" d="M32.68,15.29v-.9c0-.26,0-.51,0-.76A11.37,11.37,0,0,0,32.52,12,5.53,5.53,0,0,0,32,10.4a5.28,5.28,0,0,0-1-1.33,5.2,5.2,0,0,0-1.34-1,5.66,5.66,0,0,0-1.57-.51,11.37,11.37,0,0,0-1.65-.15H13.73a11.64,11.64,0,0,0-1.66.15,5.89,5.89,0,0,0-1.57.51,5.56,5.56,0,0,0-1.34,1,5.28,5.28,0,0,0-1,1.33A5.51,5.51,0,0,0,7.68,12a10.12,10.12,0,0,0-.15,1.65c0,.25,0,.5,0,.76V25.61c0,.25,0,.51,0,.76A10.12,10.12,0,0,0,7.68,28a5.51,5.51,0,0,0,.51,1.58,5.28,5.28,0,0,0,1,1.33,5.56,5.56,0,0,0,1.34,1,5.89,5.89,0,0,0,1.57.51,11.64,11.64,0,0,0,1.66.15H26.47a11.37,11.37,0,0,0,1.65-.15,5.66,5.66,0,0,0,1.57-.51,5.2,5.2,0,0,0,1.34-1,5.28,5.28,0,0,0,1-1.33A5.53,5.53,0,0,0,32.52,28a11.37,11.37,0,0,0,.15-1.65c0-.25,0-.51,0-.76V15.29Z"/><path class="cls-2" d="M19.17,14.51c.41.63.67.82.67,2.66v10.2a4.18,4.18,0,0,0-1.47-2.09,5.23,5.23,0,0,0-6.15.28c-.39.29-.67.24-.67-.19v-9.9a1.47,1.47,0,0,1,.67-1.34C14.31,12.61,17.53,12.59,19.17,14.51Zm9.47,1A1.45,1.45,0,0,0,28,14.13c-2.1-1.52-5.31-1.54-6.95.38-.42.63-.67.82-.67,2.66v10.2a4.18,4.18,0,0,1,1.46-2.09,5.25,5.25,0,0,1,6.16.28c.38.29.66.24.66-.19Z"/></g></svg>