<?xml version="1.0" encoding="utf-8"?>
<!-- Generator: Adobe Illustrator 25.0.1, SVG Export Plug-In . SVG Version: 6.00 Build 0)  -->
<svg version="1.1" id="Layer_1" xmlns="http://www.w3.org/2000/svg" xmlns:xlink="http://www.w3.org/1999/xlink" x="0px" y="0px"
	 viewBox="0 0 663.36 57.7" style="enable-background:new 0 0 663.36 57.7;" xml:space="preserve">
<style type="text/css">
	.st0{fill:url(#SVGID_1_);}
	.st1{fill:url(#SVGID_2_);}
	.st2{fill:url(#SVGID_3_);}
	.st3{fill:url(#SVGID_4_);}
	.st4{fill:url(#SVGID_5_);}
	.st5{fill:url(#SVGID_6_);}
	.st6{fill:url(#SVGID_7_);}
	.st7{fill:url(#SVGID_8_);}
	.st8{fill:url(#SVGID_9_);}
	.st9{fill:url(#SVGID_10_);}
	.st10{fill:url(#SVGID_11_);}
	.st11{fill:url(#SVGID_12_);}
	.st12{fill:url(#SVGID_13_);}
	.st13{fill:url(#SVGID_14_);}
	.st14{fill:url(#SVGID_15_);}
</style>
<g>
	<linearGradient id="SVGID_1_" gradientUnits="userSpaceOnUse" x1="2.8052" y1="44.0604" x2="55.4722" y2="13.6531">
		<stop  offset="0" style="stop-color:#0072BC"/>
		<stop  offset="0.5" style="stop-color:#343465"/>
		<stop  offset="1" style="stop-color:#150958"/>
	</linearGradient>
	<path class="st0" d="M54.88,12.63l-2.07,1.25c-2.04-3.57-4.89-6.39-8.52-8.46c-3.64-2.07-7.7-3.11-12.18-3.11
		c-3.6,0-7.13,0.7-10.58,2.1c-3.45,1.4-6.5,3.29-9.14,5.66c-2.65,2.37-4.86,5.2-6.63,8.48C3.99,21.82,2.9,25.26,2.5,28.85
		c-0.4,3.59-0.09,7.02,0.95,10.31c1.04,3.28,2.61,6.11,4.73,8.48c2.11,2.37,4.74,4.26,7.87,5.66c3.13,1.4,6.5,2.1,10.1,2.1
		c4.48,0,8.78-1.05,12.9-3.14c4.12-2.09,7.6-4.93,10.44-8.49l1.71,1.41c-3.09,3.85-6.86,6.9-11.32,9.15
		c-4.45,2.25-9.12,3.38-13.99,3.38c-3.92,0-7.59-0.77-10.98-2.29c-3.4-1.53-6.25-3.58-8.54-6.15c-2.29-2.57-4.01-5.64-5.14-9.2
		c-1.13-3.56-1.48-7.29-1.04-11.2c0.44-3.91,1.62-7.65,3.55-11.2c1.93-3.56,4.34-6.62,7.21-9.2c2.87-2.58,6.18-4.63,9.92-6.16
		C24.61,0.76,28.44,0,32.37,0c4.89,0,9.31,1.13,13.26,3.4C49.57,5.66,52.66,8.74,54.88,12.63z M50.79,15.26l-2.07,1.25
		c-1.68-2.95-4.04-5.28-7.05-7c-3.01-1.72-6.38-2.58-10.08-2.58c-2.98,0-5.9,0.58-8.75,1.73s-5.37,2.71-7.55,4.66
		c-2.18,1.96-4,4.29-5.47,7s-2.36,5.56-2.69,8.53c-0.33,2.97-0.07,5.81,0.78,8.53c0.85,2.71,2.15,5.05,3.89,7
		c1.74,1.96,3.91,3.51,6.5,4.66c2.59,1.15,5.38,1.73,8.36,1.73c3.73,0,7.29-0.87,10.68-2.6c3.39-1.73,6.26-4.07,8.6-7.02l1.71,1.38
		c-2.6,3.25-5.76,5.82-9.5,7.71c-3.74,1.89-7.66,2.84-11.75,2.84c-4.4,0-8.34-1.08-11.82-3.25C11.1,47.66,8.48,44.72,6.72,41
		c-1.76-3.72-2.39-7.77-1.9-12.15c0.49-4.38,2.03-8.43,4.63-12.15c2.59-3.72,5.88-6.66,9.85-8.83c3.97-2.17,8.16-3.25,12.55-3.25
		c4.12,0,7.84,0.96,11.16,2.87S48.93,11.99,50.79,15.26z M46.64,17.82l-2.07,1.25c-1.33-2.31-3.18-4.14-5.54-5.5
		c-2.37-1.36-5.02-2.04-7.96-2.04c-3.15,0-6.14,0.77-8.98,2.32c-2.83,1.55-5.18,3.65-7.03,6.3c-1.85,2.65-2.95,5.55-3.31,8.69
		c-0.35,3.14,0.1,6.04,1.36,8.69c1.26,2.65,3.13,4.75,5.61,6.3c2.48,1.55,5.3,2.32,8.46,2.32c2.94,0,5.75-0.68,8.43-2.05
		c2.68-1.37,4.95-3.22,6.8-5.55l1.75,1.31c-2.1,2.65-4.67,4.74-7.7,6.28c-3.03,1.54-6.21,2.31-9.54,2.31
		c-3.56,0-6.75-0.88-9.58-2.63c-2.83-1.75-4.95-4.14-6.37-7.15c-1.42-3.01-1.93-6.29-1.53-9.84c0.4-3.55,1.64-6.83,3.74-9.84
		c2.09-3.01,4.75-5.4,7.97-7.15c3.22-1.75,6.61-2.63,10.17-2.63c3.32,0,6.33,0.77,9.02,2.31C43.04,13.08,45.14,15.17,46.64,17.82z
		 M42.52,20.45l-2.04,1.25c-0.97-1.71-2.32-3.06-4.06-4.06c-1.74-0.99-3.7-1.49-5.86-1.49c-3.52,0-6.66,1.24-9.42,3.72
		c-2.77,2.48-4.34,5.47-4.74,8.98c-0.39,3.5,0.51,6.5,2.72,8.97c2.21,2.48,5.07,3.72,8.59,3.72c2.17,0,4.23-0.5,6.2-1.51
		c1.97-1.01,3.63-2.36,4.98-4.07l1.71,1.35c-1.6,2.01-3.56,3.6-5.88,4.78c-2.32,1.18-4.74,1.76-7.27,1.76c-2.04,0-3.94-0.4-5.7-1.19
		c-1.77-0.79-3.25-1.86-4.45-3.21c-1.2-1.35-2.09-2.94-2.68-4.79c-0.59-1.85-0.77-3.79-0.54-5.82c0.23-2.03,0.84-3.97,1.84-5.82
		c1-1.85,2.25-3.45,3.75-4.79c1.5-1.35,3.22-2.41,5.17-3.2c1.94-0.79,3.93-1.19,5.97-1.19c2.55,0,4.86,0.59,6.91,1.78
		C39.78,16.81,41.38,18.42,42.52,20.45z"/>
	<linearGradient id="SVGID_2_" gradientUnits="userSpaceOnUse" x1="53.1266" y1="40.4784" x2="112.984" y2="5.9197">
		<stop  offset="0" style="stop-color:#0072BC"/>
		<stop  offset="0.5" style="stop-color:#343465"/>
		<stop  offset="1" style="stop-color:#150958"/>
	</linearGradient>
	<path class="st1" d="M105.25,32.06l3.34-29.75h2.32l-3.34,29.75c-0.52,4.62-2.21,8.89-5.07,12.84c-2.87,3.94-6.5,7.06-10.91,9.36
		c-4.41,2.3-9.04,3.45-13.91,3.45c-4.87,0-9.25-1.15-13.14-3.45c-3.89-2.3-6.83-5.42-8.81-9.36c-1.98-3.94-2.71-8.22-2.2-12.84
		l3.34-29.75h2.31l-3.34,29.75c-0.35,3.14-0.04,6.16,0.95,9.04c0.98,2.88,2.46,5.37,4.44,7.45c1.98,2.08,4.42,3.75,7.34,4.98
		c2.92,1.24,6.04,1.86,9.36,1.86c3.32,0,6.58-0.62,9.78-1.86c3.19-1.24,6.01-2.9,8.45-4.98c2.44-2.08,4.48-4.57,6.11-7.45
		C103.9,38.21,104.89,35.2,105.25,32.06z M100.62,32.06l3.34-29.75h2.32l-3.34,29.75c-0.32,2.84-1.22,5.56-2.7,8.16
		c-1.48,2.6-3.33,4.84-5.53,6.72c-2.2,1.88-4.75,3.38-7.64,4.49c-2.89,1.11-5.85,1.67-8.87,1.67c-3.02,0-5.86-0.55-8.5-1.67
		c-2.64-1.11-4.85-2.61-6.64-4.49c-1.78-1.88-3.13-4.12-4.02-6.72c-0.9-2.6-1.19-5.32-0.87-8.16l3.34-29.75h2.32l-3.34,29.75
		c-0.38,3.38,0.17,6.5,1.65,9.38c1.48,2.87,3.66,5.15,6.55,6.83c2.89,1.68,6.15,2.52,9.77,2.52c3.62,0,7.07-0.84,10.33-2.52
		c3.26-1.68,5.96-3.95,8.08-6.83C98.99,38.56,100.24,35.43,100.62,32.06z M95.98,32.06l3.34-29.75h2.32L98.3,32.06
		c-0.25,2.22-0.96,4.34-2.13,6.36c-1.17,2.02-2.63,3.77-4.38,5.24c-1.75,1.47-3.77,2.64-6.06,3.51c-2.28,0.87-4.63,1.3-7.03,1.3
		c-2.4,0-4.65-0.43-6.74-1.3c-2.09-0.87-3.85-2.04-5.27-3.51c-1.42-1.47-2.49-3.22-3.21-5.24c-0.72-2.02-0.95-4.14-0.7-6.36
		l3.34-29.75h2.31L65.1,32.06c-0.29,2.54,0.14,4.9,1.28,7.07c1.14,2.17,2.82,3.88,5.05,5.14c2.23,1.26,4.74,1.89,7.52,1.89
		c2.79,0,5.44-0.63,7.95-1.89c2.51-1.26,4.58-2.98,6.21-5.14C94.74,36.95,95.7,34.6,95.98,32.06z M91.35,32.06l3.34-29.75H97
		l-3.34,29.75c-0.36,3.25-1.96,6.03-4.8,8.33c-2.83,2.31-6.05,3.46-9.65,3.46c-3.6,0-6.56-1.15-8.88-3.46
		c-2.31-2.31-3.29-5.08-2.93-8.33l3.34-29.75h2.32l-3.34,29.75c-0.29,2.61,0.51,4.84,2.42,6.7c1.9,1.86,4.35,2.79,7.33,2.79
		c2.98,0,5.63-0.93,7.95-2.79C89.75,36.9,91.06,34.66,91.35,32.06z"/>
	<linearGradient id="SVGID_3_" gradientUnits="userSpaceOnUse" x1="102.7571" y1="47.053" x2="161.3319" y2="13.2348">
		<stop  offset="0" style="stop-color:#0072BC"/>
		<stop  offset="0.5" style="stop-color:#343465"/>
		<stop  offset="1" style="stop-color:#150958"/>
	</linearGradient>
	<path class="st2" d="M127,38.21h13.96c3,0,5.87-0.74,8.61-2.21c2.74-1.47,5.03-3.53,6.87-6.17c1.84-2.64,2.94-5.55,3.29-8.73
		c0.32-2.89-0.14-5.59-1.39-8.13c-1.25-2.53-3.09-4.56-5.51-6.07c-2.42-1.52-5.13-2.28-8.11-2.28h-29.14l-5.69,50.78h-2.32
		l5.95-53.08h31.46c3.37,0,6.43,0.86,9.2,2.58c2.77,1.72,4.86,4.03,6.28,6.92c1.42,2.9,1.95,5.99,1.58,9.28
		c-0.43,3.8-1.62,7.15-3.59,10.03c-1.96,2.89-4.44,5.14-7.43,6.76l4.02,17.5h-2.45l-3.88-16.41c-0.9,0.34-1.58,0.58-2.04,0.71
		l3.61,15.71h-2.45l-3.54-15.16c-0.2,0.04-0.89,0.12-2.08,0.22l3.31,14.94h-2.45l-3.25-14.87h-2.09l3.03,14.87h-2.45l-3.06-14.87
		h-8.52L127,38.21z M127.51,33.59h13.96c3.35,0,6.35-1.17,9.02-3.51c2.66-2.34,4.2-5.34,4.61-8.99c0.35-3.14-0.57-5.9-2.75-8.29
		c-2.19-2.38-4.9-3.58-8.14-3.58h-24.51l-5.18,46.16h-2.31l5.43-48.47h26.82c2.55,0,4.88,0.65,6.97,1.96
		c2.09,1.3,3.68,3.05,4.77,5.24c1.08,2.19,1.49,4.51,1.21,6.97c-0.47,4.21-2.3,7.73-5.48,10.56c-3.18,2.83-6.75,4.25-10.72,4.25
		h-13.96L127.51,33.59z M128.03,28.98h13.96c2.12,0,4-0.68,5.62-2.05c1.62-1.37,2.57-3.31,2.86-5.83c0.21-1.86-0.38-3.53-1.75-5.02
		c-1.38-1.48-3.05-2.23-5.03-2.23h-19.88l-4.66,41.54h-2.32l4.92-43.85h22.19c2.62,0,4.81,0.97,6.59,2.9
		c1.78,1.93,2.53,4.15,2.25,6.65c-0.34,3.08-1.59,5.54-3.72,7.4c-2.14,1.86-4.58,2.79-7.32,2.79h-13.96L128.03,28.98z M123.78,55.39
		h-2.31l4.4-39.24h17.56c1.44,0,2.62,0.49,3.55,1.46c0.93,0.97,1.32,2.13,1.17,3.48c-0.42,3.72-2.38,5.58-5.9,5.58h-13.96l0.26-2.31
		h13.96c0.92,0,1.67-0.24,2.25-0.72c0.58-0.48,0.94-1.33,1.07-2.55c0.08-0.75-0.13-1.37-0.64-1.88c-0.51-0.5-1.19-0.75-2.02-0.75
		h-15.25L123.78,55.39z"/>
	<linearGradient id="SVGID_4_" gradientUnits="userSpaceOnUse" x1="151.1358" y1="40.2839" x2="190.7443" y2="17.4159">
		<stop  offset="0" style="stop-color:#0072BC"/>
		<stop  offset="0.5" style="stop-color:#343465"/>
		<stop  offset="1" style="stop-color:#150958"/>
	</linearGradient>
	<path class="st3" d="M165.81,2.31h2.32l-5.95,53.08h-2.32L165.81,2.31z M170.44,2.31h2.31l-5.95,53.08h-2.31L170.44,2.31z
		 M175.07,2.31h2.32l-5.95,53.08h-2.32L175.07,2.31z M179.71,2.31h2.31l-5.95,53.08h-2.31L179.71,2.31z"/>
	<linearGradient id="SVGID_5_" gradientUnits="userSpaceOnUse" x1="183.2916" y1="44.0521" x2="235.9532" y2="13.648">
		<stop  offset="0" style="stop-color:#0072BC"/>
		<stop  offset="0.5" style="stop-color:#343465"/>
		<stop  offset="1" style="stop-color:#150958"/>
	</linearGradient>
	<path class="st4" d="M181.72,40.05c-1.13-3.56-1.48-7.29-1.04-11.2c0.44-3.91,1.62-7.65,3.55-11.2c1.93-3.56,4.34-6.62,7.21-9.2
		c2.87-2.58,6.18-4.63,9.92-6.16C205.1,0.76,208.93,0,212.86,0c3.92,0,7.59,0.76,10.99,2.29c3.4,1.53,6.25,3.58,8.54,6.16
		c2.3,2.58,4.01,5.64,5.14,9.2c1.13,3.56,1.48,7.29,1.04,11.2c-0.44,3.91-1.62,7.64-3.56,11.2c-1.93,3.56-4.33,6.63-7.21,9.2
		c-2.87,2.57-6.18,4.63-9.92,6.15c-3.74,1.53-7.57,2.29-11.5,2.29c-3.92,0-7.59-0.77-10.98-2.29c-3.4-1.53-6.25-3.58-8.54-6.15
		C184.57,46.68,182.85,43.61,181.72,40.05z M186.25,18.54c-1.77,3.28-2.86,6.72-3.26,10.31c-0.4,3.59-0.09,7.02,0.95,10.31
		c1.04,3.28,2.61,6.11,4.73,8.48c2.11,2.37,4.74,4.26,7.87,5.66c3.13,1.4,6.5,2.1,10.1,2.1s7.13-0.7,10.58-2.1
		c3.45-1.4,6.5-3.29,9.14-5.66c2.65-2.37,4.85-5.2,6.63-8.48c1.77-3.28,2.86-6.72,3.26-10.31c0.4-3.59,0.09-7.03-0.95-10.31
		c-1.04-3.28-2.61-6.11-4.73-8.48c-2.11-2.37-4.74-4.26-7.87-5.66c-3.14-1.4-6.5-2.1-10.11-2.1s-7.13,0.7-10.58,2.1
		c-3.45,1.4-6.5,3.29-9.14,5.66C190.23,12.44,188.02,15.26,186.25,18.54z M187.21,41c-1.76-3.72-2.39-7.77-1.9-12.15
		c0.49-4.38,2.03-8.43,4.63-12.15c2.59-3.72,5.88-6.66,9.85-8.83c3.97-2.17,8.16-3.25,12.55-3.25c4.4,0,8.34,1.08,11.83,3.25
		c3.49,2.17,6.11,5.11,7.87,8.83c1.76,3.72,2.39,7.77,1.9,12.15c-0.49,4.38-2.03,8.43-4.63,12.15c-2.59,3.72-5.88,6.66-9.85,8.83
		c-3.98,2.17-8.16,3.25-12.56,3.25c-4.4,0-8.34-1.08-11.82-3.25C191.59,47.66,188.97,44.72,187.21,41z M190.31,20.32
		c-1.46,2.71-2.36,5.56-2.69,8.53c-0.33,2.97-0.07,5.81,0.78,8.53c0.85,2.71,2.15,5.05,3.89,7c1.74,1.96,3.91,3.51,6.5,4.66
		c2.59,1.15,5.38,1.73,8.36,1.73s5.9-0.58,8.75-1.73c2.85-1.15,5.37-2.71,7.55-4.66c2.18-1.96,4-4.29,5.47-7
		c1.46-2.71,2.36-5.56,2.69-8.53c0.33-2.97,0.07-5.81-0.78-8.53c-0.85-2.71-2.15-5.05-3.89-7c-1.74-1.95-3.91-3.51-6.51-4.66
		c-2.59-1.15-5.38-1.73-8.36-1.73c-2.98,0-5.9,0.58-8.75,1.73s-5.37,2.71-7.55,4.66C193.6,15.27,191.78,17.61,190.31,20.32z
		 M191.47,38.69c-1.42-3.01-1.93-6.29-1.53-9.84c0.4-3.55,1.64-6.83,3.74-9.84c2.09-3.01,4.75-5.4,7.97-7.15
		c3.22-1.75,6.61-2.63,10.17-2.63c3.56,0,6.75,0.88,9.58,2.63c2.83,1.75,4.95,4.14,6.37,7.15c1.42,3.01,1.93,6.29,1.53,9.84
		c-0.4,3.55-1.64,6.83-3.74,9.84c-2.1,3.01-4.75,5.4-7.97,7.15c-3.22,1.75-6.61,2.63-10.17,2.63c-3.56,0-6.75-0.88-9.58-2.63
		C195.02,44.09,192.89,41.7,191.47,38.69z M195.56,20.16c-1.85,2.65-2.95,5.55-3.31,8.69c-0.35,3.14,0.1,6.04,1.36,8.69
		c1.26,2.65,3.13,4.75,5.61,6.3c2.49,1.55,5.3,2.32,8.46,2.32c3.15,0,6.15-0.78,8.98-2.32c2.83-1.55,5.17-3.65,7.03-6.3
		c1.85-2.65,2.95-5.55,3.3-8.69c0.35-3.14-0.1-6.04-1.36-8.69c-1.26-2.65-3.13-4.75-5.61-6.3c-2.49-1.55-5.3-2.32-8.46-2.32
		c-3.15,0-6.14,0.77-8.98,2.32C199.75,15.41,197.41,17.51,195.56,20.16z M195.11,34.67c-0.59-1.85-0.77-3.79-0.54-5.82
		c0.23-2.03,0.84-3.97,1.84-5.82c1-1.85,2.25-3.45,3.75-4.79c1.5-1.35,3.22-2.41,5.17-3.2c1.94-0.79,3.93-1.19,5.97-1.19
		s3.94,0.4,5.71,1.19c1.77,0.79,3.25,1.86,4.45,3.2c1.2,1.35,2.09,2.94,2.68,4.79c0.59,1.85,0.77,3.79,0.54,5.82
		c-0.23,2.03-0.84,3.97-1.84,5.82c-1,1.85-2.25,3.45-3.75,4.79c-1.5,1.35-3.23,2.42-5.17,3.21c-1.94,0.79-3.93,1.19-5.97,1.19
		c-2.04,0-3.94-0.4-5.7-1.19c-1.77-0.79-3.25-1.86-4.45-3.21C196.59,38.11,195.69,36.52,195.11,34.67z M201.62,19.87
		c-2.77,2.48-4.34,5.47-4.74,8.98c-0.39,3.5,0.51,6.5,2.72,8.97c2.21,2.48,5.07,3.72,8.59,3.72c3.52,0,6.66-1.24,9.42-3.72
		c2.77-2.48,4.35-5.47,4.74-8.97c0.39-3.51-0.52-6.5-2.73-8.98c-2.21-2.48-5.07-3.72-8.59-3.72
		C207.53,16.16,204.39,17.4,201.62,19.87z"/>
	<linearGradient id="SVGID_6_" gradientUnits="userSpaceOnUse" x1="232.3772" y1="44.4893" x2="286.5292" y2="13.2246">
		<stop  offset="0" style="stop-color:#0072BC"/>
		<stop  offset="0.5" style="stop-color:#343465"/>
		<stop  offset="1" style="stop-color:#150958"/>
	</linearGradient>
	<path class="st5" d="M262.23,23.08h-3.89c-1.65,0-2.79-0.42-3.43-1.27c-0.63-0.84-0.87-1.96-0.72-3.35
		c0.34-3.08,2.82-4.62,7.43-4.62c4.33,0,7.52,0.64,9.56,1.92l-2.02,1.41c-1.42-0.68-4.02-1.03-7.8-1.03c-1.85,0-3.11,0.2-3.78,0.61
		c-0.68,0.41-1.06,0.97-1.14,1.7c-0.08,0.73,0.03,1.29,0.32,1.7c0.3,0.41,0.91,0.61,1.83,0.61h3.99c2.89,0,5.45,0.49,7.67,1.47
		s3.98,2.32,5.29,4.02c1.31,1.7,2.24,3.66,2.78,5.87c0.55,2.21,0.68,4.58,0.39,7.1c-0.23,2.05-0.74,4-1.52,5.83
		c-0.78,1.84-1.85,3.53-3.19,5.07c-1.34,1.54-2.9,2.87-4.66,3.99c-1.77,1.12-3.82,2-6.15,2.63c-2.33,0.63-4.82,0.95-7.45,0.95
		c-4.14,0-7.95-0.63-11.42-1.88c-3.47-1.25-6.28-3-8.43-5.24l2.02-1.38c1.97,1.97,4.54,3.49,7.7,4.57
		c3.17,1.08,6.63,1.62,10.39,1.62c2.94,0,5.64-0.42,8.1-1.27c2.46-0.84,4.55-2,6.24-3.48c1.7-1.47,3.07-3.18,4.11-5.13
		c1.04-1.94,1.69-4.04,1.94-6.28c0.33-2.97,0.03-5.66-0.9-8.06c-0.93-2.4-2.54-4.35-4.83-5.85
		C268.4,23.83,265.58,23.08,262.23,23.08z M258.08,25.39h3.67c4.35,0,7.61,1.32,9.77,3.97c2.16,2.65,3.02,5.94,2.58,9.87
		c-0.45,4-2.25,7.3-5.39,9.92c-3.15,2.62-7.29,3.93-12.44,3.93c-3.43,0-6.58-0.47-9.46-1.41c-2.88-0.94-5.2-2.27-6.98-3.98
		l1.96-1.44c1.6,1.43,3.69,2.54,6.27,3.33c2.58,0.79,5.4,1.19,8.47,1.19c4.52,0,8.1-1.08,10.74-3.24c2.63-2.16,4.14-4.93,4.52-8.3
		c0.37-3.33-0.32-6.09-2.08-8.27c-1.76-2.18-4.51-3.27-8.24-3.27h-3.63c-3.13,0-5.38-0.85-6.76-2.56c-1.37-1.71-1.91-3.93-1.6-6.67
		c0.31-2.73,1.52-4.96,3.66-6.67c2.13-1.71,5.14-2.57,9.02-2.57c2.72,0,5.22,0.32,7.48,0.95c2.27,0.63,4.09,1.53,5.49,2.71
		l-1.99,1.41c-2.47-1.84-6.22-2.76-11.24-2.76c-3.24,0-5.67,0.64-7.31,1.91c-1.63,1.27-2.57,2.94-2.8,5.02
		c-0.24,2.1,0.13,3.77,1.09,5.03C253.84,24.76,255.58,25.39,258.08,25.39z M257.05,34.62h3.54c1.65,0,2.79,0.43,3.43,1.28
		c0.63,0.85,0.87,1.97,0.72,3.33c-0.34,3.08-2.82,4.62-7.43,4.62c-4.35,0-7.55-0.64-9.59-1.92l2.02-1.41
		c1.42,0.68,4.03,1.03,7.83,1.03c1.84,0,3.11-0.2,3.78-0.61c0.68-0.41,1.06-0.97,1.14-1.7c0.08-0.7-0.04-1.27-0.34-1.68
		c-0.31-0.42-0.93-0.63-1.88-0.63h-3.47c-2.96,0-5.58-0.48-7.86-1.44c-2.28-0.96-4.1-2.29-5.44-3.98c-1.34-1.69-2.3-3.64-2.86-5.87
		c-0.57-2.22-0.7-4.62-0.42-7.18c0.23-2.05,0.74-4,1.52-5.83c0.78-1.84,1.85-3.53,3.19-5.06c1.34-1.54,2.89-2.87,4.66-3.99
		c1.77-1.12,3.82-2,6.15-2.63c2.33-0.63,4.82-0.95,7.46-0.95c4.14,0,7.94,0.63,11.4,1.88c3.46,1.25,6.27,3,8.42,5.24l-2.02,1.38
		c-1.97-1.97-4.53-3.49-7.69-4.57s-6.62-1.62-10.37-1.62c-2.94,0-5.64,0.42-8.1,1.27s-4.55,2-6.24,3.48
		c-1.7,1.47-3.07,3.18-4.11,5.13c-1.04,1.94-1.69,4.04-1.94,6.28c-0.34,3.01-0.03,5.73,0.92,8.14c0.95,2.42,2.6,4.35,4.94,5.82
		C250.73,33.89,253.62,34.62,257.05,34.62z M257.57,30h3.54c3.13,0,5.38,0.87,6.75,2.6s1.91,3.94,1.61,6.64
		c-0.31,2.74-1.53,4.96-3.66,6.67c-2.13,1.71-5.14,2.56-9.02,2.56c-2.72,0-5.23-0.32-7.5-0.95c-2.28-0.63-4.11-1.53-5.5-2.71
		l1.99-1.41c2.47,1.84,6.23,2.76,11.27,2.76c3.24,0,5.67-0.64,7.31-1.91c1.63-1.27,2.57-2.94,2.8-5.02
		c0.23-2.07-0.14-3.74-1.11-5.02c-0.97-1.27-2.71-1.91-5.22-1.91h-3.51c-4.4,0-7.69-1.31-9.87-3.93c-2.18-2.62-3.05-5.92-2.6-9.92
		c0.45-4,2.24-7.3,5.39-9.92c3.15-2.62,7.29-3.93,12.44-3.93c3.43,0,6.58,0.47,9.44,1.41c2.86,0.94,5.19,2.27,6.97,3.97l-1.96,1.44
		c-1.6-1.43-3.68-2.54-6.25-3.33c-2.57-0.79-5.39-1.19-8.45-1.19c-4.52,0-8.1,1.08-10.74,3.24c-2.63,2.16-4.14,4.93-4.52,8.3
		c-0.38,3.36,0.32,6.12,2.09,8.29C251.02,28.92,253.79,30,257.57,30z"/>
	<linearGradient id="SVGID_7_" gradientUnits="userSpaceOnUse" x1="270.0125" y1="40.2839" x2="309.6211" y2="17.4159">
		<stop  offset="0" style="stop-color:#0072BC"/>
		<stop  offset="0.5" style="stop-color:#343465"/>
		<stop  offset="1" style="stop-color:#150958"/>
	</linearGradient>
	<path class="st6" d="M284.69,2.31H287l-5.95,53.08h-2.32L284.69,2.31z M289.32,2.31h2.31l-5.95,53.08h-2.31L289.32,2.31z
		 M293.95,2.31h2.32l-5.95,53.08H288L293.95,2.31z M298.58,2.31h2.31l-5.95,53.08h-2.31L298.58,2.31z"/>
	<linearGradient id="SVGID_8_" gradientUnits="userSpaceOnUse" x1="296.1173" y1="38.2783" x2="342.6736" y2="11.399">
		<stop  offset="0" style="stop-color:#0072BC"/>
		<stop  offset="0.5" style="stop-color:#343465"/>
		<stop  offset="1" style="stop-color:#150958"/>
	</linearGradient>
	<path class="st7" d="M301.39,13.85l0.26-2.31h34.74l-0.26,2.31h-9.26l-4.66,41.54h-2.32l4.66-41.54h-2.32l-4.66,41.54h-2.31
		l4.66-41.54h-2.32l-4.66,41.54h-2.32l4.66-41.54h-2.32l-4.66,41.54H306l4.66-41.54H301.39z M301.91,9.23l0.26-2.31h34.74
		l-0.26,2.31H301.91z M302.43,4.62l0.26-2.31h34.74l-0.26,2.31H302.43z"/>
	<linearGradient id="SVGID_9_" gradientUnits="userSpaceOnUse" x1="337.4962" y1="36.6557" x2="389.6732" y2="6.5312">
		<stop  offset="0" style="stop-color:#0072BC"/>
		<stop  offset="0.5" style="stop-color:#343465"/>
		<stop  offset="1" style="stop-color:#150958"/>
	</linearGradient>
	<path class="st8" d="M351.75,35.07l19.27-32.76h2.32l-20.7,35.2l-2.01,17.89h-2.32l2.01-17.89l-12.81-35.2h2.32L351.75,35.07z
		 M354.23,28.69l-1.44,2.53L342.14,2.31h2.31L354.23,28.69z M357.12,23.63l-1.48,2.53l-8.87-23.85h2.32L357.12,23.63z M360,18.59
		l-1.44,2.53L351.4,2.31h2.31L360,18.59z M354.95,37.5l20.7-35.2h2.31l-20.7,35.2l-2.01,17.89h-2.31L354.95,37.5z M359.58,37.5
		l20.7-35.2h2.32l-20.7,35.2l-2.01,17.89h-2.32L359.58,37.5z M364.22,37.5l20.7-35.2h2.31l-20.7,35.2l-2.01,17.89h-2.31L364.22,37.5
		z"/>
	<linearGradient id="SVGID_10_" gradientUnits="userSpaceOnUse" x1="375.7005" y1="44.2952" x2="415.309" y2="21.4272">
		<stop  offset="0" style="stop-color:#0072BC"/>
		<stop  offset="0.5" style="stop-color:#343465"/>
		<stop  offset="1" style="stop-color:#150958"/>
	</linearGradient>
	<path class="st9" d="M388.06,2.31h2.32l-5.95,53.08h-2.32L388.06,2.31z M392.69,2.31h2.31l-5.95,53.08h-2.31L392.69,2.31z
		 M397.32,2.31h2.32l-5.95,53.08h-2.32L397.32,2.31z M401.96,2.31h2.31l-4.66,41.54h18.53l-0.26,2.31h-18.53l-0.26,2.31h18.53
		l-0.26,2.31h-18.53l-0.26,2.31h18.53l-0.26,2.31H396L401.96,2.31z"/>
	<linearGradient id="SVGID_11_" gradientUnits="userSpaceOnUse" x1="416.0673" y1="54.2328" x2="472.3934" y2="21.713">
		<stop  offset="0" style="stop-color:#0072BC"/>
		<stop  offset="0.5" style="stop-color:#343465"/>
		<stop  offset="1" style="stop-color:#150958"/>
	</linearGradient>
	<path class="st10" d="M419.25,55.39h-2.51l27.02-53.08h2.51l15.08,53.08h-2.48L444.66,5.42L419.25,55.39z M444.34,10.9l0.99,2.95
		L424.2,55.39h-2.48L444.34,10.9z M446.23,16.99l0.87,3.17l-17.88,35.23h-2.51L446.23,16.99z M447.96,23.34l0.86,3.24l-14.65,28.82
		h-2.48L447.96,23.34z M438.77,49.05l1.16-2.31h15.18l0.71,2.31H438.77z M441.09,44.43l1.16-2.31h11.55l0.74,2.31H441.09z
		 M443.41,39.81l1.19-2.31h7.91l0.67,2.31H443.41z M451.22,2.31l15.12,53.08h-2.51L448.74,2.31H451.22z M456.21,2.31l15.12,53.08
		h-2.48L453.73,2.31H456.21z M476.31,55.39h-2.51L458.71,2.31h2.48L476.31,55.39z"/>
	<linearGradient id="SVGID_12_" gradientUnits="userSpaceOnUse" x1="472.7812" y1="47.9723" x2="539.0231" y2="9.7275">
		<stop  offset="0" style="stop-color:#0072BC"/>
		<stop  offset="0.5" style="stop-color:#343465"/>
		<stop  offset="1" style="stop-color:#150958"/>
	</linearGradient>
	<path class="st11" d="M484.91,6.06l-5.53,49.33h-2.32l5.95-53.08h2.77l26.7,53.08h-2.67L484.91,6.06z M486.49,12.63l1.88,3.91
		l-4.36,38.85h-2.31L486.49,12.63z M490.26,20.29l1.88,3.88l-3.5,31.22h-2.32L490.26,20.29z M488.45,2.31h2.7l26.79,53.08h-2.7
		L488.45,2.31z M494.05,27.86l1.89,3.81l-2.66,23.72h-2.31L494.05,27.86z M493.92,2.31h2.73l26.76,53.08h-2.77L493.92,2.31z
		 M499.36,2.31h2.7l24.83,49.33l5.53-49.33h2.32l-5.95,53.08h-2.73L499.36,2.31z M517.76,29.84l-1.89-3.81l2.66-23.72h2.32
		L517.76,29.84z M521.54,37.41l-1.88-3.88l3.5-31.22h2.32L521.54,37.41z M525.31,45.07l-1.88-3.91l4.36-38.85h2.32L525.31,45.07z"/>
	<linearGradient id="SVGID_13_" gradientUnits="userSpaceOnUse" x1="525.3053" y1="44.4822" x2="583.6425" y2="10.8012">
		<stop  offset="0" style="stop-color:#0072BC"/>
		<stop  offset="0.5" style="stop-color:#343465"/>
		<stop  offset="1" style="stop-color:#150958"/>
	</linearGradient>
	<path class="st12" d="M561.29,55.39H531.6l5.95-53.08h29.69c4.18,0,7.95,1.19,11.31,3.56c3.36,2.37,5.88,5.6,7.58,9.68
		c1.7,4.08,2.28,8.52,1.74,13.3c-0.4,3.59-1.43,7.02-3.07,10.31c-1.64,3.28-3.66,6.11-6.05,8.48c-2.39,2.37-5.11,4.26-8.18,5.66
		C567.52,54.69,564.42,55.39,561.29,55.39z M534.18,53.08h27.37c2.81,0,5.59-0.64,8.35-1.92c2.76-1.28,5.21-3,7.37-5.16
		c2.15-2.16,3.97-4.74,5.45-7.74c1.48-3,2.41-6.14,2.78-9.41c0.37-3.27,0.14-6.4-0.67-9.39c-0.81-2.99-2.05-5.57-3.72-7.74
		c-1.67-2.17-3.73-3.89-6.21-5.18c-2.47-1.28-5.11-1.92-7.92-1.92h-27.37L534.18,53.08z M536.75,50.78l4.92-43.85h25.06
		c3.35,0,6.36,0.98,9.03,2.93c2.68,1.95,4.68,4.62,6.02,8c1.34,3.38,1.78,7.04,1.34,11c-0.44,3.95-1.71,7.62-3.81,10.99
		c-2.09,3.38-4.7,6.04-7.81,8c-3.11,1.96-6.34,2.93-9.69,2.93H536.75z M539.33,48.47h22.74c2.94,0,5.76-0.88,8.48-2.63
		c2.72-1.75,4.99-4.14,6.83-7.15s2.96-6.29,3.36-9.84c0.4-3.53,0.01-6.8-1.15-9.83c-1.16-3.02-2.91-5.41-5.24-7.16
		c-2.34-1.75-4.96-2.63-7.88-2.63h-22.74L539.33,48.47z M541.9,46.16l3.88-34.62h20.42c2.51,0,4.76,0.77,6.75,2.31
		c1.99,1.54,3.48,3.64,4.46,6.3c0.98,2.66,1.29,5.56,0.94,8.7c-0.35,3.12-1.31,6.02-2.89,8.69c-1.57,2.67-3.53,4.78-5.87,6.31
		c-2.34,1.54-4.76,2.31-7.27,2.31H541.9z M544.48,43.85h18.11c3.2,0,6.11-1.47,8.75-4.41c2.63-2.94,4.18-6.47,4.65-10.59
		c0.3-2.71,0.06-5.23-0.75-7.53c-0.8-2.31-2.02-4.13-3.67-5.47c-1.64-1.33-3.51-2-5.61-2h-18.11L544.48,43.85z M547.05,41.54
		l2.85-25.39h15.79c2.55,0,4.61,1.24,6.16,3.73s2.14,5.48,1.75,8.96c-0.39,3.5-1.65,6.5-3.76,8.97c-2.11,2.48-4.44,3.72-7,3.72
		H547.05z M549.63,39.24h13.48c1.91,0,3.66-1.01,5.25-3.05c1.59-2.03,2.54-4.48,2.87-7.34c0.32-2.89-0.08-5.34-1.22-7.36
		c-1.13-2.02-2.66-3.03-4.57-3.03h-13.48L549.63,39.24z"/>
	<linearGradient id="SVGID_14_" gradientUnits="userSpaceOnUse" x1="577.9677" y1="40.2839" x2="617.5762" y2="17.4159">
		<stop  offset="0" style="stop-color:#0072BC"/>
		<stop  offset="0.5" style="stop-color:#343465"/>
		<stop  offset="1" style="stop-color:#150958"/>
	</linearGradient>
	<path class="st13" d="M592.64,2.31h2.32l-5.95,53.08h-2.32L592.64,2.31z M597.28,2.31h2.31l-5.95,53.08h-2.31L597.28,2.31z
		 M601.91,2.31h2.32l-5.95,53.08h-2.32L601.91,2.31z M606.54,2.31h2.31l-5.95,53.08h-2.31L606.54,2.31z"/>
	<linearGradient id="SVGID_15_" gradientUnits="userSpaceOnUse" x1="603.1193" y1="54.2328" x2="659.4454" y2="21.713">
		<stop  offset="0" style="stop-color:#0072BC"/>
		<stop  offset="0.5" style="stop-color:#343465"/>
		<stop  offset="1" style="stop-color:#150958"/>
	</linearGradient>
	<path class="st14" d="M606.3,55.39h-2.51l27.02-53.08h2.51l15.08,53.08h-2.48L631.72,5.42L606.3,55.39z M631.39,10.9l0.99,2.95
		l-21.13,41.54h-2.48L631.39,10.9z M633.28,16.99l0.87,3.17l-17.88,35.23h-2.51L633.28,16.99z M635.01,23.34l0.86,3.24l-14.65,28.82
		h-2.48L635.01,23.34z M625.83,49.05l1.16-2.31h15.18l0.71,2.31H625.83z M628.14,44.43l1.16-2.31h11.55l0.74,2.31H628.14z
		 M630.46,39.81l1.19-2.31h7.91l0.67,2.31H630.46z M638.27,2.31l15.12,53.08h-2.51L635.8,2.31H638.27z M643.26,2.31l15.12,53.08
		h-2.48L640.78,2.31H643.26z M663.36,55.39h-2.51L645.77,2.31h2.48L663.36,55.39z"/>
</g>
</svg>
