<?xml version="1.0" encoding="utf-8"?>
<!-- Generator: Adobe Illustrator 25.0.1, SVG Export Plug-In . SVG Version: 6.00 Build 0)  -->
<svg version="1.1" id="Capa_1" xmlns="http://www.w3.org/2000/svg" xmlns:xlink="http://www.w3.org/1999/xlink" x="0px" y="0px"
	 viewBox="0 0 720.58 276.21" style="enable-background:new 0 0 720.58 276.21;" xml:space="preserve">
<style type="text/css">
	.st0{display:none;}
	.st1{display:inline;}
	.st2{fill:#665E8F;}
	.st3{fill:#7B5F6C;}
	.st4{fill:#785E6A;}
</style>
<g>
	<g class="st0">
		<g class="st1">
			<path class="st2" d="M129.29,0.74c1.97,0,3.67,0.68,5.1,2.04c1.42,1.36,2.13,3.21,2.13,5.56c0,0.5-0.03,1.02-0.09,1.58
				c-0.06,0.56-0.22,1.02-0.46,1.39l-28.54,82.1c-0.62,1.61-1.64,2.87-3.06,3.8c-1.42,0.93-2.94,1.27-4.54,1.02
				c-2.84-0.12-5-1.73-6.49-4.82L69.99,35.03l3.71,0.56L52.57,93.4c-1.36,3.09-3.52,4.7-6.49,4.82c-1.61,0.25-3.15-0.09-4.63-1.02
				c-1.48-0.93-2.53-2.19-3.15-3.8L9.39,11.3c-0.37-0.99-0.56-1.98-0.56-2.97c0-2.1,0.68-3.89,2.04-5.37
				c1.36-1.48,3.21-2.22,5.56-2.22c1.48,0,2.84,0.37,4.08,1.11c1.23,0.74,2.1,1.98,2.59,3.71l25.02,72.83l-3.89-0.19l21.5-55.6
				c1.36-3.09,3.71-4.63,7.04-4.63c1.73,0,3.12,0.4,4.17,1.2c1.05,0.8,1.82,1.95,2.32,3.43l22.61,55.6l-4.63,0.37l25.02-73.02
				C123.23,2.35,125.58,0.74,129.29,0.74z"/>
			<path class="st2" d="M246.59,50.04c0,9.64-2.1,18.22-6.3,25.76c-4.2,7.54-9.92,13.47-17.14,17.79
				c-7.23,4.33-15.41,6.49-24.55,6.49c-9.02,0-17.17-2.16-24.46-6.49c-7.29-4.32-13.06-10.25-17.33-17.79
				c-4.26-7.53-6.39-16.12-6.39-25.76c0-9.64,2.13-18.22,6.39-25.76c4.26-7.53,10.04-13.46,17.33-17.79
				C181.42,2.16,189.58,0,198.6,0c9.14,0,17.33,2.16,24.55,6.49c7.23,4.33,12.94,10.26,17.14,17.79
				C244.49,31.81,246.59,40.4,246.59,50.04z M231.77,50.04c0-7.16-1.45-13.44-4.35-18.81c-2.9-5.37-6.86-9.64-11.86-12.79
				c-5-3.15-10.66-4.73-16.96-4.73c-6.18,0-11.8,1.58-16.86,4.73c-5.07,3.15-9.05,7.41-11.95,12.79c-2.9,5.37-4.35,11.65-4.35,18.81
				c0,7.04,1.45,13.28,4.35,18.72c2.9,5.44,6.89,9.73,11.95,12.88c5.06,3.15,10.68,4.73,16.86,4.73c6.3,0,11.95-1.58,16.96-4.73
				c5-3.15,8.96-7.44,11.86-12.88C230.31,63.32,231.77,57.08,231.77,50.04z"/>
			<path class="st2" d="M381.13,0.74c1.97,0,3.67,0.68,5.1,2.04c1.42,1.36,2.13,3.21,2.13,5.56c0,0.5-0.03,1.02-0.09,1.58
				c-0.06,0.56-0.22,1.02-0.46,1.39l-28.54,82.1c-0.62,1.61-1.64,2.87-3.06,3.8c-1.42,0.93-2.94,1.27-4.54,1.02
				c-2.84-0.12-5-1.73-6.49-4.82l-23.35-58.38l3.71,0.56L304.41,93.4c-1.36,3.09-3.52,4.7-6.49,4.82c-1.61,0.25-3.15-0.09-4.63-1.02
				c-1.48-0.93-2.53-2.19-3.15-3.8l-28.91-82.1c-0.37-0.99-0.56-1.98-0.56-2.97c0-2.1,0.68-3.89,2.04-5.37
				c1.36-1.48,3.21-2.22,5.56-2.22c1.48,0,2.84,0.37,4.08,1.11c1.23,0.74,2.1,1.98,2.59,3.71l25.02,72.83l-3.89-0.19l21.5-55.6
				c1.36-3.09,3.71-4.63,7.04-4.63c1.73,0,3.12,0.4,4.17,1.2c1.05,0.8,1.82,1.95,2.32,3.43l22.61,55.6l-4.63,0.37l25.02-73.02
				C375.08,2.35,377.43,0.74,381.13,0.74z"/>
		</g>
		<g class="st1">
			<path class="st2" d="M408.4,98.09c-0.99-0.27-1.65-0.82-1.98-1.65c-0.33-0.82-0.38-1.62-0.16-2.39c0.22-0.77,0.67-1.41,1.36-1.93
				c0.69-0.52,1.52-0.64,2.51-0.37c2.19,0.66,4.39,1.07,6.58,1.23c2.19,0.16,4.44,0.19,6.75,0.08c-0.93-3.9-1.4-7.81-1.4-11.73
				c0-3.92,0.15-7.85,0.45-11.77c0.3-3.92,0.6-7.86,0.91-11.81s0.32-7.9,0.04-11.85c-2.09-0.05-4.19-0.15-6.3-0.29
				c-2.11-0.14-4.21-0.34-6.3-0.62c-0.93-0.11-1.72-0.44-2.35-0.99c-0.63-0.55-0.95-1.29-0.95-2.22c0-0.82,0.32-1.6,0.95-2.35
				s1.41-1.06,2.35-0.95c2.52,0.28,5.06,0.51,7.61,0.7c2.55,0.19,5.09,0.26,7.61,0.21c2.52-0.05,5.03-0.27,7.53-0.66
				c2.5-0.38,4.98-1.01,7.45-1.89c0.82-0.27,1.63-0.16,2.43,0.33c0.79,0.49,1.33,1.15,1.61,1.98c0.27,0.93,0.18,1.77-0.29,2.51
				c-0.47,0.74-1.14,1.25-2.02,1.52c-4.12,1.43-8.4,2.28-12.84,2.55c0.33,3.9,0.33,7.82,0,11.77s-0.66,7.87-0.99,11.77
				c-0.33,3.9-0.48,7.79-0.45,11.69c0.03,3.9,0.54,7.77,1.52,11.6c1.76-0.16,3.48-0.33,5.19-0.49c1.7-0.16,3.4-0.3,5.1-0.41
				c1.04-0.05,1.82,0.23,2.35,0.86c0.52,0.63,0.78,1.36,0.78,2.18s-0.26,1.59-0.78,2.3c-0.52,0.71-1.3,1.1-2.35,1.15
				c-2.69,0.16-5.36,0.4-8.02,0.7c-2.66,0.3-5.32,0.52-7.98,0.66c-2.66,0.14-5.32,0.12-7.98-0.04
				C413.68,99.32,411.04,98.85,408.4,98.09z"/>
			<path class="st2" d="M497.79,91.67c0.22,0.77,0.11,1.59-0.33,2.47c-0.44,0.88-1.1,1.4-1.97,1.56c-2.96,0.49-5.9,0.45-8.81-0.12
				s-5.6-1.82-8.07-3.75c-2.42-1.92-4.13-4.38-5.14-7.37c-1.02-2.99-1.19-5.99-0.54-9.01c0.6-2.69,1.87-5.02,3.79-7
				c1.92-1.98,4.12-3.51,6.58-4.61c2.19-1.04,4.5-1.86,6.91-2.47c2.41-0.6,4.83-0.79,7.24-0.58c0.93,0.11,1.71,0.45,2.35,1.03
				s0.95,1.33,0.95,2.26c0,0.82-0.32,1.59-0.95,2.3c-0.63,0.71-1.41,1.04-2.35,0.99c-1.76-0.16-3.48-0.08-5.18,0.25
				c-1.7,0.33-3.35,0.85-4.94,1.56c-0.93,0.44-1.85,0.91-2.76,1.4s-1.69,1.04-2.35,1.65c-0.71,0.66-1.3,1.32-1.77,1.98
				c-0.47,0.66-0.81,1.43-1.03,2.3c-0.22,0.88-0.3,1.81-0.25,2.8c0.05,0.99,0.23,1.96,0.54,2.92c0.3,0.96,0.73,1.84,1.28,2.63
				c0.55,0.8,1.21,1.47,1.98,2.02c1.59,1.15,3.33,1.93,5.23,2.35c1.89,0.41,3.74,0.45,5.56,0.12c0.88-0.16,1.7-0.05,2.47,0.33
				C496.99,90.08,497.51,90.73,497.79,91.67z"/>
			<path class="st2" d="M511.2,95.86c-1.87-0.82-3.33-1.96-4.4-3.42c-1.07-1.45-1.81-3.06-2.22-4.81c-0.41-1.76-0.54-3.58-0.37-5.47
				s0.55-3.72,1.15-5.47c0.49-1.37,1.06-2.8,1.69-4.28c0.63-1.48,1.38-2.85,2.26-4.12c0.88-1.26,1.92-2.35,3.13-3.25
				c1.21-0.91,2.63-1.49,4.28-1.77c1.7-0.27,3.42-0.37,5.14-0.29c1.73,0.08,3.44,0.26,5.14,0.53c0.77,0.11,1.51,0.29,2.22,0.54
				c0.71,0.25,1.43,0.51,2.14,0.78c0.05-0.82,0.42-1.51,1.11-2.06c0.69-0.55,1.41-0.82,2.18-0.82c0.93,0,1.69,0.32,2.26,0.95
				c0.58,0.63,0.92,1.39,1.03,2.26c0.27,2.52,0.4,5.05,0.37,7.57c-0.03,2.52-0.11,5.05-0.25,7.57c-0.14,2.52-0.25,5.05-0.33,7.57
				c-0.08,2.52-0.07,5.05,0.04,7.57c0.05,1.04-0.26,1.82-0.95,2.35c-0.69,0.52-1.44,0.78-2.26,0.78s-1.58-0.26-2.26-0.78
				c-0.69-0.52-1.06-1.3-1.11-2.35c-3.13,1.32-6.45,2.07-9.96,2.26C517.73,97.91,514.38,97.29,511.2,95.86z M511.78,78
				c-0.33,0.99-0.63,2.11-0.91,3.37c-0.28,1.26-0.36,2.47-0.25,3.62c0.11,1.15,0.47,2.21,1.07,3.17c0.6,0.96,1.59,1.63,2.96,2.02
				c2.8,0.88,5.61,1.13,8.44,0.74c2.83-0.38,5.47-1.37,7.94-2.96c0.22-2.69,0.4-5.29,0.54-7.82c0.14-2.52,0.18-5.07,0.12-7.65
				c-0.93-0.6-1.88-1.14-2.84-1.6c-0.96-0.47-2.02-0.78-3.17-0.95c-1.15-0.16-2.37-0.29-3.66-0.37c-1.29-0.08-2.54-0.07-3.75,0.04
				c-0.11,0-0.4,0.07-0.86,0.21c-0.47,0.14-0.73,0.23-0.78,0.29c-0.55,0.27-1.04,0.71-1.48,1.32c-0.71,0.99-1.34,2.04-1.89,3.17
				C512.71,75.71,512.22,76.85,511.78,78z"/>
			<path class="st2" d="M546.76,90.19c0-2.36,0.16-4.75,0.49-7.16c0.38-2.91,0.77-5.8,1.15-8.68c0.38-2.88,0.55-5.8,0.49-8.77
				c0-1.04,0.33-1.84,0.99-2.39c0.66-0.55,1.4-0.82,2.22-0.82s1.59,0.27,2.3,0.82c0.71,0.55,1.07,1.35,1.07,2.39
				c2.14-0.17,4.17-0.25,6.09-0.25c2.19,0.06,4.06,0.69,5.6,1.89c1.54,1.21,2.69,2.83,3.46,4.86c0.66,1.87,1.04,3.79,1.15,5.76
				c0.11,1.98,0.19,3.95,0.25,5.93c0.05,2.8,0.14,5.58,0.25,8.35c0.11,2.77,0.16,5.56,0.16,8.35c0,1.1-0.34,1.91-1.03,2.43
				c-0.69,0.52-1.43,0.78-2.22,0.78c-0.8,0-1.54-0.26-2.22-0.78c-0.69-0.52-1.03-1.33-1.03-2.43c0-2.63-0.04-5.21-0.12-7.74
				c-0.08-2.52-0.18-5.1-0.29-7.74c-0.11-1.43-0.15-2.89-0.12-4.4c0.03-1.51-0.1-2.89-0.37-4.16c-0.16-0.77-0.33-1.44-0.49-2.02
				c-0.16-0.58-0.47-1.14-0.91-1.69c-0.11-0.22-0.34-0.41-0.7-0.58c-0.36-0.17-0.67-0.25-0.95-0.25c-0.82,0-1.59,0.06-2.3,0.16
				c-0.71,0.11-1.46,0.28-2.22,0.49c-0.33,0.11-0.66,0.22-0.99,0.33c-0.33,0.11-0.63,0.25-0.91,0.41c-0.55,1.98-0.95,3.86-1.19,5.64
				c-0.25,1.78-0.48,3.58-0.7,5.39c-0.16,1.32-0.26,2.65-0.29,3.99c-0.03,1.35-0.08,2.68-0.16,3.99c-0.08,1.32-0.25,2.63-0.49,3.95
				s-0.67,2.58-1.28,3.79c-0.49,0.93-1.15,1.47-1.98,1.6c-0.82,0.14-1.58,0-2.26-0.41c-0.69-0.41-1.21-1.03-1.56-1.85
				c-0.36-0.82-0.32-1.7,0.12-2.63c0.49-0.99,0.77-2.06,0.82-3.21C546.65,92.41,546.7,91.28,546.76,90.19z"/>
			<path class="st2" d="M609.64,79.81c-1.43-1.04-2.44-2.35-3.04-3.91c-0.6-1.56-0.63-3.22-0.08-4.98c0.55-1.59,1.4-3.02,2.55-4.28
				c1.15-1.26,2.47-2.28,3.95-3.05c1.65-0.88,3.4-1.56,5.27-2.06c1.86-0.49,3.76-0.77,5.68-0.82c1.92-0.05,3.83,0.12,5.72,0.54
				c1.89,0.41,3.69,1.06,5.39,1.93c0.93,0.49,1.45,1.15,1.56,1.98c0.11,0.82-0.04,1.59-0.45,2.3c-0.41,0.71-1.03,1.23-1.85,1.56
				s-1.7,0.25-2.63-0.25c-1.32-0.71-2.8-1.18-4.44-1.4c-1.65-0.22-3.31-0.23-4.98-0.04c-1.67,0.19-3.25,0.62-4.73,1.28
				c-1.48,0.66-2.72,1.51-3.7,2.55c-0.28,0.27-0.45,0.47-0.54,0.58c-0.08,0.11-0.21,0.36-0.37,0.74l-0.17,0.91
				c0.17,0.49,0.3,0.8,0.41,0.91c1.1,0.71,2.24,1.17,3.42,1.36c1.18,0.19,2.37,0.32,3.58,0.37c1.7,0.11,3.44,0.21,5.23,0.29
				s3.51,0.32,5.19,0.7c1.67,0.38,3.22,1.02,4.65,1.89c1.43,0.88,2.63,2.17,3.62,3.87c1.1,1.92,1.61,3.91,1.52,5.97
				c-0.08,2.06-0.89,3.91-2.43,5.56s-3.32,2.79-5.35,3.42c-2.03,0.63-4.09,1.08-6.17,1.36c-1.87,0.22-3.8,0.27-5.8,0.16
				c-2-0.11-3.92-0.43-5.76-0.95c-1.84-0.52-3.55-1.32-5.14-2.39c-1.59-1.07-2.91-2.48-3.95-4.24c-0.49-0.88-0.58-1.71-0.25-2.51
				c0.33-0.79,0.84-1.4,1.52-1.81c0.68-0.41,1.45-0.56,2.3-0.45c0.85,0.11,1.55,0.6,2.1,1.48c0.77,1.26,1.84,2.22,3.21,2.88
				c1.37,0.66,2.87,1.11,4.49,1.36c1.62,0.25,3.25,0.3,4.9,0.16c1.65-0.14,3.13-0.34,4.44-0.62c0.71-0.16,1.44-0.4,2.18-0.7
				c0.74-0.3,1.37-0.67,1.89-1.11c0.52-0.44,0.89-0.95,1.11-1.52c0.22-0.58,0.19-1.22-0.08-1.93c-0.55-1.37-1.47-2.36-2.76-2.96
				c-1.29-0.6-2.65-0.96-4.07-1.07c-1.43-0.11-2.88-0.16-4.36-0.16s-2.96-0.07-4.44-0.21c-1.48-0.14-2.94-0.4-4.36-0.78
				C612.16,81.32,610.85,80.69,609.64,79.81z"/>
			<path class="st2" d="M649.07,66.15c1.04-1.43,2.29-2.69,3.75-3.79c1.45-1.1,3-1.96,4.65-2.59c1.65-0.63,3.35-0.96,5.1-0.99
				c1.76-0.03,3.51,0.32,5.27,1.03c1.7,0.66,3.24,1.55,4.61,2.67c1.37,1.13,2.44,2.57,3.21,4.32c0.6,1.32,0.96,2.74,1.07,4.28
				c0.11,1.54-0.3,2.94-1.23,4.2c-0.82,1.15-1.83,2.03-3,2.63c-1.18,0.6-2.44,1.04-3.79,1.32c-1.34,0.28-2.72,0.41-4.12,0.41
				s-2.73-0.03-3.99-0.08c-1.43-0.05-2.84-0.16-4.24-0.33s-2.81-0.33-4.24-0.49c0.44,2.47,1.32,4.66,2.63,6.58
				c1.32,1.92,3.1,3.37,5.35,4.36c0.6,0.22,1.07,0.38,1.4,0.49c0.16,0.06,0.31,0.1,0.45,0.12c0.14,0.03,0.29,0.04,0.45,0.04
				c0.44,0.06,0.81,0.1,1.11,0.12c0.3,0.03,0.59,0.01,0.86-0.04c0.38-0.05,0.64-0.1,0.78-0.12c0.14-0.03,0.29-0.07,0.45-0.12
				c0.6-0.16,1.14-0.36,1.6-0.58c0.47-0.22,1.03-0.58,1.69-1.07c0.33-0.27,0.77-0.69,1.32-1.23c0.55-0.55,1.02-1.04,1.4-1.48
				c0.55-0.77,1.22-1.29,2.02-1.56c0.79-0.27,1.61-0.16,2.43,0.33c0.71,0.44,1.22,1.11,1.52,2.02c0.3,0.91,0.18,1.74-0.37,2.51
				c-1.59,2.14-3.47,3.96-5.64,5.47c-2.17,1.51-4.65,2.32-7.45,2.43c-2.25,0.11-4.42-0.29-6.5-1.19c-2.09-0.91-3.92-2.13-5.51-3.66
				c-1.98-1.92-3.54-4.14-4.69-6.67c-1.15-2.52-1.78-5.1-1.89-7.74c-0.49-0.38-0.86-0.86-1.11-1.44s-0.33-1.17-0.25-1.77
				c0.08-0.6,0.29-1.17,0.62-1.69c0.33-0.52,0.82-0.86,1.48-1.03C646.87,69.8,647.8,67.91,649.07,66.15z M668.82,68.13
				c-0.6-0.77-1.54-1.45-2.8-2.06c-1.04-0.44-2.26-0.66-3.66-0.66c-1.4,0-2.59,0.25-3.58,0.74c-1.26,0.6-2.39,1.44-3.37,2.51
				c-0.99,1.07-1.78,2.26-2.39,3.58c1.32,0.16,2.63,0.33,3.95,0.49c1.32,0.16,2.63,0.27,3.95,0.33c0.71,0,1.43,0,2.14,0
				c0.71,0,1.43-0.03,2.14-0.08c0.22,0,0.42-0.01,0.62-0.04c0.19-0.03,0.4-0.04,0.62-0.04c0.49-0.11,0.86-0.18,1.11-0.21
				c0.25-0.03,0.51-0.1,0.78-0.21c0.22-0.05,0.49-0.14,0.82-0.25c0.27-0.11,0.44-0.19,0.49-0.25c0.05-0.05,0.14-0.11,0.25-0.16
				l0.25-0.99c-0.11-0.22-0.18-0.42-0.21-0.62c-0.03-0.19-0.1-0.37-0.21-0.53c-0.06-0.16-0.18-0.41-0.37-0.74
				C669.16,68.62,668.98,68.35,668.82,68.13z"/>
			<path class="st2" d="M686.02,66.15c1.04-1.43,2.29-2.69,3.75-3.79c1.45-1.1,3-1.96,4.65-2.59c1.65-0.63,3.35-0.96,5.1-0.99
				c1.76-0.03,3.51,0.32,5.27,1.03c1.7,0.66,3.24,1.55,4.61,2.67c1.37,1.13,2.44,2.57,3.21,4.32c0.6,1.32,0.96,2.74,1.07,4.28
				c0.11,1.54-0.3,2.94-1.23,4.2c-0.82,1.15-1.83,2.03-3,2.63c-1.18,0.6-2.44,1.04-3.79,1.32c-1.34,0.28-2.72,0.41-4.12,0.41
				s-2.73-0.03-3.99-0.08c-1.43-0.05-2.84-0.16-4.24-0.33s-2.81-0.33-4.24-0.49c0.44,2.47,1.32,4.66,2.63,6.58
				c1.32,1.92,3.1,3.37,5.35,4.36c0.6,0.22,1.07,0.38,1.4,0.49c0.16,0.06,0.31,0.1,0.45,0.12c0.14,0.03,0.29,0.04,0.45,0.04
				c0.44,0.06,0.81,0.1,1.11,0.12c0.3,0.03,0.59,0.01,0.86-0.04c0.38-0.05,0.64-0.1,0.78-0.12c0.14-0.03,0.29-0.07,0.45-0.12
				c0.6-0.16,1.14-0.36,1.6-0.58c0.47-0.22,1.03-0.58,1.69-1.07c0.33-0.27,0.77-0.69,1.32-1.23c0.55-0.55,1.02-1.04,1.4-1.48
				c0.55-0.77,1.22-1.29,2.02-1.56c0.79-0.27,1.61-0.16,2.43,0.33c0.71,0.44,1.22,1.11,1.52,2.02c0.3,0.91,0.18,1.74-0.37,2.51
				c-1.59,2.14-3.47,3.96-5.64,5.47c-2.17,1.51-4.65,2.32-7.45,2.43c-2.25,0.11-4.42-0.29-6.5-1.19c-2.09-0.91-3.92-2.13-5.51-3.66
				c-1.98-1.92-3.54-4.14-4.69-6.67c-1.15-2.52-1.78-5.1-1.89-7.74c-0.49-0.38-0.86-0.86-1.11-1.44s-0.33-1.17-0.25-1.77
				c0.08-0.6,0.29-1.17,0.62-1.69c0.33-0.52,0.82-0.86,1.48-1.03C683.83,69.8,684.76,67.91,686.02,66.15z M705.78,68.13
				c-0.6-0.77-1.54-1.45-2.8-2.06c-1.04-0.44-2.26-0.66-3.66-0.66c-1.4,0-2.59,0.25-3.58,0.74c-1.26,0.6-2.39,1.44-3.37,2.51
				c-0.99,1.07-1.78,2.26-2.39,3.58c1.32,0.16,2.63,0.33,3.95,0.49c1.32,0.16,2.63,0.27,3.95,0.33c0.71,0,1.43,0,2.14,0
				c0.71,0,1.43-0.03,2.14-0.08c0.22,0,0.42-0.01,0.62-0.04c0.19-0.03,0.4-0.04,0.62-0.04c0.49-0.11,0.86-0.18,1.11-0.21
				c0.25-0.03,0.51-0.1,0.78-0.21c0.22-0.05,0.49-0.14,0.82-0.25c0.27-0.11,0.44-0.19,0.49-0.25c0.05-0.05,0.14-0.11,0.25-0.16
				l0.25-0.99c-0.11-0.22-0.18-0.42-0.21-0.62c-0.03-0.19-0.1-0.37-0.21-0.53c-0.06-0.16-0.18-0.41-0.37-0.74
				C706.12,68.62,705.94,68.35,705.78,68.13z"/>
		</g>
		<g class="st1">
			<path class="st2" d="M528.5,216.92c0-2.36,0.16-4.75,0.49-7.16c0.38-2.91,0.77-5.8,1.15-8.68s0.55-5.8,0.49-8.77
				c0-1.04,0.33-1.84,0.99-2.39c0.66-0.55,1.4-0.82,2.22-0.82s1.59,0.28,2.3,0.82c0.71,0.55,1.07,1.34,1.07,2.39
				c2.14-0.17,4.17-0.25,6.09-0.25c2.19,0.06,4.06,0.69,5.6,1.89c1.54,1.21,2.69,2.83,3.46,4.86c0.66,1.87,1.04,3.79,1.15,5.76
				c0.11,1.97,0.19,3.95,0.25,5.93c0.05,2.8,0.14,5.58,0.25,8.35c0.11,2.77,0.16,5.56,0.16,8.35c0,1.1-0.34,1.91-1.03,2.43
				c-0.69,0.52-1.43,0.78-2.22,0.78c-0.8,0-1.54-0.26-2.22-0.78c-0.69-0.52-1.03-1.33-1.03-2.43c0-2.63-0.04-5.21-0.12-7.74
				c-0.08-2.52-0.18-5.1-0.29-7.74c-0.11-1.43-0.15-2.89-0.12-4.4c0.03-1.51-0.1-2.89-0.37-4.16c-0.16-0.77-0.33-1.44-0.49-2.02
				c-0.16-0.58-0.47-1.14-0.91-1.69c-0.11-0.22-0.34-0.41-0.7-0.58c-0.36-0.16-0.67-0.25-0.95-0.25c-0.82,0-1.59,0.06-2.3,0.17
				c-0.71,0.11-1.46,0.28-2.22,0.49c-0.33,0.11-0.66,0.22-0.99,0.33c-0.33,0.11-0.63,0.25-0.91,0.41c-0.55,1.98-0.95,3.86-1.19,5.64
				s-0.48,3.58-0.7,5.39c-0.16,1.32-0.26,2.65-0.29,3.99c-0.03,1.34-0.08,2.67-0.16,3.99c-0.08,1.32-0.25,2.63-0.49,3.95
				c-0.25,1.32-0.67,2.58-1.28,3.79c-0.49,0.93-1.15,1.47-1.98,1.6c-0.82,0.14-1.58,0-2.26-0.41c-0.69-0.41-1.21-1.03-1.56-1.85
				c-0.36-0.82-0.32-1.7,0.12-2.63c0.49-0.99,0.77-2.06,0.82-3.21C528.39,219.14,528.44,218.02,528.5,216.92z"/>
			<path class="st2" d="M582.24,186.88c1.76-0.22,3.59-0.29,5.51-0.21c1.92,0.08,3.76,0.41,5.51,0.99c1.76,0.58,3.35,1.44,4.77,2.59
				s2.52,2.66,3.29,4.53c0.55,1.32,0.84,2.65,0.86,3.99c0.03,1.34-0.17,2.63-0.58,3.87c-0.41,1.23-1.02,2.42-1.81,3.54
				c-0.8,1.13-1.71,2.15-2.76,3.09c-2.25,2.03-4.72,3.76-7.41,5.19c-2.69,1.43-5.51,2.52-8.48,3.29c-1.26,0.33-2.57,0.62-3.91,0.86
				c-1.34,0.25-2.7,0.37-4.07,0.37c-1.37,0-2.72-0.15-4.03-0.45c-1.32-0.3-2.55-0.81-3.7-1.52c-0.82-0.49-1.32-1.15-1.48-1.98
				c-0.33-0.93-0.69-1.81-1.07-2.63c-0.38-0.82-0.75-1.67-1.11-2.55c-0.36-0.88-0.65-1.76-0.86-2.63c-0.22-0.88-0.33-1.78-0.33-2.72
				c0-1.86,0.4-3.63,1.19-5.31c0.79-1.67,1.88-3.14,3.25-4.4c2.3-2.19,4.96-3.95,7.98-5.27
				C576.04,188.2,579.12,187.32,582.24,186.88z M591.54,193.96c-1.48-0.55-3.07-0.82-4.77-0.82c-1.81-0.05-3.62,0.12-5.43,0.53
				c-1.81,0.41-3.54,0.98-5.18,1.69c-1.54,0.6-3.12,1.44-4.73,2.51c-1.62,1.07-2.81,2.37-3.58,3.91c-0.44,0.82-0.65,1.66-0.62,2.51
				c0.03,0.85,0.17,1.7,0.41,2.55c0.25,0.85,0.58,1.7,0.99,2.55c0.41,0.85,0.78,1.69,1.11,2.51c0.88,0.22,1.43,0.33,1.65,0.33
				c0.11,0.06,0.25,0.08,0.41,0.08c0.16,0,0.3,0,0.41,0c1.1,0.11,2.08,0.08,2.96-0.08c0.6,0,1.37-0.11,2.3-0.33
				c1.43-0.27,2.8-0.64,4.12-1.11c1.32-0.47,2.52-0.97,3.62-1.52c1.26-0.6,2.5-1.26,3.7-1.98c1.21-0.71,2.22-1.45,3.05-2.22
				c0.55-0.49,1.07-1.01,1.56-1.56c0.27-0.27,0.47-0.49,0.58-0.66c0.27-0.38,0.49-0.67,0.66-0.86c0.17-0.19,0.3-0.42,0.41-0.7
				c0.22-0.38,0.33-0.68,0.33-0.91c0.05-0.11,0.09-0.25,0.12-0.41c0.03-0.17,0.07-0.3,0.12-0.41v-0.91
				c-0.06-0.22-0.08-0.38-0.08-0.49c0-0.11-0.03-0.22-0.08-0.33c-0.17-0.38-0.32-0.67-0.45-0.86s-0.29-0.4-0.45-0.62
				c0.05,0.05-0.01-0.03-0.21-0.25c-0.19-0.22-0.32-0.36-0.37-0.41l-0.66-0.66c-0.28-0.16-0.58-0.36-0.91-0.58
				C592.2,194.23,591.87,194.07,591.54,193.96z"/>
			<path class="st2" d="M657.47,193.13c-0.33,1.54-0.71,3.06-1.15,4.57c-0.44,1.51-0.93,3-1.48,4.49c-0.6,1.54-1.18,3.06-1.73,4.57
				c-0.55,1.51-1.21,2.98-1.98,4.4c-0.71,1.37-1.48,2.7-2.3,3.99c-0.82,1.29-1.54,2.65-2.14,4.07c-0.55,1.26-1.11,2.51-1.69,3.75
				c-0.58,1.23-1.3,2.4-2.18,3.5c-0.44,0.55-0.93,0.88-1.48,0.99c-0.55,0.11-1.08,0.07-1.61-0.12c-0.52-0.19-1.02-0.51-1.48-0.95
				c-0.47-0.44-0.78-0.91-0.95-1.4c-0.93-2.58-1.62-5.17-2.06-7.78c-0.44-2.61-1.02-5.23-1.73-7.86c-0.17-0.77-0.34-1.51-0.54-2.22
				c-0.19-0.71-0.4-1.43-0.62-2.14c-0.44,1.26-0.92,2.5-1.44,3.7c-0.52,1.21-1.08,2.44-1.69,3.7c-0.66,1.26-1.32,2.55-1.97,3.87
				c-0.66,1.32-1.35,2.61-2.06,3.87c-0.6,1.26-1.32,2.43-2.14,3.5s-1.81,1.99-2.96,2.76c-0.93,0.6-1.88,0.66-2.84,0.17
				s-1.6-1.21-1.93-2.14c-0.82-2.47-1.56-4.98-2.22-7.53s-1.32-5.1-1.98-7.65c-0.66-2.55-1.34-5.08-2.06-7.57
				c-0.71-2.5-1.54-4.98-2.47-7.45c-0.33-0.82-0.23-1.63,0.29-2.43c0.52-0.79,1.17-1.33,1.93-1.61c0.93-0.27,1.77-0.16,2.51,0.33
				c0.74,0.49,1.25,1.15,1.52,1.97c1.54,3.95,2.8,7.93,3.79,11.93c0.99,4.01,2.03,8.04,3.13,12.1l0.49-0.99
				c0.6-1.21,1.19-2.39,1.77-3.54s1.17-2.33,1.77-3.54c0.66-1.26,1.25-2.56,1.77-3.91c0.52-1.34,1-2.7,1.44-4.07
				c0.44-1.32,0.85-2.63,1.23-3.95c0.38-1.32,0.63-2.69,0.74-4.12c0.05-0.88,0.37-1.59,0.95-2.14c0.58-0.55,1.23-0.88,1.97-0.99
				c0.74-0.11,1.44,0.01,2.1,0.37c0.66,0.36,1.12,1,1.4,1.93c0.77,2.8,1.56,5.57,2.39,8.31c0.82,2.74,1.56,5.51,2.22,8.31
				c0.27,1.15,0.52,2.29,0.74,3.42c0.22,1.12,0.46,2.24,0.74,3.33c0.6-1.32,1.3-2.59,2.1-3.83c0.79-1.23,1.52-2.51,2.18-3.83
				c1.21-2.47,2.26-5.06,3.17-7.78c0.91-2.72,1.63-5.42,2.18-8.11c0.17-0.93,0.67-1.62,1.52-2.06c0.85-0.44,1.69-0.52,2.51-0.25
				c0.93,0.28,1.59,0.8,1.98,1.56C657.53,191.43,657.64,192.26,657.47,193.13z"/>
			<path class="st2" d="M666.03,219.06c0.71,0.44,1.26,1.1,1.65,1.98c0.38,0.88,0.44,1.7,0.17,2.47c-0.22,0.82-0.74,1.51-1.56,2.06
				c-0.6,0.66-1.37,0.97-2.3,0.95c-0.93-0.03-1.7-0.34-2.3-0.95c-0.82-0.6-1.35-1.15-1.56-1.65c-0.44-0.77-0.56-1.54-0.37-2.3
				c0.19-0.77,0.59-1.43,1.19-1.98c0.17-0.11,0.32-0.23,0.45-0.37c0.14-0.14,0.32-0.26,0.54-0.37c0.49-0.22,0.78-0.33,0.86-0.33
				c0.08,0,0.37-0.05,0.86-0.17c0.16,0,0.36,0.01,0.58,0.04c0.22,0.03,0.38,0.07,0.49,0.12
				C665.15,218.62,665.59,218.79,666.03,219.06z M665.37,165.97c0-1.04,0.34-1.84,1.03-2.39c0.69-0.55,1.43-0.82,2.22-0.82
				c0.79,0,1.54,0.28,2.22,0.82c0.69,0.55,1.03,1.34,1.03,2.39c0,3.62,0.04,7.26,0.12,10.91c0.08,3.65,0.08,7.28,0,10.91
				c-0.08,3.62-0.3,7.24-0.66,10.86c-0.36,3.62-0.97,7.22-1.85,10.78c-0.28,1.04-0.8,1.73-1.56,2.06c-0.77,0.33-1.55,0.38-2.35,0.17
				c-0.8-0.22-1.47-0.67-2.02-1.36c-0.55-0.69-0.69-1.55-0.41-2.59c0.82-3.4,1.4-6.84,1.73-10.33c0.33-3.48,0.54-6.97,0.62-10.45
				c0.08-3.48,0.08-6.98,0-10.49C665.41,172.92,665.37,169.43,665.37,165.97z"/>
		</g>
		<g class="st1">
			<path class="st2" d="M172.34,211.11c0.4,1.4,0.2,2.89-0.6,4.48c-0.8,1.59-1.99,2.54-3.59,2.84c-5.38,0.9-10.71,0.82-15.99-0.22
				c-5.28-1.05-10.16-3.31-14.65-6.8c-4.39-3.49-7.5-7.95-9.34-13.38c-1.85-5.43-2.17-10.89-0.97-16.37
				c1.1-4.88,3.39-9.12,6.88-12.71c3.49-3.59,7.47-6.38,11.96-8.37c3.98-1.89,8.17-3.39,12.56-4.48c4.38-1.1,8.77-1.44,13.15-1.05
				c1.69,0.2,3.11,0.82,4.26,1.87c1.14,1.05,1.72,2.42,1.72,4.11c0,1.49-0.57,2.89-1.72,4.18c-1.15,1.3-2.57,1.89-4.26,1.79
				c-3.19-0.3-6.33-0.15-9.42,0.45c-3.09,0.6-6.08,1.55-8.97,2.84c-1.7,0.8-3.36,1.64-5.01,2.54c-1.64,0.9-3.06,1.89-4.26,2.99
				c-1.3,1.2-2.37,2.39-3.21,3.59c-0.85,1.2-1.47,2.59-1.87,4.19c-0.4,1.6-0.55,3.29-0.45,5.08c0.1,1.79,0.42,3.56,0.97,5.31
				c0.55,1.75,1.32,3.34,2.32,4.78c1,1.45,2.19,2.67,3.59,3.66c2.89,2.09,6.05,3.51,9.49,4.26c3.44,0.75,6.8,0.82,10.09,0.22
				c1.59-0.3,3.09-0.1,4.48,0.6C170.89,208.22,171.84,209.42,172.34,211.11z"/>
			<path class="st2" d="M195.21,105.43c1.79,0,3.19,0.6,4.19,1.79c1,1.2,1.59,2.59,1.79,4.19c0.99,9.47,1.54,18.93,1.64,28.4
				c0.1,9.47-0.03,18.93-0.37,28.4c-0.35,9.47-0.87,18.93-1.57,28.4c-0.7,9.47-1.4,18.88-2.09,28.25c-0.2,1.69-0.82,3.11-1.87,4.26
				c-1.05,1.14-2.42,1.72-4.11,1.72c-1.5,0-2.89-0.57-4.19-1.72c-1.3-1.15-1.89-2.57-1.79-4.26c0.7-9.37,1.42-18.78,2.17-28.25
				c0.75-9.47,1.29-18.93,1.64-28.4c0.35-9.47,0.47-18.93,0.37-28.4c-0.1-9.47-0.65-18.93-1.64-28.4c-0.2-1.59,0.35-2.99,1.64-4.19
				C192.32,106.03,193.71,105.43,195.21,105.43z"/>
			<path class="st2" d="M222.56,164.77c1.89-2.59,4.16-4.88,6.8-6.88c2.64-1.99,5.46-3.56,8.45-4.71c2.99-1.14,6.08-1.74,9.27-1.79
				c3.19-0.05,6.38,0.57,9.57,1.87c3.09,1.2,5.88,2.82,8.37,4.86c2.49,2.04,4.43,4.66,5.83,7.85c1.1,2.39,1.74,4.98,1.94,7.77
				c0.2,2.79-0.55,5.33-2.24,7.62c-1.49,2.09-3.31,3.69-5.46,4.78c-2.14,1.1-4.44,1.89-6.88,2.39c-2.44,0.5-4.93,0.75-7.47,0.75
				s-4.96-0.05-7.25-0.15c-2.59-0.1-5.16-0.3-7.7-0.6c-2.54-0.3-5.11-0.6-7.7-0.9c0.8,4.48,2.39,8.47,4.78,11.96
				c2.39,3.49,5.63,6.13,9.72,7.92c1.1,0.4,1.94,0.7,2.54,0.9c0.3,0.1,0.57,0.17,0.82,0.22c0.25,0.05,0.52,0.08,0.82,0.08
				c0.8,0.1,1.47,0.17,2.02,0.22c0.55,0.05,1.07,0.03,1.57-0.08c0.7-0.1,1.17-0.17,1.42-0.22c0.25-0.05,0.52-0.12,0.82-0.22
				c1.09-0.3,2.07-0.65,2.91-1.05c0.85-0.4,1.87-1.05,3.06-1.94c0.6-0.5,1.39-1.25,2.39-2.24c1-1,1.84-1.89,2.54-2.69
				c1-1.39,2.22-2.34,3.66-2.84c1.44-0.5,2.92-0.3,4.41,0.6c1.29,0.8,2.22,2.02,2.77,3.66c0.55,1.64,0.32,3.16-0.67,4.56
				c-2.89,3.89-6.3,7.2-10.24,9.94c-3.94,2.74-8.45,4.21-13.53,4.41c-4.09,0.2-8.02-0.52-11.81-2.17
				c-3.79-1.64-7.13-3.86-10.02-6.65c-3.59-3.49-6.43-7.52-8.52-12.11c-2.09-4.58-3.24-9.27-3.44-14.05
				c-0.9-0.7-1.57-1.57-2.02-2.62c-0.45-1.05-0.6-2.12-0.45-3.21c0.15-1.1,0.52-2.12,1.12-3.06c0.6-0.95,1.49-1.57,2.69-1.87
				C218.58,171.4,220.27,167.96,222.56,164.77z M258.44,168.36c-1.1-1.39-2.79-2.64-5.08-3.74c-1.89-0.8-4.11-1.2-6.65-1.2
				s-4.71,0.45-6.5,1.34c-2.29,1.1-4.33,2.62-6.13,4.56c-1.79,1.94-3.24,4.11-4.33,6.5c2.39,0.3,4.78,0.6,7.18,0.9
				c2.39,0.3,4.78,0.5,7.17,0.6c1.29,0,2.59,0,3.89,0c1.29,0,2.59-0.05,3.89-0.15c0.4,0,0.77-0.02,1.12-0.08
				c0.35-0.05,0.72-0.08,1.12-0.08c0.9-0.2,1.57-0.32,2.02-0.37c0.45-0.05,0.92-0.17,1.42-0.37c0.4-0.1,0.9-0.25,1.49-0.45
				c0.5-0.2,0.8-0.35,0.9-0.45c0.1-0.1,0.25-0.2,0.45-0.3l0.45-1.79c-0.2-0.4-0.32-0.77-0.38-1.12c-0.05-0.35-0.17-0.67-0.37-0.97
				c-0.1-0.3-0.32-0.75-0.67-1.35C259.06,169.25,258.74,168.76,258.44,168.36z"/>
			<path class="st2" d="M295.96,218.73c-3.39-1.49-6.05-3.56-8-6.2c-1.94-2.64-3.29-5.55-4.04-8.74c-0.75-3.19-0.97-6.5-0.67-9.94
				c0.3-3.44,1-6.75,2.09-9.94c0.9-2.49,1.92-5.08,3.06-7.77c1.14-2.69,2.52-5.18,4.11-7.47c1.59-2.29,3.49-4.26,5.68-5.9
				c2.19-1.64,4.78-2.71,7.77-3.21c3.09-0.5,6.2-0.67,9.34-0.52c3.14,0.15,6.25,0.47,9.34,0.97c1.39,0.2,2.74,0.52,4.04,0.97
				c1.29,0.45,2.59,0.92,3.89,1.42c0.1-1.49,0.77-2.74,2.02-3.74c1.25-1,2.56-1.5,3.96-1.5c1.69,0,3.06,0.57,4.11,1.72
				c1.05,1.15,1.67,2.52,1.87,4.11c0.5,4.58,0.72,9.17,0.67,13.75c-0.05,4.58-0.2,9.17-0.45,13.75c-0.25,4.58-0.45,9.17-0.6,13.75
				c-0.15,4.58-0.13,9.17,0.07,13.75c0.1,1.89-0.47,3.31-1.72,4.26c-1.25,0.95-2.62,1.42-4.11,1.42c-1.5,0-2.87-0.47-4.11-1.42
				c-1.25-0.95-1.92-2.37-2.02-4.26c-5.68,2.39-11.71,3.76-18.09,4.11C307.81,222.45,301.73,221.32,295.96,218.73z M297,186.29
				c-0.6,1.79-1.15,3.84-1.64,6.13c-0.5,2.29-0.65,4.48-0.45,6.58c0.2,2.09,0.85,4.01,1.94,5.75c1.1,1.74,2.89,2.97,5.38,3.66
				c5.08,1.59,10.19,2.04,15.32,1.34c5.13-0.7,9.94-2.49,14.42-5.38c0.4-4.88,0.72-9.62,0.97-14.2c0.25-4.58,0.32-9.22,0.22-13.9
				c-1.7-1.1-3.41-2.07-5.16-2.92c-1.75-0.84-3.66-1.42-5.75-1.72s-4.31-0.52-6.65-0.67c-2.34-0.15-4.61-0.12-6.8,0.08
				c-0.2,0-0.72,0.13-1.57,0.37c-0.85,0.25-1.32,0.42-1.42,0.52c-1,0.5-1.89,1.3-2.69,2.39c-1.3,1.79-2.44,3.71-3.44,5.75
				C298.7,182.14,297.8,184.2,297,186.29z"/>
			<path class="st2" d="M361.58,161.93c0.1-1.89,0.8-3.31,2.09-4.26c1.29-0.95,2.69-1.42,4.18-1.42c1.5,0,2.81,0.47,3.96,1.42
				c1.14,0.95,1.67,2.37,1.57,4.26c0,0.6-0.03,1.22-0.08,1.87c-0.05,0.65-0.07,1.27-0.07,1.87c3.19-1.59,6.55-2.96,10.09-4.11
				c3.54-1.14,7.07-1.87,10.61-2.17c3.54-0.3,6.97-0.02,10.31,0.82c3.34,0.85,6.4,2.47,9.19,4.86c1.39,1.3,2.02,2.69,1.87,4.19
				s-0.75,2.77-1.79,3.81c-1.05,1.05-2.37,1.7-3.96,1.94c-1.59,0.25-3.14-0.22-4.63-1.42c-1.1-0.9-2.32-1.54-3.66-1.94
				c-1.34-0.4-2.79-0.57-4.33-0.52c-1.55,0.05-3.09,0.22-4.63,0.52c-1.55,0.3-3.01,0.65-4.41,1.05c-5.28,1.7-10.22,3.94-14.8,6.73
				c0.2,4.88,0.5,9.77,0.9,14.65c0.4,4.09,0.75,8.3,1.05,12.63c0.3,4.33,1.14,8.45,2.54,12.33c0.6,1.79,0.47,3.31-0.37,4.56
				c-0.85,1.25-2,2.07-3.44,2.47c-1.45,0.4-2.94,0.3-4.48-0.3c-1.55-0.6-2.62-1.79-3.21-3.59c-0.8-2.29-1.35-4.63-1.64-7.03
				s-0.6-4.78-0.9-7.17c-0.2-2.29-0.43-4.61-0.67-6.95c-0.25-2.34-0.47-4.66-0.67-6.95c-0.5-5.38-0.82-10.74-0.97-16.07
				C361.05,172.67,361.18,167.31,361.58,161.93z"/>
			<path class="st2" d="M431.38,105.43c1.79,0,3.19,0.6,4.19,1.79c0.99,1.2,1.59,2.59,1.79,4.19c1,9.47,1.54,18.93,1.64,28.4
				c0.1,9.47-0.03,18.93-0.37,28.4c-0.35,9.47-0.87,18.93-1.57,28.4c-0.7,9.47-1.4,18.88-2.09,28.25c-0.2,1.69-0.82,3.11-1.87,4.26
				c-1.05,1.14-2.42,1.72-4.11,1.72c-1.5,0-2.89-0.57-4.19-1.72c-1.3-1.15-1.89-2.57-1.79-4.26c0.7-9.37,1.42-18.78,2.17-28.25
				c0.75-9.47,1.29-18.93,1.64-28.4c0.35-9.47,0.47-18.93,0.37-28.4c-0.1-9.47-0.65-18.93-1.64-28.4c-0.2-1.59,0.35-2.99,1.64-4.19
				C428.49,106.03,429.89,105.43,431.38,105.43z"/>
			<path class="st2" d="M510.9,155.5c1.39,0.8,2.34,2,2.84,3.59c0.5,1.59,0.25,3.09-0.75,4.48c-2.49,3.59-4.36,7.53-5.61,11.81
				c-1.25,4.29-2.67,8.47-4.26,12.56c-1.7,4.39-3.56,8.62-5.61,12.71c-2.04,4.09-4.21,8.22-6.5,12.41c-0.2,0.5-0.43,0.92-0.67,1.27
				c-0.25,0.35-0.47,0.77-0.67,1.27c0.4,1.59,0.17,3.02-0.67,4.26c-0.85,1.25-1.97,2.12-3.36,2.62c-4.09,6.97-8.2,13.88-12.33,20.7
				c-4.14,6.83-8.25,13.73-12.33,20.7c-1,1.69-2.27,2.64-3.81,2.84c-1.55,0.2-2.97-0.08-4.26-0.82c-1.3-0.75-2.24-1.84-2.84-3.29
				c-0.6-1.45-0.4-3.02,0.6-4.71c4.19-7.17,8.42-14.28,12.71-21.3c4.28-7.03,8.52-14.12,12.71-21.3
				c-4.48-8.07-8.77-16.22-12.85-24.44c-4.09-8.22-8.27-16.42-12.56-24.59c-0.9-1.69-1.02-3.26-0.37-4.71
				c0.65-1.44,1.59-2.54,2.84-3.29c1.25-0.75,2.64-1.02,4.19-0.82c1.54,0.2,2.76,1.15,3.66,2.84c3.69,7.17,7.32,14.33,10.91,21.45
				c3.59,7.13,7.27,14.23,11.06,21.3c3.69-6.78,6.97-13.9,9.87-21.38c1.5-4.08,2.92-8.24,4.26-12.48c1.34-4.23,3.26-8.1,5.75-11.58
				c0.9-1.39,2.09-2.32,3.59-2.77C507.91,154.38,509.41,154.61,510.9,155.5z"/>
		</g>
	</g>
	<g>
		<g>
			<path class="st3" d="M120.46,0.74c1.97,0,3.67,0.68,5.1,2.04c1.42,1.36,2.13,3.21,2.13,5.56c0,0.5-0.03,1.02-0.09,1.58
				c-0.06,0.56-0.22,1.02-0.46,1.39L98.59,93.4c-0.62,1.61-1.64,2.87-3.06,3.8c-1.42,0.93-2.94,1.27-4.54,1.02
				c-2.84-0.12-5-1.73-6.49-4.82L61.16,35.03l3.71,0.56L43.74,93.4c-1.36,3.09-3.52,4.7-6.49,4.82c-1.61,0.25-3.15-0.09-4.63-1.02
				c-1.48-0.93-2.53-2.19-3.15-3.8L0.56,11.3C0.19,10.32,0,9.33,0,8.34c0-2.1,0.68-3.89,2.04-5.37C3.4,1.48,5.25,0.74,7.6,0.74
				c1.48,0,2.84,0.37,4.08,1.11c1.23,0.74,2.1,1.98,2.59,3.71l25.02,72.83L35.4,78.2l21.5-55.6c1.36-3.09,3.71-4.63,7.04-4.63
				c1.73,0,3.12,0.4,4.17,1.2c1.05,0.8,1.82,1.95,2.32,3.43l22.61,55.6l-4.63,0.37l25.02-73.02C114.4,2.35,116.75,0.74,120.46,0.74z
				"/>
			<path class="st3" d="M237.76,50.04c0,9.64-2.1,18.22-6.3,25.76c-4.2,7.54-9.91,13.47-17.14,17.79
				c-7.23,4.33-15.41,6.49-24.55,6.49c-9.02,0-17.17-2.16-24.46-6.49c-7.29-4.32-13.06-10.25-17.33-17.79
				c-4.26-7.53-6.39-16.12-6.39-25.76c0-9.64,2.13-18.22,6.39-25.76c4.26-7.53,10.04-13.46,17.33-17.79
				C172.59,2.16,180.74,0,189.76,0c9.14,0,17.33,2.16,24.55,6.49c7.23,4.33,12.94,10.26,17.14,17.79
				C235.66,31.81,237.76,40.4,237.76,50.04z M222.94,50.04c0-7.16-1.45-13.44-4.35-18.81c-2.9-5.37-6.86-9.64-11.86-12.79
				c-5-3.15-10.66-4.73-16.96-4.73c-6.18,0-11.8,1.58-16.86,4.73c-5.07,3.15-9.05,7.41-11.95,12.79c-2.9,5.37-4.35,11.65-4.35,18.81
				c0,7.04,1.45,13.28,4.35,18.72c2.9,5.44,6.89,9.73,11.95,12.88c5.06,3.15,10.68,4.73,16.86,4.73c6.3,0,11.95-1.58,16.96-4.73
				c5-3.15,8.96-7.44,11.86-12.88C221.48,63.32,222.94,57.08,222.94,50.04z"/>
			<path class="st3" d="M372.3,0.74c1.97,0,3.67,0.68,5.1,2.04c1.42,1.36,2.13,3.21,2.13,5.56c0,0.5-0.03,1.02-0.09,1.58
				c-0.06,0.56-0.22,1.02-0.46,1.39l-28.54,82.1c-0.62,1.61-1.64,2.87-3.06,3.8c-1.42,0.93-2.94,1.27-4.54,1.02
				c-2.84-0.12-5-1.73-6.49-4.82L313,35.03l3.71,0.56L295.58,93.4c-1.36,3.09-3.52,4.7-6.49,4.82c-1.61,0.25-3.15-0.09-4.63-1.02
				c-1.48-0.93-2.53-2.19-3.15-3.8L252.4,11.3c-0.37-0.99-0.56-1.98-0.56-2.97c0-2.1,0.68-3.89,2.04-5.37
				c1.36-1.48,3.21-2.22,5.56-2.22c1.48,0,2.84,0.37,4.08,1.11c1.23,0.74,2.1,1.98,2.59,3.71l25.02,72.83l-3.89-0.19l21.5-55.6
				c1.36-3.09,3.71-4.63,7.04-4.63c1.73,0,3.12,0.4,4.17,1.2c1.05,0.8,1.82,1.95,2.32,3.43l22.61,55.6l-4.63,0.37l25.02-73.02
				C366.25,2.35,368.59,0.74,372.3,0.74z"/>
		</g>
		<g>
			<path class="st3" d="M414.28,98.09c-0.99-0.27-1.65-0.82-1.98-1.65c-0.33-0.82-0.38-1.62-0.16-2.39
				c0.22-0.77,0.67-1.41,1.36-1.93c0.69-0.52,1.52-0.64,2.51-0.37c2.19,0.66,4.39,1.07,6.58,1.23c2.19,0.16,4.44,0.19,6.75,0.08
				c-0.93-3.9-1.4-7.81-1.4-11.73c0-3.92,0.15-7.85,0.45-11.77c0.3-3.92,0.6-7.86,0.91-11.81s0.32-7.9,0.04-11.85
				c-2.09-0.05-4.19-0.15-6.3-0.29c-2.11-0.14-4.21-0.34-6.3-0.62c-0.93-0.11-1.72-0.44-2.35-0.99c-0.63-0.55-0.95-1.29-0.95-2.22
				c0-0.82,0.32-1.6,0.95-2.35s1.41-1.06,2.35-0.95c2.52,0.28,5.06,0.51,7.61,0.7c2.55,0.19,5.09,0.26,7.61,0.21
				c2.52-0.05,5.03-0.27,7.53-0.66c2.5-0.38,4.98-1.01,7.45-1.89c0.82-0.27,1.63-0.16,2.43,0.33c0.79,0.49,1.33,1.15,1.61,1.98
				c0.27,0.93,0.18,1.77-0.29,2.51c-0.47,0.74-1.14,1.25-2.02,1.52c-4.12,1.43-8.4,2.28-12.84,2.55c0.33,3.9,0.33,7.82,0,11.77
				s-0.66,7.87-0.99,11.77c-0.33,3.9-0.48,7.79-0.45,11.69c0.03,3.9,0.54,7.77,1.52,11.6c1.76-0.16,3.48-0.33,5.19-0.49
				c1.7-0.16,3.4-0.3,5.1-0.41c1.04-0.05,1.82,0.23,2.35,0.86c0.52,0.63,0.78,1.36,0.78,2.18s-0.26,1.59-0.78,2.3
				c-0.52,0.71-1.3,1.1-2.35,1.15c-2.69,0.16-5.36,0.4-8.02,0.7c-2.66,0.3-5.32,0.52-7.98,0.66c-2.66,0.14-5.32,0.12-7.98-0.04
				C419.56,99.32,416.91,98.85,414.28,98.09z"/>
			<path class="st3" d="M503.66,91.67c0.22,0.77,0.11,1.59-0.33,2.47c-0.44,0.88-1.1,1.4-1.97,1.56c-2.96,0.49-5.9,0.45-8.81-0.12
				s-5.6-1.82-8.07-3.75c-2.42-1.92-4.13-4.38-5.14-7.37c-1.02-2.99-1.19-5.99-0.54-9.01c0.6-2.69,1.87-5.02,3.79-7
				c1.92-1.98,4.12-3.51,6.58-4.61c2.19-1.04,4.5-1.86,6.91-2.47c2.41-0.6,4.83-0.79,7.24-0.58c0.93,0.11,1.71,0.45,2.35,1.03
				s0.95,1.33,0.95,2.26c0,0.82-0.32,1.59-0.95,2.3c-0.63,0.71-1.41,1.04-2.35,0.99c-1.76-0.16-3.48-0.08-5.18,0.25
				c-1.7,0.33-3.35,0.85-4.94,1.56c-0.93,0.44-1.85,0.91-2.76,1.4s-1.69,1.04-2.35,1.65c-0.71,0.66-1.3,1.32-1.77,1.98
				c-0.47,0.66-0.81,1.43-1.03,2.3c-0.22,0.88-0.3,1.81-0.25,2.8c0.05,0.99,0.23,1.96,0.54,2.92c0.3,0.96,0.73,1.84,1.28,2.63
				c0.55,0.8,1.21,1.47,1.98,2.02c1.59,1.15,3.33,1.93,5.23,2.35c1.89,0.41,3.74,0.45,5.56,0.12c0.88-0.16,1.7-0.05,2.47,0.33
				C502.87,90.08,503.39,90.73,503.66,91.67z"/>
			<path class="st3" d="M517.08,95.86c-1.87-0.82-3.33-1.96-4.4-3.42c-1.07-1.45-1.81-3.06-2.22-4.81
				c-0.41-1.76-0.54-3.58-0.37-5.47s0.55-3.72,1.15-5.47c0.49-1.37,1.06-2.8,1.69-4.28c0.63-1.48,1.38-2.85,2.26-4.12
				c0.88-1.26,1.92-2.35,3.13-3.25c1.21-0.91,2.63-1.49,4.28-1.77c1.7-0.27,3.42-0.37,5.14-0.29c1.73,0.08,3.44,0.26,5.14,0.53
				c0.77,0.11,1.51,0.29,2.22,0.54c0.71,0.25,1.43,0.51,2.14,0.78c0.05-0.82,0.42-1.51,1.11-2.06c0.69-0.55,1.41-0.82,2.18-0.82
				c0.93,0,1.69,0.32,2.26,0.95c0.58,0.63,0.92,1.39,1.03,2.26c0.27,2.52,0.4,5.05,0.37,7.57c-0.03,2.52-0.11,5.05-0.25,7.57
				c-0.14,2.52-0.25,5.05-0.33,7.57c-0.08,2.52-0.07,5.05,0.04,7.57c0.05,1.04-0.26,1.82-0.95,2.35c-0.69,0.52-1.44,0.78-2.26,0.78
				s-1.58-0.26-2.26-0.78c-0.69-0.52-1.06-1.3-1.11-2.35c-3.13,1.32-6.45,2.07-9.96,2.26C523.61,97.91,520.26,97.29,517.08,95.86z
				 M517.66,78c-0.33,0.99-0.63,2.11-0.91,3.37c-0.28,1.26-0.36,2.47-0.25,3.62c0.11,1.15,0.47,2.21,1.07,3.17
				c0.6,0.96,1.59,1.63,2.96,2.02c2.8,0.88,5.61,1.13,8.44,0.74c2.83-0.38,5.47-1.37,7.94-2.96c0.22-2.69,0.4-5.29,0.54-7.82
				c0.14-2.52,0.18-5.07,0.12-7.65c-0.93-0.6-1.88-1.14-2.84-1.6c-0.96-0.47-2.02-0.78-3.17-0.95c-1.15-0.16-2.37-0.29-3.66-0.37
				c-1.29-0.08-2.54-0.07-3.75,0.04c-0.11,0-0.4,0.07-0.86,0.21c-0.47,0.14-0.73,0.23-0.78,0.29c-0.55,0.27-1.04,0.71-1.48,1.32
				c-0.71,0.99-1.34,2.04-1.89,3.17C518.59,75.71,518.09,76.85,517.66,78z"/>
			<path class="st3" d="M552.64,90.19c0-2.36,0.16-4.75,0.49-7.16c0.38-2.91,0.77-5.8,1.15-8.68c0.38-2.88,0.55-5.8,0.49-8.77
				c0-1.04,0.33-1.84,0.99-2.39c0.66-0.55,1.4-0.82,2.22-0.82s1.59,0.27,2.3,0.82c0.71,0.55,1.07,1.35,1.07,2.39
				c2.14-0.17,4.17-0.25,6.09-0.25c2.19,0.06,4.06,0.69,5.6,1.89c1.54,1.21,2.69,2.83,3.46,4.86c0.66,1.87,1.04,3.79,1.15,5.76
				c0.11,1.98,0.19,3.95,0.25,5.93c0.05,2.8,0.14,5.58,0.25,8.35c0.11,2.77,0.16,5.56,0.16,8.35c0,1.1-0.34,1.91-1.03,2.43
				c-0.69,0.52-1.43,0.78-2.22,0.78c-0.8,0-1.54-0.26-2.22-0.78c-0.69-0.52-1.03-1.33-1.03-2.43c0-2.63-0.04-5.21-0.12-7.74
				c-0.08-2.52-0.18-5.1-0.29-7.74c-0.11-1.43-0.15-2.89-0.12-4.4c0.03-1.51-0.1-2.89-0.37-4.16c-0.16-0.77-0.33-1.44-0.49-2.02
				c-0.16-0.58-0.47-1.14-0.91-1.69c-0.11-0.22-0.34-0.41-0.7-0.58c-0.36-0.17-0.67-0.25-0.95-0.25c-0.82,0-1.59,0.06-2.3,0.16
				c-0.71,0.11-1.46,0.28-2.22,0.49c-0.33,0.11-0.66,0.22-0.99,0.33c-0.33,0.11-0.63,0.25-0.91,0.41c-0.55,1.98-0.95,3.86-1.19,5.64
				c-0.25,1.78-0.48,3.58-0.7,5.39c-0.16,1.32-0.26,2.65-0.29,3.99c-0.03,1.35-0.08,2.68-0.16,3.99c-0.08,1.32-0.25,2.63-0.49,3.95
				s-0.67,2.58-1.28,3.79c-0.49,0.93-1.15,1.47-1.98,1.6c-0.82,0.14-1.58,0-2.26-0.41c-0.69-0.41-1.21-1.03-1.56-1.85
				c-0.36-0.82-0.32-1.7,0.12-2.63c0.49-0.99,0.77-2.06,0.82-3.21C552.52,92.41,552.58,91.28,552.64,90.19z"/>
			<path class="st3" d="M615.52,79.81c-1.43-1.04-2.44-2.35-3.04-3.91c-0.6-1.56-0.63-3.22-0.08-4.98c0.55-1.59,1.4-3.02,2.55-4.28
				c1.15-1.26,2.47-2.28,3.95-3.05c1.65-0.88,3.4-1.56,5.27-2.06c1.86-0.49,3.76-0.77,5.68-0.82c1.92-0.05,3.83,0.12,5.72,0.54
				c1.89,0.41,3.69,1.06,5.39,1.93c0.93,0.49,1.45,1.15,1.56,1.98c0.11,0.82-0.04,1.59-0.45,2.3c-0.41,0.71-1.03,1.23-1.85,1.56
				s-1.7,0.25-2.63-0.25c-1.32-0.71-2.8-1.18-4.44-1.4c-1.65-0.22-3.31-0.23-4.98-0.04c-1.67,0.19-3.25,0.62-4.73,1.28
				c-1.48,0.66-2.72,1.51-3.7,2.55c-0.28,0.27-0.45,0.47-0.54,0.58c-0.08,0.11-0.21,0.36-0.37,0.74l-0.17,0.91
				c0.17,0.49,0.3,0.8,0.41,0.91c1.1,0.71,2.24,1.17,3.42,1.36c1.18,0.19,2.37,0.32,3.58,0.37c1.7,0.11,3.44,0.21,5.23,0.29
				s3.51,0.32,5.19,0.7c1.67,0.38,3.22,1.02,4.65,1.89c1.43,0.88,2.63,2.17,3.62,3.87c1.1,1.92,1.61,3.91,1.52,5.97
				c-0.08,2.06-0.89,3.91-2.43,5.56s-3.32,2.79-5.35,3.42c-2.03,0.63-4.09,1.08-6.17,1.36c-1.87,0.22-3.8,0.27-5.8,0.16
				c-2-0.11-3.92-0.43-5.76-0.95c-1.84-0.52-3.55-1.32-5.14-2.39c-1.59-1.07-2.91-2.48-3.95-4.24c-0.49-0.88-0.58-1.71-0.25-2.51
				c0.33-0.79,0.84-1.4,1.52-1.81c0.68-0.41,1.45-0.56,2.3-0.45c0.85,0.11,1.55,0.6,2.1,1.48c0.77,1.26,1.84,2.22,3.21,2.88
				c1.37,0.66,2.87,1.11,4.49,1.36c1.62,0.25,3.25,0.3,4.9,0.16c1.65-0.14,3.13-0.34,4.44-0.62c0.71-0.16,1.44-0.4,2.18-0.7
				c0.74-0.3,1.37-0.67,1.89-1.11c0.52-0.44,0.89-0.95,1.11-1.52c0.22-0.58,0.19-1.22-0.08-1.93c-0.55-1.37-1.47-2.36-2.76-2.96
				c-1.29-0.6-2.65-0.96-4.07-1.07c-1.43-0.11-2.88-0.16-4.36-0.16s-2.96-0.07-4.44-0.21c-1.48-0.14-2.94-0.4-4.36-0.78
				C618.04,81.32,616.72,80.69,615.52,79.81z"/>
			<path class="st3" d="M654.94,66.15c1.04-1.43,2.29-2.69,3.75-3.79c1.45-1.1,3-1.96,4.65-2.59c1.65-0.63,3.35-0.96,5.1-0.99
				c1.76-0.03,3.51,0.32,5.27,1.03c1.7,0.66,3.24,1.55,4.61,2.67c1.37,1.13,2.44,2.57,3.21,4.32c0.6,1.32,0.96,2.74,1.07,4.28
				c0.11,1.54-0.3,2.94-1.23,4.2c-0.82,1.15-1.83,2.03-3,2.63c-1.18,0.6-2.44,1.04-3.79,1.32c-1.34,0.28-2.72,0.41-4.12,0.41
				s-2.73-0.03-3.99-0.08c-1.43-0.05-2.84-0.16-4.24-0.33s-2.81-0.33-4.24-0.49c0.44,2.47,1.32,4.66,2.63,6.58
				c1.32,1.92,3.1,3.37,5.35,4.36c0.6,0.22,1.07,0.38,1.4,0.49c0.16,0.06,0.31,0.1,0.45,0.12c0.14,0.03,0.29,0.04,0.45,0.04
				c0.44,0.06,0.81,0.1,1.11,0.12c0.3,0.03,0.59,0.01,0.86-0.04c0.38-0.05,0.64-0.1,0.78-0.12c0.14-0.03,0.29-0.07,0.45-0.12
				c0.6-0.16,1.14-0.36,1.6-0.58c0.47-0.22,1.03-0.58,1.69-1.07c0.33-0.27,0.77-0.69,1.32-1.23c0.55-0.55,1.02-1.04,1.4-1.48
				c0.55-0.77,1.22-1.29,2.02-1.56c0.79-0.27,1.61-0.16,2.43,0.33c0.71,0.44,1.22,1.11,1.52,2.02c0.3,0.91,0.18,1.74-0.37,2.51
				c-1.59,2.14-3.47,3.96-5.64,5.47c-2.17,1.51-4.65,2.32-7.45,2.43c-2.25,0.11-4.42-0.29-6.5-1.19c-2.09-0.91-3.92-2.13-5.51-3.66
				c-1.98-1.92-3.54-4.14-4.69-6.67c-1.15-2.52-1.78-5.1-1.89-7.74c-0.49-0.38-0.86-0.86-1.11-1.44s-0.33-1.17-0.25-1.77
				c0.08-0.6,0.29-1.17,0.62-1.69c0.33-0.52,0.82-0.86,1.48-1.03C652.75,69.8,653.68,67.91,654.94,66.15z M674.7,68.13
				c-0.6-0.77-1.54-1.45-2.8-2.06c-1.04-0.44-2.26-0.66-3.66-0.66c-1.4,0-2.59,0.25-3.58,0.74c-1.26,0.6-2.39,1.44-3.37,2.51
				c-0.99,1.07-1.78,2.26-2.39,3.58c1.32,0.16,2.63,0.33,3.95,0.49c1.32,0.16,2.63,0.27,3.95,0.33c0.71,0,1.43,0,2.14,0
				c0.71,0,1.43-0.03,2.14-0.08c0.22,0,0.42-0.01,0.62-0.04c0.19-0.03,0.4-0.04,0.62-0.04c0.49-0.11,0.86-0.18,1.11-0.21
				c0.25-0.03,0.51-0.1,0.78-0.21c0.22-0.05,0.49-0.14,0.82-0.25c0.27-0.11,0.44-0.19,0.49-0.25c0.05-0.05,0.14-0.11,0.25-0.16
				l0.25-0.99c-0.11-0.22-0.18-0.42-0.21-0.62c-0.03-0.19-0.1-0.37-0.21-0.53c-0.06-0.16-0.18-0.41-0.37-0.74
				C675.04,68.62,674.86,68.35,674.7,68.13z"/>
			<path class="st3" d="M691.9,66.15c1.04-1.43,2.29-2.69,3.75-3.79c1.45-1.1,3-1.96,4.65-2.59c1.65-0.63,3.35-0.96,5.1-0.99
				c1.76-0.03,3.51,0.32,5.27,1.03c1.7,0.66,3.24,1.55,4.61,2.67c1.37,1.13,2.44,2.57,3.21,4.32c0.6,1.32,0.96,2.74,1.07,4.28
				c0.11,1.54-0.3,2.94-1.23,4.2c-0.82,1.15-1.83,2.03-3,2.63c-1.18,0.6-2.44,1.04-3.79,1.32c-1.34,0.28-2.72,0.41-4.12,0.41
				s-2.73-0.03-3.99-0.08c-1.43-0.05-2.84-0.16-4.24-0.33s-2.81-0.33-4.24-0.49c0.44,2.47,1.32,4.66,2.63,6.58
				c1.32,1.92,3.1,3.37,5.35,4.36c0.6,0.22,1.07,0.38,1.4,0.49c0.16,0.06,0.31,0.1,0.45,0.12c0.14,0.03,0.29,0.04,0.45,0.04
				c0.44,0.06,0.81,0.1,1.11,0.12c0.3,0.03,0.59,0.01,0.86-0.04c0.38-0.05,0.64-0.1,0.78-0.12c0.14-0.03,0.29-0.07,0.45-0.12
				c0.6-0.16,1.14-0.36,1.6-0.58c0.47-0.22,1.03-0.58,1.69-1.07c0.33-0.27,0.77-0.69,1.32-1.23c0.55-0.55,1.02-1.04,1.4-1.48
				c0.55-0.77,1.22-1.29,2.02-1.56c0.79-0.27,1.61-0.16,2.43,0.33c0.71,0.44,1.22,1.11,1.52,2.02c0.3,0.91,0.18,1.74-0.37,2.51
				c-1.59,2.14-3.47,3.96-5.64,5.47c-2.17,1.51-4.65,2.32-7.45,2.43c-2.25,0.11-4.42-0.29-6.5-1.19c-2.09-0.91-3.92-2.13-5.51-3.66
				c-1.98-1.92-3.54-4.14-4.69-6.67c-1.15-2.52-1.78-5.1-1.89-7.74c-0.49-0.38-0.86-0.86-1.11-1.44s-0.33-1.17-0.25-1.77
				c0.08-0.6,0.29-1.17,0.62-1.69c0.33-0.52,0.82-0.86,1.48-1.03C689.7,69.8,690.63,67.91,691.9,66.15z M711.65,68.13
				c-0.6-0.77-1.54-1.45-2.8-2.06c-1.04-0.44-2.26-0.66-3.66-0.66c-1.4,0-2.59,0.25-3.58,0.74c-1.26,0.6-2.39,1.44-3.37,2.51
				c-0.99,1.07-1.78,2.26-2.39,3.58c1.32,0.16,2.63,0.33,3.95,0.49c1.32,0.16,2.63,0.27,3.95,0.33c0.71,0,1.43,0,2.14,0
				c0.71,0,1.43-0.03,2.14-0.08c0.22,0,0.42-0.01,0.62-0.04c0.19-0.03,0.4-0.04,0.62-0.04c0.49-0.11,0.86-0.18,1.11-0.21
				c0.25-0.03,0.51-0.1,0.78-0.21c0.22-0.05,0.49-0.14,0.82-0.25c0.27-0.11,0.44-0.19,0.49-0.25c0.05-0.05,0.14-0.11,0.25-0.16
				l0.25-0.99c-0.11-0.22-0.18-0.42-0.21-0.62c-0.03-0.19-0.1-0.37-0.21-0.53c-0.06-0.16-0.18-0.41-0.37-0.74
				C711.99,68.62,711.82,68.35,711.65,68.13z"/>
		</g>
		<g>
			<path class="st3" d="M507.41,226.36c0-2.36,0.16-4.75,0.49-7.16c0.38-2.91,0.77-5.8,1.15-8.68s0.55-5.8,0.49-8.77
				c0-1.04,0.33-1.84,0.99-2.39c0.66-0.55,1.4-0.82,2.22-0.82s1.59,0.28,2.3,0.82c0.71,0.55,1.07,1.34,1.07,2.39
				c2.14-0.17,4.17-0.25,6.09-0.25c2.19,0.06,4.06,0.69,5.6,1.89c1.54,1.21,2.69,2.83,3.46,4.86c0.66,1.87,1.04,3.79,1.15,5.76
				c0.11,1.97,0.19,3.95,0.25,5.93c0.05,2.8,0.14,5.58,0.25,8.35c0.11,2.77,0.16,5.56,0.16,8.35c0,1.1-0.34,1.91-1.03,2.43
				c-0.69,0.52-1.43,0.78-2.22,0.78c-0.8,0-1.54-0.26-2.22-0.78c-0.69-0.52-1.03-1.33-1.03-2.43c0-2.63-0.04-5.21-0.12-7.74
				c-0.08-2.52-0.18-5.1-0.29-7.74c-0.11-1.43-0.15-2.89-0.12-4.4c0.03-1.51-0.1-2.89-0.37-4.16c-0.16-0.77-0.33-1.44-0.49-2.02
				c-0.16-0.58-0.47-1.14-0.91-1.69c-0.11-0.22-0.34-0.41-0.7-0.58c-0.36-0.16-0.67-0.25-0.95-0.25c-0.82,0-1.59,0.06-2.3,0.17
				c-0.71,0.11-1.46,0.28-2.22,0.49c-0.33,0.11-0.66,0.22-0.99,0.33c-0.33,0.11-0.63,0.25-0.91,0.41c-0.55,1.98-0.95,3.86-1.19,5.64
				s-0.48,3.58-0.7,5.39c-0.16,1.32-0.26,2.65-0.29,3.99c-0.03,1.34-0.08,2.67-0.16,3.99c-0.08,1.32-0.25,2.63-0.49,3.95
				c-0.25,1.32-0.67,2.58-1.28,3.79c-0.49,0.93-1.15,1.47-1.98,1.6c-0.82,0.14-1.58,0-2.26-0.41c-0.69-0.41-1.21-1.03-1.56-1.85
				c-0.36-0.82-0.32-1.7,0.12-2.63c0.49-0.99,0.77-2.06,0.82-3.21C507.3,228.58,507.35,227.46,507.41,226.36z"/>
			<path class="st3" d="M561.16,196.32c1.76-0.22,3.59-0.29,5.51-0.21c1.92,0.08,3.76,0.41,5.51,0.99c1.76,0.58,3.35,1.44,4.77,2.59
				s2.52,2.66,3.29,4.53c0.55,1.32,0.84,2.65,0.86,3.99c0.03,1.34-0.17,2.63-0.58,3.87c-0.41,1.23-1.02,2.42-1.81,3.54
				c-0.8,1.13-1.71,2.15-2.76,3.09c-2.25,2.03-4.72,3.76-7.41,5.19c-2.69,1.43-5.51,2.52-8.48,3.29c-1.26,0.33-2.57,0.62-3.91,0.86
				c-1.34,0.25-2.7,0.37-4.07,0.37c-1.37,0-2.72-0.15-4.03-0.45c-1.32-0.3-2.55-0.81-3.7-1.52c-0.82-0.49-1.32-1.15-1.48-1.98
				c-0.33-0.93-0.69-1.81-1.07-2.63c-0.38-0.82-0.75-1.67-1.11-2.55c-0.36-0.88-0.65-1.76-0.86-2.63c-0.22-0.88-0.33-1.78-0.33-2.72
				c0-1.86,0.4-3.63,1.19-5.31c0.79-1.67,1.88-3.14,3.25-4.4c2.3-2.19,4.96-3.95,7.98-5.27
				C554.95,197.63,558.03,196.76,561.16,196.32z M570.46,203.39c-1.48-0.55-3.07-0.82-4.77-0.82c-1.81-0.05-3.62,0.12-5.43,0.53
				c-1.81,0.41-3.54,0.98-5.18,1.69c-1.54,0.6-3.12,1.44-4.73,2.51c-1.62,1.07-2.81,2.37-3.58,3.91c-0.44,0.82-0.65,1.66-0.62,2.51
				c0.03,0.85,0.17,1.7,0.41,2.55c0.25,0.85,0.58,1.7,0.99,2.55c0.41,0.85,0.78,1.69,1.11,2.51c0.88,0.22,1.43,0.33,1.65,0.33
				c0.11,0.06,0.25,0.08,0.41,0.08c0.16,0,0.3,0,0.41,0c1.1,0.11,2.08,0.08,2.96-0.08c0.6,0,1.37-0.11,2.3-0.33
				c1.43-0.27,2.8-0.64,4.12-1.11c1.32-0.47,2.52-0.97,3.62-1.52c1.26-0.6,2.5-1.26,3.7-1.98c1.21-0.71,2.22-1.45,3.05-2.22
				c0.55-0.49,1.07-1.01,1.56-1.56c0.27-0.27,0.47-0.49,0.58-0.66c0.27-0.38,0.49-0.67,0.66-0.86c0.17-0.19,0.3-0.42,0.41-0.7
				c0.22-0.38,0.33-0.68,0.33-0.91c0.05-0.11,0.09-0.25,0.12-0.41c0.03-0.17,0.07-0.3,0.12-0.41v-0.91
				c-0.06-0.22-0.08-0.38-0.08-0.49c0-0.11-0.03-0.22-0.08-0.33c-0.17-0.38-0.32-0.67-0.45-0.86s-0.29-0.4-0.45-0.62
				c0.05,0.05-0.01-0.03-0.21-0.25c-0.19-0.22-0.32-0.36-0.37-0.41l-0.66-0.66c-0.28-0.16-0.58-0.36-0.91-0.58
				C571.11,203.67,570.79,203.51,570.46,203.39z"/>
			<path class="st3" d="M636.38,202.57c-0.33,1.54-0.71,3.06-1.15,4.57c-0.44,1.51-0.93,3-1.48,4.49c-0.6,1.54-1.18,3.06-1.73,4.57
				c-0.55,1.51-1.21,2.98-1.98,4.4c-0.71,1.37-1.48,2.7-2.3,3.99c-0.82,1.29-1.54,2.65-2.14,4.07c-0.55,1.26-1.11,2.51-1.69,3.75
				c-0.58,1.23-1.3,2.4-2.18,3.5c-0.44,0.55-0.93,0.88-1.48,0.99c-0.55,0.11-1.08,0.07-1.61-0.12c-0.52-0.19-1.02-0.51-1.48-0.95
				c-0.47-0.44-0.78-0.91-0.95-1.4c-0.93-2.58-1.62-5.17-2.06-7.78c-0.44-2.61-1.02-5.23-1.73-7.86c-0.17-0.77-0.34-1.51-0.54-2.22
				c-0.19-0.71-0.4-1.43-0.62-2.14c-0.44,1.26-0.92,2.5-1.44,3.7c-0.52,1.21-1.08,2.44-1.69,3.7c-0.66,1.26-1.32,2.55-1.97,3.87
				c-0.66,1.32-1.35,2.61-2.06,3.87c-0.6,1.26-1.32,2.43-2.14,3.5s-1.81,1.99-2.96,2.76c-0.93,0.6-1.88,0.66-2.84,0.17
				s-1.6-1.21-1.93-2.14c-0.82-2.47-1.56-4.98-2.22-7.53s-1.32-5.1-1.98-7.65c-0.66-2.55-1.34-5.08-2.06-7.57
				c-0.71-2.5-1.54-4.98-2.47-7.45c-0.33-0.82-0.23-1.63,0.29-2.43c0.52-0.79,1.17-1.33,1.93-1.61c0.93-0.27,1.77-0.16,2.51,0.33
				c0.74,0.49,1.25,1.15,1.52,1.97c1.54,3.95,2.8,7.93,3.79,11.93c0.99,4.01,2.03,8.04,3.13,12.1l0.49-0.99
				c0.6-1.21,1.19-2.39,1.77-3.54s1.17-2.33,1.77-3.54c0.66-1.26,1.25-2.56,1.77-3.91c0.52-1.34,1-2.7,1.44-4.07
				c0.44-1.32,0.85-2.63,1.23-3.95c0.38-1.32,0.63-2.69,0.74-4.12c0.05-0.88,0.37-1.59,0.95-2.14c0.58-0.55,1.23-0.88,1.97-0.99
				c0.74-0.11,1.44,0.01,2.1,0.37c0.66,0.36,1.12,1,1.4,1.93c0.77,2.8,1.56,5.57,2.39,8.31c0.82,2.74,1.56,5.51,2.22,8.31
				c0.27,1.15,0.52,2.29,0.74,3.42c0.22,1.12,0.46,2.24,0.74,3.33c0.6-1.32,1.3-2.59,2.1-3.83c0.79-1.23,1.52-2.51,2.18-3.83
				c1.21-2.47,2.26-5.06,3.17-7.78c0.91-2.72,1.63-5.42,2.18-8.11c0.17-0.93,0.67-1.62,1.52-2.06c0.85-0.44,1.69-0.52,2.51-0.25
				c0.93,0.28,1.59,0.8,1.98,1.56C636.44,200.87,636.55,201.69,636.38,202.57z"/>
			<path class="st3" d="M644.94,228.5c0.71,0.44,1.26,1.1,1.65,1.98c0.38,0.88,0.44,1.7,0.17,2.47c-0.22,0.82-0.74,1.51-1.56,2.06
				c-0.6,0.66-1.37,0.97-2.3,0.95c-0.93-0.03-1.7-0.34-2.3-0.95c-0.82-0.6-1.35-1.15-1.56-1.65c-0.44-0.77-0.56-1.54-0.37-2.3
				c0.19-0.77,0.59-1.43,1.19-1.98c0.17-0.11,0.32-0.23,0.45-0.37c0.14-0.14,0.32-0.26,0.54-0.37c0.49-0.22,0.78-0.33,0.86-0.33
				c0.08,0,0.37-0.05,0.86-0.17c0.16,0,0.36,0.01,0.58,0.04c0.22,0.03,0.38,0.07,0.49,0.12C644.06,228.06,644.5,228.22,644.94,228.5
				z M644.29,175.41c0-1.04,0.34-1.84,1.03-2.39c0.69-0.55,1.43-0.82,2.22-0.82c0.79,0,1.54,0.28,2.22,0.82
				c0.69,0.55,1.03,1.34,1.03,2.39c0,3.62,0.04,7.26,0.12,10.91c0.08,3.65,0.08,7.28,0,10.91c-0.08,3.62-0.3,7.24-0.66,10.86
				c-0.36,3.62-0.97,7.22-1.85,10.78c-0.28,1.04-0.8,1.73-1.56,2.06c-0.77,0.33-1.55,0.38-2.35,0.17c-0.8-0.22-1.47-0.67-2.02-1.36
				c-0.55-0.69-0.69-1.55-0.41-2.59c0.82-3.4,1.4-6.84,1.73-10.33c0.33-3.48,0.54-6.97,0.62-10.45c0.08-3.48,0.08-6.98,0-10.49
				C644.33,182.35,644.29,178.87,644.29,175.41z"/>
		</g>
		<g>
			<path class="st4" d="M125.63,220.55c0.4,1.4,0.2,2.89-0.6,4.48c-0.8,1.59-1.99,2.54-3.59,2.84c-5.38,0.9-10.71,0.82-15.99-0.22
				c-5.28-1.05-10.16-3.31-14.65-6.8c-4.39-3.49-7.5-7.95-9.34-13.38c-1.85-5.43-2.17-10.89-0.97-16.37
				c1.1-4.88,3.39-9.12,6.88-12.71c3.49-3.59,7.47-6.38,11.96-8.37c3.98-1.89,8.17-3.39,12.56-4.48c4.38-1.1,8.77-1.44,13.15-1.05
				c1.69,0.2,3.11,0.82,4.26,1.87c1.14,1.05,1.72,2.42,1.72,4.11c0,1.49-0.57,2.89-1.72,4.18c-1.15,1.3-2.57,1.89-4.26,1.79
				c-3.19-0.3-6.33-0.15-9.42,0.45c-3.09,0.6-6.08,1.55-8.97,2.84c-1.7,0.8-3.36,1.64-5.01,2.54c-1.64,0.9-3.06,1.89-4.26,2.99
				c-1.3,1.2-2.37,2.39-3.21,3.59c-0.85,1.2-1.47,2.59-1.87,4.19c-0.4,1.6-0.55,3.29-0.45,5.08c0.1,1.79,0.42,3.56,0.97,5.31
				c0.55,1.75,1.32,3.34,2.32,4.78c1,1.45,2.19,2.67,3.59,3.66c2.89,2.09,6.05,3.51,9.49,4.26c3.44,0.75,6.8,0.82,10.09,0.22
				c1.59-0.3,3.09-0.1,4.48,0.6C124.19,217.66,125.13,218.85,125.63,220.55z"/>
			<path class="st4" d="M152.02,114.87c1.79,0,3.19,0.6,4.19,1.79c1,1.2,1.59,2.59,1.79,4.19c0.99,9.47,1.54,18.93,1.64,28.4
				c0.1,9.47-0.03,18.93-0.37,28.4c-0.35,9.47-0.87,18.93-1.57,28.4c-0.7,9.47-1.4,18.88-2.09,28.25c-0.2,1.69-0.82,3.11-1.87,4.26
				c-1.05,1.14-2.42,1.72-4.11,1.72c-1.5,0-2.89-0.57-4.19-1.72c-1.3-1.15-1.89-2.57-1.79-4.26c0.7-9.37,1.42-18.78,2.17-28.25
				c0.75-9.47,1.29-18.93,1.64-28.4c0.35-9.47,0.47-18.93,0.37-28.4c-0.1-9.47-0.65-18.93-1.64-28.4c-0.2-1.59,0.35-2.99,1.64-4.19
				C149.13,115.46,150.53,114.87,152.02,114.87z"/>
			<path class="st4" d="M182.9,174.21c1.89-2.59,4.16-4.88,6.8-6.88c2.64-1.99,5.46-3.56,8.45-4.71c2.99-1.14,6.08-1.74,9.27-1.79
				c3.19-0.05,6.38,0.57,9.57,1.87c3.09,1.2,5.88,2.82,8.37,4.86c2.49,2.04,4.43,4.66,5.83,7.85c1.1,2.39,1.74,4.98,1.94,7.77
				c0.2,2.79-0.55,5.33-2.24,7.62c-1.5,2.09-3.31,3.69-5.46,4.78c-2.14,1.1-4.44,1.89-6.88,2.39c-2.44,0.5-4.93,0.75-7.47,0.75
				c-2.54,0-4.96-0.05-7.25-0.15c-2.59-0.1-5.16-0.3-7.7-0.6s-5.11-0.6-7.7-0.9c0.8,4.48,2.39,8.47,4.78,11.96
				c2.39,3.49,5.63,6.13,9.72,7.92c1.1,0.4,1.94,0.7,2.54,0.9c0.3,0.1,0.57,0.17,0.82,0.22c0.25,0.05,0.52,0.08,0.82,0.08
				c0.8,0.1,1.47,0.17,2.02,0.22c0.55,0.05,1.07,0.03,1.57-0.08c0.7-0.1,1.17-0.17,1.42-0.22c0.25-0.05,0.52-0.12,0.82-0.22
				c1.1-0.3,2.07-0.65,2.92-1.05c0.85-0.4,1.87-1.05,3.06-1.94c0.6-0.5,1.39-1.25,2.39-2.24c1-1,1.84-1.89,2.54-2.69
				c0.99-1.39,2.22-2.34,3.66-2.84c1.44-0.5,2.91-0.3,4.41,0.6c1.29,0.8,2.22,2.02,2.77,3.66c0.55,1.64,0.32,3.16-0.67,4.56
				c-2.89,3.89-6.3,7.2-10.24,9.94c-3.94,2.74-8.45,4.21-13.53,4.41c-4.09,0.2-8.02-0.52-11.81-2.17
				c-3.79-1.64-7.13-3.86-10.02-6.65c-3.59-3.49-6.43-7.52-8.52-12.11c-2.09-4.58-3.24-9.27-3.44-14.05
				c-0.9-0.7-1.57-1.57-2.02-2.62c-0.45-1.05-0.6-2.12-0.45-3.21c0.15-1.1,0.52-2.12,1.12-3.06c0.6-0.95,1.49-1.57,2.69-1.87
				C178.91,180.84,180.61,177.4,182.9,174.21z M218.77,177.8c-1.1-1.39-2.79-2.64-5.08-3.74c-1.89-0.8-4.11-1.2-6.65-1.2
				s-4.71,0.45-6.5,1.34c-2.29,1.1-4.33,2.62-6.13,4.56c-1.79,1.94-3.24,4.11-4.33,6.5c2.39,0.3,4.78,0.6,7.17,0.9
				s4.78,0.5,7.17,0.6c1.29,0,2.59,0,3.89,0c1.29,0,2.59-0.05,3.89-0.15c0.4,0,0.77-0.02,1.12-0.08c0.35-0.05,0.72-0.08,1.12-0.08
				c0.9-0.2,1.57-0.32,2.02-0.37c0.45-0.05,0.92-0.17,1.42-0.37c0.4-0.1,0.9-0.25,1.5-0.45c0.5-0.2,0.8-0.35,0.9-0.45
				c0.1-0.1,0.25-0.2,0.45-0.3l0.45-1.79c-0.2-0.4-0.32-0.77-0.37-1.12c-0.05-0.35-0.18-0.67-0.37-0.97
				c-0.1-0.3-0.32-0.75-0.67-1.35C219.4,178.69,219.07,178.2,218.77,177.8z"/>
			<path class="st4" d="M259.81,228.17c-3.39-1.49-6.05-3.56-8-6.2c-1.94-2.64-3.29-5.55-4.04-8.74c-0.75-3.19-0.97-6.5-0.67-9.94
				c0.3-3.44,1-6.75,2.09-9.94c0.9-2.49,1.92-5.08,3.06-7.77c1.14-2.69,2.52-5.18,4.11-7.47c1.59-2.29,3.49-4.26,5.68-5.9
				c2.19-1.64,4.78-2.71,7.77-3.21c3.09-0.5,6.2-0.67,9.34-0.52c3.14,0.15,6.25,0.47,9.34,0.97c1.39,0.2,2.74,0.52,4.04,0.97
				c1.29,0.45,2.59,0.92,3.89,1.42c0.1-1.49,0.77-2.74,2.02-3.74c1.25-1,2.56-1.5,3.96-1.5c1.69,0,3.06,0.57,4.11,1.72
				c1.05,1.15,1.67,2.52,1.87,4.11c0.5,4.58,0.72,9.17,0.67,13.75c-0.05,4.58-0.2,9.17-0.45,13.75c-0.25,4.58-0.45,9.17-0.6,13.75
				c-0.15,4.58-0.13,9.17,0.07,13.75c0.1,1.89-0.47,3.31-1.72,4.26c-1.25,0.95-2.62,1.42-4.11,1.42c-1.5,0-2.87-0.47-4.11-1.42
				c-1.25-0.95-1.92-2.37-2.02-4.26c-5.68,2.39-11.71,3.76-18.09,4.11C271.67,231.88,265.59,230.76,259.81,228.17z M260.86,195.73
				c-0.6,1.79-1.15,3.84-1.64,6.13c-0.5,2.29-0.65,4.48-0.45,6.58c0.2,2.09,0.85,4.01,1.94,5.75c1.1,1.74,2.89,2.97,5.38,3.66
				c5.08,1.59,10.19,2.04,15.32,1.34c5.13-0.7,9.94-2.49,14.42-5.38c0.4-4.88,0.72-9.62,0.97-14.2c0.25-4.58,0.32-9.22,0.22-13.9
				c-1.7-1.1-3.41-2.07-5.16-2.92c-1.75-0.84-3.66-1.42-5.75-1.72s-4.31-0.52-6.65-0.67c-2.34-0.15-4.61-0.12-6.8,0.08
				c-0.2,0-0.72,0.13-1.57,0.37c-0.85,0.25-1.32,0.42-1.42,0.52c-1,0.5-1.89,1.3-2.69,2.39c-1.3,1.79-2.44,3.71-3.44,5.75
				C262.55,191.57,261.65,193.64,260.86,195.73z"/>
			<path class="st4" d="M328.95,171.37c0.1-1.89,0.8-3.31,2.09-4.26c1.29-0.95,2.69-1.42,4.18-1.42c1.5,0,2.81,0.47,3.96,1.42
				c1.14,0.95,1.67,2.37,1.57,4.26c0,0.6-0.03,1.22-0.08,1.87c-0.05,0.65-0.07,1.27-0.07,1.87c3.19-1.59,6.55-2.96,10.09-4.11
				c3.54-1.14,7.07-1.87,10.61-2.17c3.54-0.3,6.97-0.02,10.31,0.82c3.34,0.85,6.4,2.47,9.19,4.86c1.39,1.3,2.02,2.69,1.87,4.19
				s-0.75,2.77-1.79,3.81c-1.05,1.05-2.37,1.7-3.96,1.94c-1.59,0.25-3.14-0.22-4.63-1.42c-1.1-0.9-2.32-1.54-3.66-1.94
				c-1.34-0.4-2.79-0.57-4.33-0.52c-1.55,0.05-3.09,0.22-4.63,0.52c-1.55,0.3-3.01,0.65-4.41,1.05c-5.28,1.7-10.22,3.94-14.8,6.73
				c0.2,4.88,0.5,9.77,0.9,14.65c0.4,4.09,0.75,8.3,1.05,12.63c0.3,4.33,1.14,8.45,2.54,12.33c0.6,1.79,0.47,3.31-0.37,4.56
				c-0.85,1.25-2,2.07-3.44,2.47c-1.45,0.4-2.94,0.3-4.48-0.3c-1.55-0.6-2.62-1.79-3.21-3.59c-0.8-2.29-1.35-4.63-1.64-7.03
				s-0.6-4.78-0.9-7.17c-0.2-2.29-0.43-4.61-0.67-6.95c-0.25-2.34-0.47-4.66-0.67-6.95c-0.5-5.38-0.82-10.74-0.97-16.07
				C328.43,182.11,328.55,176.75,328.95,171.37z"/>
			<path class="st4" d="M402.28,114.87c1.79,0,3.19,0.6,4.19,1.79c0.99,1.2,1.59,2.59,1.79,4.19c1,9.47,1.54,18.93,1.64,28.4
				c0.1,9.47-0.03,18.93-0.37,28.4c-0.35,9.47-0.87,18.93-1.57,28.4c-0.7,9.47-1.4,18.88-2.09,28.25c-0.2,1.69-0.82,3.11-1.87,4.26
				c-1.05,1.14-2.42,1.72-4.11,1.72c-1.5,0-2.89-0.57-4.19-1.72c-1.3-1.15-1.89-2.57-1.79-4.26c0.7-9.37,1.42-18.78,2.17-28.25
				c0.75-9.47,1.29-18.93,1.64-28.4c0.35-9.47,0.47-18.93,0.37-28.4c-0.1-9.47-0.65-18.93-1.64-28.4c-0.2-1.59,0.35-2.99,1.64-4.19
				C399.39,115.46,400.78,114.87,402.28,114.87z"/>
			<path class="st4" d="M485.32,164.94c1.39,0.8,2.34,2,2.84,3.59c0.5,1.59,0.25,3.09-0.75,4.48c-2.49,3.59-4.36,7.53-5.61,11.81
				c-1.25,4.29-2.67,8.47-4.26,12.56c-1.7,4.39-3.56,8.62-5.61,12.71c-2.04,4.09-4.21,8.22-6.5,12.41c-0.2,0.5-0.43,0.92-0.67,1.27
				c-0.25,0.35-0.47,0.77-0.67,1.27c0.4,1.59,0.17,3.02-0.67,4.26c-0.85,1.25-1.97,2.12-3.36,2.62c-4.09,6.97-8.2,13.88-12.33,20.7
				c-4.14,6.83-8.25,13.73-12.33,20.7c-1,1.69-2.27,2.64-3.81,2.84c-1.55,0.2-2.97-0.08-4.26-0.82c-1.3-0.75-2.24-1.84-2.84-3.29
				c-0.6-1.45-0.4-3.02,0.6-4.71c4.19-7.17,8.42-14.28,12.71-21.3c4.28-7.03,8.52-14.12,12.71-21.3
				c-4.48-8.07-8.77-16.22-12.85-24.44c-4.09-8.22-8.27-16.42-12.56-24.59c-0.9-1.69-1.02-3.26-0.37-4.71
				c0.65-1.44,1.59-2.54,2.84-3.29c1.25-0.75,2.64-1.02,4.19-0.82c1.54,0.2,2.76,1.15,3.66,2.84c3.69,7.17,7.32,14.33,10.91,21.45
				c3.59,7.13,7.27,14.23,11.06,21.3c3.69-6.78,6.97-13.9,9.87-21.38c1.5-4.08,2.92-8.24,4.26-12.48c1.34-4.23,3.26-8.1,5.75-11.58
				c0.9-1.39,2.09-2.32,3.59-2.77C482.33,163.82,483.83,164.04,485.32,164.94z"/>
		</g>
	</g>
	<g>
		<path class="st4" d="M370.67,94.55c0.36-1.38,1.07-2.29,2.13-2.73c1.05-0.44,2.11-0.51,3.17-0.22c1.05,0.29,1.93,0.91,2.62,1.86
			c0.69,0.95,0.86,2.08,0.49,3.39c-1.02,4.08-2.55,7.81-4.59,11.2c-2.04,3.39-5.1,5.88-9.18,7.49c-1.09,0.44-2.17,0.31-3.22-0.38
			c-1.06-0.69-1.77-1.58-2.13-2.68c-0.36-1.24-0.22-2.31,0.44-3.22c0.66-0.91,1.53-1.62,2.62-2.13c1.24-0.51,2.28-1.24,3.11-2.19
			c0.84-0.95,1.55-1.99,2.13-3.11c0.58-1.13,1.05-2.33,1.42-3.61C370.05,96.94,370.38,95.72,370.67,94.55z"/>
	</g>
</g>
</svg>
